<svg id="图层_1" data-name="图层 1" xmlns="http://www.w3.org/2000/svg" width="79.58" height="14" viewBox="0 0 79.58 14"><defs><style>.cls-1{fill:#129d58;}.cls-2{fill:#fff;}</style></defs><rect class="cls-1" width="79.58" height="14" rx="3.17"/><path class="cls-2" d="M14.05,6.32c0-2.32-2.33-4.21-5.19-4.21S3.67,4,3.67,6.32c0,2.08,1.85,3.83,4.34,4.15.17,0,.4.12.46.26a1.07,1.07,0,0,1,0,.47l-.07.44c0,.14-.11.52.45.28a16.82,16.82,0,0,0,4.08-3h0A3.74,3.74,0,0,0,14.05,6.32Z"/><path class="cls-1" d="M12.32,7.66H10.86a.1.1,0,0,1-.1-.1h0V5.3h0a.1.1,0,0,1,.1-.1h1.46a.09.09,0,0,1,.1.1v.36a.09.09,0,0,1-.1.1h-1v.39h1a.09.09,0,0,1,.1.09v.37a.09.09,0,0,1-.1.1h-1v.38h1a.1.1,0,0,1,.1.1v.37A.09.09,0,0,1,12.32,7.66Z"/><path class="cls-1" d="M6.93,7.66a.1.1,0,0,0,.1-.1V7.19a.11.11,0,0,0-.1-.1h-1V5.3a.1.1,0,0,0-.1-.1H5.47a.1.1,0,0,0-.1.1V7.56h0a.1.1,0,0,0,.1.1H6.93Z"/><rect class="cls-1" x="7.34" y="5.2" width="0.57" height="2.46" rx="0.1"/><path class="cls-1" d="M10.31,5.2H9.94a.1.1,0,0,0-.1.1V6.64l-1-1.4H8.36a.09.09,0,0,0-.1.1V7.56a.09.09,0,0,0,.1.1h.37a.1.1,0,0,0,.1-.1V6.22l1,1.4,0,0h.42a.09.09,0,0,0,.1-.1V5.3A.09.09,0,0,0,10.31,5.2Z"/><path class="cls-2" d="M18.65,2.21V9.46h3.6v1.11H17.32V2.21Z"/><path class="cls-2" d="M23.63,10.57V2.21h1.31v8.36Z"/><path class="cls-2" d="M28.51,2.21,32.19,8.6V2.21h1.23v8.36H32.08L28.35,4.19v6.38H27.12V2.21Z"/><path class="cls-2" d="M40.26,5.69V6.8H36.9V9.46h3.76v1.11H35.6V2.21h4.95V3.32H36.9V5.69Z"/><path class="cls-2" d="M53.43,3.56c.08.12.08.12.08.19s0,.11-.35.13a4.25,4.25,0,0,0-2.52.84A3.55,3.55,0,0,0,49,7.5c0,.95.74,1.66,2,1.92a10.05,10.05,0,0,0,2,.18,4.85,4.85,0,0,0-.44,1.19,9.76,9.76,0,0,1-2.36-.35,2.93,2.93,0,0,1-2.34-2.93,3.72,3.72,0,0,1,1.79-3.08l-4,.93a4.5,4.5,0,0,0-.55.13l-.27-1.26a49,49,0,0,0,4.9-.79,16.64,16.64,0,0,0,3.17-.73ZM52.31,5.25a7,7,0,0,1,1.4,1.1l-.55.6a6.4,6.4,0,0,0-1.33-1.14Zm.86-1a7,7,0,0,1,1.4,1.11L54,6a6.34,6.34,0,0,0-1.33-1.13Z"/><path class="cls-2" d="M57.66,9a2.06,2.06,0,0,0,1,.78,6.73,6.73,0,0,0,3.28.48c1.23,0,2.72-.05,3.6-.1a3.65,3.65,0,0,0-.2,1.08c-1.39,0-2.94,0-3.79,0a8.09,8.09,0,0,1-3.2-.56,2.75,2.75,0,0,1-1.08-.84c-.26.28-.66.68-.92.9l-.34.32c-.06.18-.1.25-.17.25a.24.24,0,0,1-.15-.1l-.6-.83a11.11,11.11,0,0,0,1.52-1.13V6.82h-.3c-.28,0-.77,0-1,0V5.79c.25,0,.72,0,1,0h.36a9.44,9.44,0,0,0,1,0c0,.19,0,.19,0,1ZM56.27,1.52a8.17,8.17,0,0,1,1.5,1.64l-.84.68a11.35,11.35,0,0,0-1.36-1.67ZM62,3.39a11.55,11.55,0,0,0,1-2.13l1.07.52a.16.16,0,0,1,.11.13c0,.08-.08.11-.29.13-.26.51-.49.93-.75,1.35h.31l1.32,0V4.43c-.34,0-1,0-1.32,0H62.27c0,.42,0,.84-.06,1.25h1.84c.42,0,1,0,1.31,0v1l-1.31,0h-2a1.55,1.55,0,0,1-.06.23,12.26,12.26,0,0,1,3,2.13l-.73.83a14.25,14.25,0,0,0-2.67-2.1,2.61,2.61,0,0,1-.27.44A4.81,4.81,0,0,1,59,9.87,4.47,4.47,0,0,0,58.44,9a3.86,3.86,0,0,0,2.14-1.48A2.92,2.92,0,0,0,61,6.63H59.52l-1.31,0v-1c.33,0,.89,0,1.31,0h1.64c0-.41,0-.83,0-1.25H60.07c-.37,0-1,0-1.31,0V3.37l1.31,0h.39a8.15,8.15,0,0,0-1.13-1.55l.77-.55A6.73,6.73,0,0,1,61.42,2.9l-.68.49Z"/><path class="cls-2" d="M68.54,2.54A29.87,29.87,0,0,0,72.4,2l.15-.1.8.7c.09.08.11.11.11.16s0,.09-.15.13l-.1,0c-.93,1.17-1.41,1.71-2.48,2.85a3.75,3.75,0,0,1,1.58-.35A2.52,2.52,0,0,1,75.1,7.85a2.8,2.8,0,0,1-1,2.18,4,4,0,0,1-2.76.86c-1.56,0-2.43-.53-2.43-1.48A1.39,1.39,0,0,1,70.4,8.07a2.12,2.12,0,0,1,1.66.84,3.8,3.8,0,0,1,.43.87,1.72,1.72,0,0,0,.88-.52,2.06,2.06,0,0,0,.5-1.35c0-1-.67-1.53-1.88-1.53a4.44,4.44,0,0,0-2.72,1.09c-.28.22-.49.38-1,.81l-.77-1A24.37,24.37,0,0,0,71.79,3l-1.53.37-.61.15c-.19,0-.64.15-.78.2ZM70.4,9c-.32,0-.53.17-.53.41S70.32,10,71,10a1.53,1.53,0,0,0,.37,0C71.16,9.24,70.88,9,70.4,9Z"/></svg>