<svg id="图层_1" data-name="图层 1" xmlns="http://www.w3.org/2000/svg" width="24.83" height="26.16" viewBox="0 0 24.83 26.16"><defs><style>.cls-1{fill:#fff;}</style></defs><path class="cls-1" d="M21.92,1,20.71,5.68H1.76L5.28,17.92H17.55l-.44,1.71h-11v1.8H18.51L23.32,2.79h3.27V1ZM15.77,16.11V12.65h3.14L18,16.11Zm4.48-8.63-.87,3.37H15.77V7.48ZM14,12.65v3.46H10.4V12.65Zm0-5.17v3.37H10.4V7.48Zm-5.36,0v3.37H5.13l-1-3.37Zm0,5.17v3.46h-2l-1-3.46Z" transform="translate(-1.76 -0.99)"/><path class="cls-1" d="M7.87,22.2a2.43,2.43,0,1,0,2.42,2.42A2.42,2.42,0,0,0,7.87,22.2Zm0,3a.62.62,0,0,1-.63-.62.63.63,0,0,1,1.25,0A.62.62,0,0,1,7.87,25.24Z" transform="translate(-1.76 -0.99)"/><path class="cls-1" d="M16.4,22.3a2.43,2.43,0,1,0,2.43,2.42A2.43,2.43,0,0,0,16.4,22.3Zm0,3.05a.63.63,0,1,1,.63-.63A.63.63,0,0,1,16.4,25.35Z" transform="translate(-1.76 -0.99)"/></svg>