<svg id="图层_1" data-name="图层 1" xmlns="http://www.w3.org/2000/svg" width="68.36" height="14" viewBox="0 0 68.36 14"><defs><style>.cls-1{fill:#308fcf;}.cls-2{fill:#fff;}</style></defs><rect class="cls-1" width="68.36" height="14" rx="2.94"/><path id="Logo" class="cls-2" d="M14.94,4.38c0,.1,0,.2,0,.3a6.44,6.44,0,0,1-6.49,6.48h0a6.46,6.46,0,0,1-3.49-1l.54,0a4.57,4.57,0,0,0,2.83-1A2.3,2.3,0,0,1,6.21,7.61a2.23,2.23,0,0,0,1,0A2.27,2.27,0,0,1,5.42,5.34v0a2.31,2.31,0,0,0,1,.29,2.3,2.3,0,0,1-.71-3,6.46,6.46,0,0,0,4.7,2.38,2.28,2.28,0,0,1,3.89-2.07,4.59,4.59,0,0,0,1.44-.56,2.24,2.24,0,0,1-1,1.26,4.25,4.25,0,0,0,1.31-.36A4.41,4.41,0,0,1,14.94,4.38Z"/><path class="cls-2" d="M22.93,3.81a8.69,8.69,0,0,1,1.56,2.41l-1.12.61A9.06,9.06,0,0,0,22,4.45Zm7.49-.11c.1,0,.15.09.15.14s-.08.17-.27.22a10.64,10.64,0,0,1-2,4,10.31,10.31,0,0,1-2.47,2.07,18.86,18.86,0,0,1-2.2,1.08A4.28,4.28,0,0,0,23,10.2a11.34,11.34,0,0,0,2.91-1.54,7.59,7.59,0,0,0,2.72-3.51,12.38,12.38,0,0,0,.57-2Zm-4.75-.88A8.55,8.55,0,0,1,26.9,5.34l-1.18.45a8.53,8.53,0,0,0-1.08-2.47Z"/><path class="cls-2" d="M38.34,5.4c.12,0,.17.07.17.15s0,.12-.22.21c0,.63,0,1.15,0,1.57V9.54c0,.87,0,1.39,0,1.93H37a18.71,18.71,0,0,0,.07-1.93V7.66c0-.33,0-.68,0-1.33A19.14,19.14,0,0,1,33.72,9,3.47,3.47,0,0,0,33,8a16.05,16.05,0,0,0,6-5.87l1.06.48c.07,0,.12.09.12.15s-.06.12-.21.17a18.81,18.81,0,0,1-1.89,2.39Z"/><path class="cls-2" d="M52.6,7.3c-.52,0-1.39,0-2,0H46c-.54,0-1.5,0-2,0V6.12l2,0h4.61c.6,0,1.47,0,2,0Z"/><path class="cls-2" d="M59.12,5.4a15.31,15.31,0,0,1,3.44,1.69l-.69,1a11.84,11.84,0,0,0-2.75-1.54V8.94c0,1,0,1.68,0,2.24H57.83a18.22,18.22,0,0,0,.1-2.24V4.53c0-1.25,0-1.94,0-2.28l1.28.07c.11,0,.18.05.18.11s-.07.14-.21.21c0,.73,0,.86,0,1.89Z"/></svg>