<svg id="图层_1" data-name="图层 1" xmlns="http://www.w3.org/2000/svg" width="101.38" height="30.09" viewBox="0 0 101.38 30.09"><defs><style>.cls-1{fill:#1c2a53;}.cls-2{fill:none;stroke:#1c2a53;stroke-miterlimit:10;}</style></defs><path class="cls-1" d="M42.65,10.76c.08-.2,0-.33-.18-.54S42,9.82,42,9.68s.19-.26.49-.25c.67,0,2,.55,2,.93s-.37.62-.66,1l-.27.38h0a18.56,18.56,0,0,0,2-.16c.56-.08.73-.36,1.09-.36s1.63.66,1.63,1.1-.65.66-1.07,1.32a20.41,20.41,0,0,1-8.57,7.75.32.32,0,1,1-.3-.57,21.2,21.2,0,0,0,7.82-8.12c.12-.25,0-.39-.29-.36-.56.06-1.21.17-1.61.25a6,6,0,0,1-1,.21.84.84,0,0,1-.45-.17A14.69,14.69,0,0,1,38.8,16c-.41.22-.75-.23-.33-.55C40,14.26,42.09,12.22,42.65,10.76Z"/><path class="cls-1" d="M50.29,14.8a2.93,2.93,0,0,0,1.34.59c1.34.08,4.89-.19,6-.28C59,15,59.33,14.85,60,14.85s1.6.36,1.6,1c0,.24-.16.42-.65.42s-1-.11-1.92-.11c-1.84,0-4.88.24-6,.38a14.6,14.6,0,0,1-1.73.19c-.67,0-1.43-1-1.43-1.75C49.85,14.74,50.05,14.63,50.29,14.8Z"/><path class="cls-1" d="M66.18,13.14c0-.2.37-.37.79-.37.81,0,2,.72,2,1.36a4.71,4.71,0,0,1-.72,1.69,13.34,13.34,0,0,1-4.81,4.9.36.36,0,1,1-.39-.6c2.38-1.79,4.43-4.73,4.43-5.74,0-.38-.2-.52-.59-.73S66.18,13.35,66.18,13.14Zm2.62-.93c0-.26.5-.44.79-.44.85,0,1.82.52,1.82,1,0,.27-.11.73-.15,1.21-.06.72-.14,2.22-.17,2.77s.09.56.51.29a31.54,31.54,0,0,0,5.1-4.39c.36-.38.86,0,.52.47A28.63,28.63,0,0,1,72,18.22c-.46.34-.8.93-1.22.93s-1-.77-1-1.36c0-.42.2-.83.27-1.76a15.86,15.86,0,0,0,0-2.27c-.06-.55-.13-.8-.55-1s-.77-.32-.77-.53Z"/><path class="cls-1" d="M81,21.69c0,.34-.22.52-.71.52a.39.39,0,0,1-.44-.44c0-1.12.11-6,0-8.31a13.24,13.24,0,0,1-1.63,2.07c-.35.35-.72.1-.47-.33a17.64,17.64,0,0,0,2.93-6.95c0-.17.1-.27.27-.24.58.11,1.68.62,1.68,1s-.3.35-.75.28a28.45,28.45,0,0,1-1.29,2.91c.42.16,1,.45,1,.69s-.27.31-.61.38c0,.78,0,3.33,0,3.81Zm6.64-5.17a8.32,8.32,0,0,1-.32,1.75,5.88,5.88,0,0,1-.67,1.43,2.29,2.29,0,0,0,.28.17,12.18,12.18,0,0,0,5.58.83c.43,0,.39.36,0,.53a1.06,1.06,0,0,0-.46.52.62.62,0,0,1-.56.24,9.76,9.76,0,0,1-5-1.21,5.46,5.46,0,0,1-.45-.36,7.59,7.59,0,0,1-4.15,1.77c-.53.1-.66-.41-.17-.55a7.44,7.44,0,0,0,3.66-1.93,6.33,6.33,0,0,1-.69-1.18l-.16.19c-.25.28-.58.74-.77,1s-.3.17-.42,0a5.11,5.11,0,0,1-.46-.63c-.13-.19-.11-.3.16-.42A6,6,0,0,0,84.12,18a4.11,4.11,0,0,0,.58-.62c.16-.22.24-.27.49,0s.27.34,0,.58l-.13.14a6.18,6.18,0,0,0,.74,1,6.68,6.68,0,0,0,.44-1,7.93,7.93,0,0,0,.3-1.54H84.15v.38c0,.33-.23.49-.69.49A.38.38,0,0,1,83,17c0-1.14.11-4.5-.05-6a.18.18,0,0,1,.22-.2,3.46,3.46,0,0,1,1.37.62h2.1l0-1.55H82.91c-.2,0-.34-.06-.34-.31s.14-.32.34-.32h7.41c.32-.47.71-1,.94-1s1.32.92,1.32,1.28-.28.35-.77.35H88.3c0,.21-.19.29-.55.3v1.24h2.46c.21-.28.46-.56.61-.56.32,0,1.21.69,1.21,1s-.28.35-.56.48c0,1.14,0,4,0,4.61s-.25.6-.66.6-.45-.28-.45-.54v-.47Zm-.93-3c0-.51,0-1,0-1.56H84.17c0,.36,0,1,0,1.56Zm-.06,2.34c0-.54.06-1.12.06-1.72H84.14V15.9Zm3.75,0,0-1.72H87.75c0,.6,0,1.18,0,1.72ZM87.75,12c0,.52,0,1,0,1.56h2.66V12Z"/><path class="cls-1" d="M30,19.89a2.17,2.17,0,1,0,2.17,2.16A2.17,2.17,0,0,0,30,19.89Zm0,3.31a1.15,1.15,0,1,1,1.14-1.15A1.15,1.15,0,0,1,30,23.2Z"/><path class="cls-1" d="M12.67,19.89a2.17,2.17,0,1,0,2.17,2.16A2.16,2.16,0,0,0,12.67,19.89Zm0,3.31a1.15,1.15,0,1,1,1.14-1.15A1.15,1.15,0,0,1,12.67,23.2Z"/><path class="cls-1" d="M23.81,13.19a1,1,0,0,0-.73.31,1.35,1.35,0,0,0-.28.94,1.37,1.37,0,0,0,.29.94,1,1,0,0,0,1.44,0,1.38,1.38,0,0,0,.28-1,1.36,1.36,0,0,0-.27-.93A.92.92,0,0,0,23.81,13.19Z"/><path class="cls-1" d="M27.76,13.19a1,1,0,0,0-.73.31,1.35,1.35,0,0,0-.28.94,1.37,1.37,0,0,0,.29.94,1,1,0,0,0,1.44,0,1.38,1.38,0,0,0,.28-1,1.36,1.36,0,0,0-.27-.93A.92.92,0,0,0,27.76,13.19Z"/><path class="cls-1" d="M34.21,20V9.43a.94.94,0,0,0-.94-.94H17.92a1,1,0,0,0-1,.94v.84h-4a1,1,0,0,0-.86.54l-1.68,3.13L8.54,17.36a.78.78,0,0,0-.59.73V20H7.44V21.3H8v.18a.6.6,0,0,0,.6.6H9.83v0a2.84,2.84,0,0,1,5.68,0v0H27.13v0a2.84,2.84,0,0,1,5.68,0v0h.8a.6.6,0,0,0,.6-.6V21.3h.45V20ZM16.94,16.37H10.63l2.28-4.65a.38.38,0,0,1,.24-.15h3.79ZM21,16a1.51,1.51,0,0,1-1,.29,1.56,1.56,0,0,1-1.19-.49,1.89,1.89,0,0,1-.46-1.35,1.94,1.94,0,0,1,.47-1.41,1.58,1.58,0,0,1,1.23-.51,1.53,1.53,0,0,1,1.08.4,1.35,1.35,0,0,1,.37.67l-.72.17a.79.79,0,0,0-.27-.44.78.78,0,0,0-.5-.17.81.81,0,0,0-.65.29,1.43,1.43,0,0,0-.26.94,1.54,1.54,0,0,0,.25,1,.81.81,0,0,0,.65.3.76.76,0,0,0,.5-.19,1.07,1.07,0,0,0,.3-.58l.71.22A1.58,1.58,0,0,1,21,16Zm4.07-.2a1.69,1.69,0,0,1-1.28.49,1.71,1.71,0,0,1-1.29-.49A1.88,1.88,0,0,1,22,14.47a2.39,2.39,0,0,1,.17-.94,1.66,1.66,0,0,1,.34-.49,1.34,1.34,0,0,1,.47-.33,1.94,1.94,0,0,1,.78-.15,1.72,1.72,0,0,1,1.29.5,1.92,1.92,0,0,1,.48,1.39A1.9,1.9,0,0,1,25.09,15.83Zm3.95,0a1.69,1.69,0,0,1-1.28.49,1.71,1.71,0,0,1-1.29-.49A1.92,1.92,0,0,1,26,14.47a2.4,2.4,0,0,1,.16-.94A1.66,1.66,0,0,1,26.5,13a1.34,1.34,0,0,1,.47-.33,1.94,1.94,0,0,1,.78-.15,1.72,1.72,0,0,1,1.29.5,1.92,1.92,0,0,1,.48,1.39A1.9,1.9,0,0,1,29,15.83Zm3.63.43H30.11v-3.6h.74v3h1.82Z"/><rect class="cls-2" x="0.5" y="0.5" width="100.38" height="29.09" rx="3.17"/></svg>