<svg id="图层_1" data-name="图层 1" xmlns="http://www.w3.org/2000/svg" width="28.22" height="28.22" viewBox="0 0 28.22 28.22"><defs><style>.cls-1{fill:#fff;}.cls-2{fill:#2f1f19;}</style></defs><rect class="cls-1" width="28.22" height="28.22" rx="3.99"/><path class="cls-2" d="M13.39,5.51a6.72,6.72,0,0,1,3.89,1.1A3.46,3.46,0,0,1,19,9.6,3.52,3.52,0,0,1,18.11,12a7.8,7.8,0,0,1-1.63,1.32c-1.43.89-2.15,1.86-2.16,2.89a.91.91,0,0,1-.32.73,1.16,1.16,0,0,1-.8.27,1.2,1.2,0,0,1-.86-.33,1.37,1.37,0,0,1-.31-1c0-1.4.83-2.73,2.51-4a5.48,5.48,0,0,0,1.13-1A2.18,2.18,0,0,0,16,9.61a1.65,1.65,0,0,0-.77-1.4,3.4,3.4,0,0,0-2-.55A3.72,3.72,0,0,0,10.13,9.4,1.26,1.26,0,0,1,9.06,10a1.25,1.25,0,0,1-.89-.39,1.07,1.07,0,0,1-.33-.78,2.2,2.2,0,0,1,.68-1.4,5.74,5.74,0,0,1,2.55-1.59A7.41,7.41,0,0,1,13.39,5.51Zm-.27,12.85a1.63,1.63,0,0,1,.85.24,1.53,1.53,0,0,1,.8,1.41,1.62,1.62,0,0,1-.42,1.11,1.67,1.67,0,0,1-2,.36A1.67,1.67,0,0,1,12,18.8,1.6,1.6,0,0,1,13.12,18.36Z"/></svg>