<svg id="图层_1" data-name="图层 1" xmlns="http://www.w3.org/2000/svg" width="442.86" height="315.94" viewBox="0 0 442.86 315.94"><defs><style>.cls-1{fill:#fff;}.cls-2,.cls-3{fill:none;stroke-miterlimit:10;}.cls-2{stroke:#fff;stroke-width:2.89px;}.cls-3{stroke:#2f1f19;stroke-width:0.5px;}</style></defs><path class="cls-1" d="M-75.06,133.89c-.59-.24-.72-.66-.23-1.07a2.24,2.24,0,0,1,1.43-.49c.83,0,3.16.27,3.16,1.34a32.92,32.92,0,0,1-.74,3.78,1.21,1.21,0,0,0,1.52.88c.69-.12,1.19-.49,1.86-.55s1.14.15,1.19.76a1.23,1.23,0,0,1-.79,1.26A28.26,28.26,0,0,1-72,141.52c-.12,1.29-.19,2.77-.19,4.47v.84a18.37,18.37,0,0,1,8.85-2.55c3.36,0,5.71,1.91,5.71,4.48,0,3-2.05,6-6.52,6-3.27,0-5.66-3-4.16-6.85.35-.9,1.33-.78,1.19.17-.3,2.06-.17,4.38,2.94,4.38,2.67,0,4.32-1.65,4.32-3.7,0-1.84-1.51-3-4.17-3s-5.37,1.4-8.11,3.18c.07,2.37.21,4.22.21,4.94a4.84,4.84,0,0,1-.41,2.49,1.77,1.77,0,0,1-1.42,1.08c-.61,0-1.06-.84-1.57-1.42a14,14,0,0,0-3-2.4c-.58.55-1.17,1.08-1.56,1.08a2,2,0,0,1-1.74-1.84c0-.8.3-1,.8-1.13a7,7,0,0,0,2.2-.91c1.59-1,3.18-2.06,4.72-3v-1.76c0-1.2.06-2.62.14-4a15.34,15.34,0,0,1-2.3.41c-2,.17-2.5.12-3.37-.29a4.54,4.54,0,0,1-2.38-3.27h0c-.06-.73.36-1,1-.44,1.4,1.16,2.44,2,4.36,2a15.35,15.35,0,0,0,2.77-.52c.12-1.93.25-3.63.25-4.48s-.56-1-1.66-1.49Zm1,19.62a30.33,30.33,0,0,0,.14-3.44c-1.19.83-2.3,1.67-3.39,2.6A23.59,23.59,0,0,0-75,153.83C-74.4,154.06-74.13,154.05-74,153.51Zm10.38-14.58a8,8,0,0,1,7.76.22c.84.58,1.29,1.22,1.06,2a1.28,1.28,0,0,1-2.15.61,7.56,7.56,0,0,0-6.48-1.86C-64.18,140-64.34,139.25-63.67,138.93Z" transform="translate(122.79)"/><path class="cls-1" d="M-36,142.1a3.51,3.51,0,0,0-.79,1.82,2.22,2.22,0,0,0,.86,1.64c1.89,1.86,5.55,5.32,6.82,7.64a5.92,5.92,0,0,1,1,3,1.56,1.56,0,0,1-1.52,1.69c-.86,0-1.36-.86-2.07-2.66a29,29,0,0,0-5.63-8.37,4.08,4.08,0,0,1-1.44-2.66c0-1,.59-2.23,2.09-4.21,2.27-3,4.44-5.6,4.44-6.81,0-.71-.42-.94-.85-1.56-.32-.46-.06-.86.54-.78a5.48,5.48,0,0,1,3.37,1.82c.46.58.44,1-.28,2.1-1.31,1.92-4.68,4.84-6.51,7.32Z" transform="translate(122.79)"/><path class="cls-1" d="M2.44,134.15a14,14,0,0,1-1,3.15,16.5,16.5,0,0,0-1.09,4.19c0,.68.26.68.49,0,1.13-3.11,2.64-6.07,5.17-6s5.5,2.6,5.5,8.08c0,7.69-4.25,12.74-12.61,14.39-1.4.28-1.69-.89-.37-1.34,7.31-2.48,10.34-6.23,10.34-13.07,0-3.86-1.24-6.3-3.19-6.3-2.28,0-4.12,5.2-4.12,8.26,0,1.49.46,2.6.46,3.36s-.27,1.21-.84,1.34a1.5,1.5,0,0,1-1.51-.66,9.82,9.82,0,0,1-1.19-4.8c-.05-3.16,1-7.77,1.2-9.54a5.58,5.58,0,0,0-1-3.78c-.26-.51,0-.87.64-.74A3.88,3.88,0,0,1,2.44,134.15Z" transform="translate(122.79)"/><path class="cls-1" d="M37.3,132.13c-.47-.33-.37-.83.16-.93a3.83,3.83,0,0,1,1.68,0,3.72,3.72,0,0,1,2.69,3c0,1-1.34,4.2-2.18,7.24a41.06,41.06,0,0,0-1.12,6c.62.08,1.19.13,1.72.21,1.21.18,1.81.58,1.81,1.25,0,1-1.1,1.5-3.74,1.2,0,.48,0,1,0,1.46,0,2.49,1.18,3.79,3.64,3.79,2.93,0,4.75-1.76,4.75-4.56s-2-5.56-5.23-7.67c-.81-.52-.26-1.51.66-1.11,4.28,1.87,7.11,5.56,7.11,9.17,0,3.77-2.93,6.44-7,6.44-3.63,0-5.74-2.32-5.74-6.38,0-.45,0-.94,0-1.46-2.73-.72-4.94-2.55-4.94-4.4,0-1.31.9-2.4,1.77-3.44,1-1.21,1.51-1.77,1.07-2.52a7.46,7.46,0,0,0-2.1-1.88c-.66-.45-.38-1.11.39-1h0c1.93.27,4.18,1.33,4.64,3a1.39,1.39,0,0,1-.74,1.77,17,17,0,0,0-1.68,1.1c-1.16.88-1.84,1.81-1.84,2.59s1.32,1.56,3.69,2.15c.3-2.44.77-5.15,1.18-7.49s.75-4.2.81-5.19-.48-1.53-1.52-2.27Z" transform="translate(122.79)"/><path class="cls-1" d="M77.69,156.48c-1.33.22-1.6-.73-.4-1.1,7.11-2.19,9.18-6.42,9.18-10.87,0-5.43-3.6-8.29-8.19-8.61,1.12,3.73-.15,8.13-2.3,12-2,3.56-4.26,5.64-6.14,5.64-2.17,0-4.84-3.28-4.84-7.18,0-6.63,5.51-12.14,12.9-12.14,6.47,0,11.34,4.31,11.34,10.14,0,6.19-3.74,10.79-11.55,12.11ZM70,150.56c1,0,2.48-1.38,4-3.85,2.1-3.39,3.58-7.35,2.7-10.82a10,10,0,0,0-9.48,9.69C67.21,148.26,68.62,150.56,70,150.56Z" transform="translate(122.79)"/><path class="cls-1" d="M112.46,142c1.26.25,2.3,1.14,2.3,1.75s-.25,1.09-1.09,2a32.28,32.28,0,0,1-12,9c-1,.43-1.46-.66-.71-1.11a34.13,34.13,0,0,0,10.46-9.22c.46-.72.46-1,.15-1.52S111.54,141.8,112.46,142Zm3.21,11.19c.63,0,.92-.16.92-.83,0-1.45-.18-8.16-.21-11.25-3,.38-6.36,1.12-8.19,1.55a14.63,14.63,0,0,1-3,.61c-1.28,0-2.75-1.7-2.92-3.21-.06-.58.45-.78.9-.51a5.33,5.33,0,0,0,2.66,1c1.49,0,6.63-.69,10.5-1.2,0-1.47,0-3.09,0-3.93-.06-.6-.28-.82-1-1.1s-1.2-.54-1.2-.83c0-.54,1-.95,1.91-.95,1.36,0,3.36.6,3.36,1.43,0,1.05-.62,1.86-.86,5.1l1-.13c1.6-.19,2.44-.62,3-.62,1.48,0,3.35.92,3.35,1.94,0,.72-.43,1-1.15,1s-3-.35-4.78-.35c-.51,0-1,0-1.53.05-.07,3,0,7.13.16,9.35.08,1.43.35,2.87.35,3.76a3.09,3.09,0,0,1-2.55,2.85c-1,0-.86-1.31-3.28-3-.54-.37-.33-1.06.42-.95A17.49,17.49,0,0,0,115.67,153.18Z" transform="translate(122.79)"/><path class="cls-1" d="M143.59,138c1.9,0,7.57-.64,10.35-1.07,1.22-.18,1.75-.89,2.32-.89,1.19,0,3.53,1.76,3.53,2.73,0,.75-1.26,1.29-2,2.55a32.77,32.77,0,0,1-16.89,14.86c-1,.43-1.47-.72-.61-1.2,7.63-4.29,12.87-9.95,15.21-15.6.29-.72,0-.81-.65-.76a77.65,77.65,0,0,0-8,1.53,16.11,16.11,0,0,1-3.61.77c-1.09,0-2.76-1.57-3.11-3.18-.18-.8.3-1.11,1-.7a4.61,4.61,0,0,0,2.43,1Zm18.4-7.84a3.37,3.37,0,1,1-3.43,3.37,3.37,3.37,0,0,1,3.43-3.37Zm0,5.62a2.24,2.24,0,0,0,2.24-2.25,2.28,2.28,0,0,0-2.27-2.24,2.24,2.24,0,0,0-2.24,2.24,2.2,2.2,0,0,0,2.24,2.25Z" transform="translate(122.79)"/><path class="cls-1" d="M176.25,140.76c2.58-.1,5.9,1.31,5.92,3.65a1.23,1.23,0,0,1-1.27,1.37c-.63,0-1-.43-1.58-1.07a23.33,23.33,0,0,0-3.43-2.86C175.28,141.39,175.47,140.78,176.25,140.76Zm21.91-2.89a.7.7,0,0,1,1.16.77c-3.49,5.71-9.66,11.53-15.77,15.7a6.23,6.23,0,0,1-3,1.44,4.75,4.75,0,0,1-3.89-3.43.68.68,0,0,1,1-.8c.65.36,1.21.81,1.81,1.08a2.59,2.59,0,0,0,2.53-.34c5.11-2.84,12.1-9.1,16.17-14.42Zm-17.39-1.65c-.62-.43-.46-1.06.32-1.1,2.49-.12,6,1.12,6.08,3.46a1.26,1.26,0,0,1-1.25,1.41c-.64,0-1-.39-1.62-1a21.19,21.19,0,0,0-3.53-2.76Z" transform="translate(122.79)"/><path class="cls-1" d="M218.51,143.18c1.18,0,6.07-.44,7.44-.62,1-.13,1.38-.53,1.93-.53,1,0,3,1.33,3,2.06s-1,1.58-1.14,2.41c-.24,1.19-.68,4.64-.94,6.72a1.5,1.5,0,0,1,1,1.18.83.83,0,0,1-.9.94c-.25,0-1.87-.23-2.38-.25a37.7,37.7,0,0,0-5.9.47,18.67,18.67,0,0,1-2.49.45,2.7,2.7,0,0,1-2.13-2.29c-.09-.68.43-.95,1-.55h0a2.47,2.47,0,0,0,1.64.6c.82,0,5.67-.54,8-.74.13-1.16.25-2.49.37-3.77a2.58,2.58,0,0,1-.77.17c-.82.08-4.23.42-5.74.66a15.36,15.36,0,0,1-1.75.3,2.39,2.39,0,0,1-2-2.15c-.07-.56.39-.82.94-.51a2.24,2.24,0,0,0,1.38.45c1.2,0,5.37-.58,6.52-.74a2.44,2.44,0,0,1,1.59.31c.1-1.21.18-2.28.23-3,0-.34-.08-.4-.43-.38-.9,0-5.11.41-6.47.66-.53.1-2,.56-2.47.56a2.64,2.64,0,0,1-2.14-2.34c-.09-.58.35-.87.9-.62A4.27,4.27,0,0,0,218.51,143.18Z" transform="translate(122.79)"/><path class="cls-1" d="M273.1,138.51c-3.66,5.34-10.25,11-16.1,14.61-1.11.68-2.15,1.5-3.14,1.5a4.9,4.9,0,0,1-3.94-3.63.71.71,0,0,1,1-.82c.61.33,1.17.79,1.78,1.07a3.15,3.15,0,0,0,2.81-.31,66.41,66.41,0,0,0,16.58-13.24A.65.65,0,1,1,273.1,138.51Zm-21.51-2.14c3.24.37,6.94,1.85,6.94,4.14a1.5,1.5,0,0,1-1.52,1.62,1.9,1.9,0,0,1-1.33-.73,26.44,26.44,0,0,0-4.54-4c-.56-.43-.24-1.12.45-1Z" transform="translate(122.79)"/><path class="cls-1" d="M-21,105.29c1.11,4.76,3.69,8,7.85,9,.64.15.51.48,0,.64a1.57,1.57,0,0,0-.93.64c-.24.33-.41.49-.94.27-3.36-1.34-5.48-4.62-6.47-9.11a12.26,12.26,0,0,1-1.22,3.77,11.75,11.75,0,0,1-7.7,5.64c-.57.17-.76-.45-.24-.67a12.22,12.22,0,0,0,6.56-5.38,13.88,13.88,0,0,0,1.34-4.8h-7.41c-.25,0-.43-.08-.43-.39s.18-.39.43-.39h7.47c.07-1,.07-1.79.07-2.43,0-.89-.09-2.1-.21-3,0-.2,0-.31.29-.31.64,0,2.33.23,2.33.62s-.23.47-.87.62c0,1.46,0,3-.16,4.53h4.94c.47-.68,1-1.48,1.4-1.48s1.89,1.29,1.89,1.79c0,.29-.35.47-1.13.47Z" transform="translate(122.79)"/><path class="cls-1" d="M-1,110.28c0,.78.08.92,1.33.92s1.53-.25,1.71-.68.21-.8.29-1,.45-.35.5,0a5.83,5.83,0,0,0,.16.87c.12.58.41.57.41.95s-.6,1.17-3,1.17-2.72-.52-2.72-1.89c0-.37,0-2.48,0-4.78l-2.52.51c-.26,0-.45,0-.51-.31s.1-.41.35-.47l2.68-.53c0-2.21,0-4.41-.11-5.21,0-.27,0-.36.33-.36,1.51,0,2.15.21,2.15.62s-.42.54-1,.64c0,.39,0,2.14,0,4l2-.39c.29-.73.66-1.55,1-1.61a3.16,3.16,0,0,1,2,1.36c.06.27-.33.53-.84.64l-4.12.82Zm11.55-9.58c.27-.37.64-.76.82-.76.43,0,1.69.92,1.69,1.25s-.29.48-.66.68c.08,3.18,0,9.23-1.09,11.76a3,3,0,0,1-3.11,2.1c-.41,0-.62-.24-.88-.57a1.94,1.94,0,0,0-1.05-.64c-.27-.11-.34-.29-.31-.46a.37.37,0,0,1,.43-.26,12.4,12.4,0,0,0,2,.26A1.52,1.52,0,0,0,10,113c1-2.2,1.12-7.9.93-11.51H8.14a.33.33,0,0,1,.08.17c0,.22-.27.37-.72.47-.25,7.27-1.24,11.24-8.2,14-.59.23-.8-.43-.28-.7,6.07-3.15,7-6.59,6.87-14v0H2.39c-.25,0-.43-.08-.43-.39s.18-.39.43-.39Z" transform="translate(122.79)"/><path class="cls-1" d="M23.94,112.79a.65.65,0,0,1-.66-.74,2,2,0,0,1,.5-1.21,25.77,25.77,0,0,0,3.5-6.48,9.63,9.63,0,0,1-2.45.15,2.08,2.08,0,0,1-1.6-1.29,1.82,1.82,0,0,1-.14-.75c0-.28.16-.35.41-.16a3.87,3.87,0,0,0,1.81.8,10.49,10.49,0,0,0,2.31,0,5.41,5.41,0,0,0,.13-1.75c-.08-.49-.3-.49-.87-.85a.29.29,0,0,1,0-.52,1.92,1.92,0,0,1,1-.3,2.54,2.54,0,0,1,1.12.2.57.57,0,0,1,.3.64,10.85,10.85,0,0,1-.26,1.29c.11.34.3.39.59.39s.74-.38,1.14-.38.63.15.63.48-.2.6-.56.85a7.8,7.8,0,0,1-2.44,1A33.59,33.59,0,0,1,25,112C24.66,112.53,24.35,112.79,23.94,112.79Zm11.65,1.71a7.4,7.4,0,0,0-2.23-1.69,2.18,2.18,0,0,1,0,.25,2.57,2.57,0,0,1-2.8,2.55c-1.78,0-2.95-.84-2.95-2.12s1.56-2.25,3.75-2.25a4.35,4.35,0,0,1,.51,0c-.06-.82-.12-1.71-.12-2.43a3.37,3.37,0,0,1,1.35-3.08c.4-.27,1.72-.92,1.89-1a.28.28,0,0,0,.07-.42c-.2-.35-.8-.55-1.24-.71s-.41-.63.2-.65a4.23,4.23,0,0,1,1.62.28,2.19,2.19,0,0,1,1.51,2,1,1,0,0,1-.95,1,6.16,6.16,0,0,0-2-.16A1.76,1.76,0,0,0,32.83,108a21,21,0,0,0,.38,3.48c1.91.44,3.66,1.49,3.66,2.7a.61.61,0,0,1-.62.68.94.94,0,0,1-.66-.33Zm-5.66-.23c1.32,0,2-.55,2-1.48,0-.13,0-.28,0-.43a7.18,7.18,0,0,0-1.16-.09c-1.36,0-2.19.47-2.19,1.16C28.59,113.91,29.09,114.27,29.93,114.27Z" transform="translate(122.79)"/><path class="cls-1" d="M63.46,110.59c-.38,0-1-.57-1.27-1a17.29,17.29,0,0,1-1.8-3.48c0,2.71-.26,4.88-1.2,6.45a5.38,5.38,0,0,1-5,2.7,3.89,3.89,0,0,1-4.16-4c-.07-3.6,2-6,3.11-7.49.34-.45.22-.53-.23-.35A6.48,6.48,0,0,1,51,104c-.81,0-1.35-.81-1.52-1.51h0c-.1-.41,0-.6.43-.41a3.59,3.59,0,0,0,1.44.42,8.21,8.21,0,0,0,3.27-.82,1.19,1.19,0,0,1,.56-.21c.73-.08,1.38.19,1.47.64s-.17.79-.79,1A3.38,3.38,0,0,0,54,104.31a10.21,10.21,0,0,0-2.66,6.58,2.57,2.57,0,0,0,2.76,2.82c3.6,0,5.44-3.08,5.44-9,0-.41,0-.78,0-1.12a9.32,9.32,0,0,1-.26-1.73c0-.74.23-1.15.66-1.15s.8.31.8,1a15.55,15.55,0,0,0,.09,2,8.42,8.42,0,0,0,2.6,4.77,1.84,1.84,0,0,1,.73,1.29c0,.5-.28.83-.7.83Z" transform="translate(122.79)"/><path class="cls-1" d="M79.28,100.06c0-.27.47-.45.81-.45a3.2,3.2,0,0,1,1.78.39c.4.29.5.6.42,1.26a34,34,0,0,0-.76,4.26c0,.88.27,1.13,1,1.09.49,0,1.26-.56,2.09-.56s1.4.38,1.43.93-.66.8-1.78.89c-.5,0-1.41.14-2,.26a3.86,3.86,0,0,0-2.89,3.69c0,1.72,1.61,1.85,3.34,1.81,1.31,0,2.59-.41,3.11-.43.68,0,1.19.29,1.19.68s-.27.72-.87,1a9.47,9.47,0,0,1-3.06.41c-3.11.08-4.84-1-4.9-3s.9-3.51,3-4.83a2,2,0,0,1-.69-1.66c0-.89.15-3.19.15-4a1,1,0,0,0-.51-1c-.59-.36-.75-.42-.75-.67Z" transform="translate(122.79)"/><path class="cls-1" d="M104.63,102.91a2,2,0,0,1-.06,1.73c-.72,1.8-1.88,3.92-1.49,5.68.16.72.44.78.77.08.25-.52.6-1.33.87-2,.18-.47.68-.24.55.2a21.54,21.54,0,0,0-.82,3.67c0,1,.43,1.22.43,1.9,0,.35-.28.62-.77.62-1.06,0-2.16-2.37-2.16-4.59a22,22,0,0,1,1-5.37,3.07,3.07,0,0,0,0-2.12c-.19-.47-.35-.83-.47-1.08s.1-.53.43-.4A3.16,3.16,0,0,1,104.63,102.91Zm3.31,8.47a4.46,4.46,0,0,0,3.37,1,25.48,25.48,0,0,0,3.3-.33c.4,0,.75.22.75.62,0,1.06-1.93,1.34-3.62,1.34-2.48,0-3.73-.93-4.31-2.24-.23-.53.21-.69.51-.43Zm0-8.27c-.36-.39-.13-.77.34-.6a5.69,5.69,0,0,0,2.11.36,24.21,24.21,0,0,0,2.53-.34c1.12,0,1.48.46,1.48.76,0,.9-1.82,1.11-2.82,1.11A4.94,4.94,0,0,1,108,103.11Z" transform="translate(122.79)"/><path class="cls-1" d="M129.58,100.06c.29-.41.68-.86.91-.86.39,0,1.54.88,1.54,1.31,0,.27-.37.46-.74.6-.08,2.2,0,9,.06,10.11,0,.6-.33.74-.86.74s-.56-.35-.56-.66V111h-2.14v.56a.6.6,0,0,1-.49.62c.67.21,1.56.8,1.54,1.13s-.31.33-.84.27a6.74,6.74,0,0,1-2.56,2.63c-.43.29-.76,0-.49-.41a7.26,7.26,0,0,0,1.87-3.46s0-.08,0-.12a.49.49,0,0,1-.47-.56c0-1.95.2-9.63-.08-12.06a.27.27,0,0,1,.28-.27,5,5,0,0,1,1.76.76Zm.41,3.3v-2.52h-2.16c0,.48,0,1.53-.06,2.52Zm-2.22,3.41H130l0-2.63h-2.22v2.63Zm2.16,3.42,0-2.65h-2.2l0,2.65Zm2,4.2a.78.78,0,0,1-.87.77c-.47,0-.61-.54-.86-1.16a10.37,10.37,0,0,0-.62-1.25c-.22-.41,0-.77.52-.54C131.13,112.77,132,113.57,131.93,114.39Zm8.88-12.5c.3-.39.67-.84.88-.84.39,0,1.5.86,1.5,1.28,0,.26-.35.43-.7.57,0,1.3,0,4.39,0,5s-.3.74-.8.74-.56-.35-.56-.66v-.12h-7.27v.24c0,.42-.28.6-.84.6a.47.47,0,0,1-.51-.53c0-1.32.12-5-.07-6.74a.23.23,0,0,1,.27-.25,4.91,4.91,0,0,1,1.57.66h4a.43.43,0,0,1,0-.43,7.8,7.8,0,0,0,1.07-2.59.28.28,0,0,1,.36-.25c.67.18,1.72.76,1.72,1.09s-.32.39-.9.37a6.23,6.23,0,0,1-1.69,1.81Zm-1.26,7.56c.27-.37.62-.78.84-.78.37,0,1.47.82,1.47,1.25,0,.25-.31.4-.64.54,0,1.28,0,4.24,0,4.9s-.29.74-.81.74a.58.58,0,0,1-.59-.66v-.24H135.2v.37c0,.43-.29.62-.86.62-.33,0-.5-.19-.5-.54,0-1.3.11-4.84-.08-6.61a.23.23,0,0,1,.27-.25,4.31,4.31,0,0,1,1.57.66Zm-5.64-6.77c0,.35,0,1.17,0,1.81h3v-1.83H134Zm0,4.45h3v-1.86h-3Zm.4-7.77c-.19-.41.06-.76.55-.53.89.41,1.79,1.09,1.67,2a.82.82,0,0,1-1,.74c-.47-.08-.58-.55-.78-1.07A7.36,7.36,0,0,0,134.28,99.36Zm5.6,12.54v-1.67h-4.55l-.11,0c0,.33,0,1,0,1.65Zm0,2.53,0-1.75h-4.68l0,1.74Zm-1.38-11.77a.6.6,0,0,1-.33.22v1.61h3.05v-1.83Zm2.69,4.47v-1.86h-3v1.86Z" transform="translate(122.79)"/><path class="cls-1" d="M157.63,99.32a2.35,2.35,0,0,1,1.87,2.1,8.35,8.35,0,0,1-.6,1.91,10,10,0,0,0-.66,2.54c0,.41.16.41.3,0,.68-1.88,1.6-3.68,3.13-3.67s3.34,1.58,3.34,4.9c0,4.66-2.58,7.72-7.65,8.72-.85.17-1-.54-.22-.81,4.43-1.5,6.26-3.77,6.26-7.92,0-2.34-.75-3.82-1.93-3.82-1.38,0-2.5,3.15-2.5,5,0,.9.28,1.57.28,2s-.16.74-.51.82a.91.91,0,0,1-.91-.41,5.83,5.83,0,0,1-.72-2.91,44.32,44.32,0,0,1,.73-5.78,3.47,3.47,0,0,0-.59-2.29c-.16-.31,0-.52.38-.45Z" transform="translate(122.79)"/><path class="cls-1" d="M183.24,99.94c.67,0,1.58.5,1.65,1a7.76,7.76,0,0,1-.4,1.9c.49.49,1.21-.44,1.89-.46s.86.7.32,1.21a7.83,7.83,0,0,1-2.67,1.25,59.63,59.63,0,0,1-2.67,9c-.32.76-.78,1-1.15,1a.81.81,0,0,1-.82-.68c0-.7.61-1.44,1.08-2.35a27.33,27.33,0,0,0,2.36-6.59,9.46,9.46,0,0,1-2.18.34,1.83,1.83,0,0,1-1.58-1,2.74,2.74,0,0,1-.32-.78c0-.26.17-.44.42-.29a3.51,3.51,0,0,0,1.64.68,11,11,0,0,0,2.25-.23,13.09,13.09,0,0,0,.21-2.07c0-.48-.52-.68-1-1a.23.23,0,0,1,0-.39,1.38,1.38,0,0,1,1-.44ZM189,113.48a22.26,22.26,0,0,0,3.55,0c.54,0,.84.34.83.76,0,1-2.5,1-4,.83-2.9-.35-3.74-1.8-3.49-3.71.1-.73.76-.67.82-.09C186.8,112.38,187.28,113.23,189,113.48Zm4.56-7.84c0,.62-.31.93-1.21.89a8.38,8.38,0,0,0-2.19.6c-.44.14-.57-.3-.3-.5s.8-.56,1.09-.79.34-.53-.1-.81a3.9,3.9,0,0,0-2.13-.28c-.56,0-.62-.5-.18-.67C190.78,103.2,193.49,104.1,193.57,105.64Z" transform="translate(122.79)"/><path class="cls-1" d="M210.8,109.61c.29-.52.84-.34.71.25-.08.35-.39,1.24-.45,1.66a2.44,2.44,0,0,0,0,1.14c.19.7,0,1.06-.84,1-1.72,0-3.52-2-3.87-4.2a22.32,22.32,0,0,1-.07-3.93,3.24,3.24,0,0,0-.94-2.4c-.45-.57-.13-.93.53-.65,1.57.67,2,1.64,2,2.53s-.56,2.44-.32,4.14c.18,1.18,1,2.37,1.7,2.37a.88.88,0,0,0,.69-.5c.17-.26.64-1.12.83-1.45Zm5.52-5.21a5.14,5.14,0,0,1,3.81,4.78c0,.8-.44,1.33-1,1.32s-.69-.28-.8-1.28a5.21,5.21,0,0,0-2.33-4C215.28,104.73,215.47,104.18,216.32,104.4Z" transform="translate(122.79)"/><path class="cls-1" d="M-10.29,198.24c1.17,5,3.88,8.39,8.24,9.45.68.16.54.51,0,.67A1.6,1.6,0,0,0-3,209c-.25.35-.43.51-1,.29-3.53-1.41-5.76-4.86-6.8-9.57a12.87,12.87,0,0,1-1.28,4c-1.45,2.69-4.06,4.83-8.08,5.91-.59.19-.8-.47-.25-.69a12.85,12.85,0,0,0,6.88-5.65,14.33,14.33,0,0,0,1.41-5h-7.78c-.26,0-.44-.08-.44-.41s.18-.41.44-.41H-12c.08-1,.08-1.87.08-2.55,0-.93-.1-2.2-.22-3.18,0-.2,0-.32.3-.32.68,0,2.45.24,2.45.65s-.24.49-.92.65c0,1.53,0,3.16-.16,4.75h5.18c.49-.71,1.1-1.55,1.47-1.55s2,1.35,2,1.88c0,.31-.37.49-1.18.49Z" transform="translate(122.79)"/><path class="cls-1" d="M17.73,203.48c0,.82.09,1,1.39,1s1.61-.26,1.8-.71.22-.84.3-1.06.47-.37.53,0a6.81,6.81,0,0,0,.17.92c.12.61.43.59.43,1s-.64,1.22-3.19,1.22-2.85-.55-2.85-2c0-.39,0-2.61,0-5l-2.65.53c-.27,0-.47,0-.54-.32s.11-.43.37-.49l2.82-.55c0-2.33,0-4.64-.13-5.47,0-.29,0-.39.35-.39,1.59,0,2.27.22,2.27.65s-.45.57-1,.68c0,.4,0,2.24,0,4.24l2.12-.41c.3-.77.69-1.63,1-1.69A3.3,3.3,0,0,1,23,197c.06.28-.35.55-.88.67l-4.32.86Zm12.12-10c.29-.39.68-.8.86-.8.45,0,1.77,1,1.77,1.31s-.3.51-.69.71c.08,3.35,0,9.69-1.14,12.34a3.19,3.19,0,0,1-3.27,2.21c-.42,0-.65-.25-.91-.6a2.05,2.05,0,0,0-1.11-.67c-.28-.12-.36-.31-.32-.49s.18-.28.45-.26a13.54,13.54,0,0,0,2.1.26,1.57,1.57,0,0,0,1.67-1.12c1-2.31,1.18-8.28,1-12.08h-3a.36.36,0,0,1,.08.19c0,.22-.28.38-.75.49-.27,7.63-1.31,11.79-8.61,14.72-.61.25-.84-.44-.29-.73,6.37-3.31,7.39-6.92,7.21-14.65v0H21.24c-.26,0-.44-.08-.44-.41s.18-.4.44-.4Z" transform="translate(122.79)"/><path class="cls-1" d="M50.82,206.11a.69.69,0,0,1-.7-.77,2,2,0,0,1,.53-1.27,26.89,26.89,0,0,0,3.67-6.81,9.71,9.71,0,0,1-2.57.16,2.18,2.18,0,0,1-1.68-1.35,2,2,0,0,1-.15-.79c0-.29.18-.37.44-.16a4.08,4.08,0,0,0,1.89.84,11.61,11.61,0,0,0,2.43,0,6,6,0,0,0,.14-1.84c-.09-.5-.32-.51-.92-.88a.31.31,0,0,1,0-.55,2,2,0,0,1,1.09-.32,2.68,2.68,0,0,1,1.18.22.59.59,0,0,1,.31.67,12.7,12.7,0,0,1-.27,1.35c.11.36.31.41.62.41s.78-.4,1.2-.4.65.16.65.51-.2.62-.58.88a8.1,8.1,0,0,1-2.57,1A35.52,35.52,0,0,1,52,205.26C51.57,205.84,51.24,206.11,50.82,206.11ZM63,207.91a7.7,7.7,0,0,0-2.33-1.77v.26a2.69,2.69,0,0,1-2.94,2.67c-1.87,0-3.1-.88-3.1-2.22s1.65-2.37,3.94-2.37l.54,0c-.06-.86-.13-1.78-.13-2.55a3.56,3.56,0,0,1,1.42-3.23c.42-.28,1.81-1,2-1.08a.3.3,0,0,0,.08-.44c-.22-.37-.84-.57-1.31-.74s-.43-.66.21-.69a4.7,4.7,0,0,1,1.71.29,2.32,2.32,0,0,1,1.58,2.12,1,1,0,0,1-1,1,6.4,6.4,0,0,0-2.1-.17,1.86,1.86,0,0,0-1.45,2,21.88,21.88,0,0,0,.4,3.65c2,.46,3.84,1.56,3.84,2.83a.64.64,0,0,1-.65.72,1,1,0,0,1-.69-.35Zm-5.94-.24c1.38,0,2.12-.58,2.12-1.55,0-.15,0-.3,0-.45a6.72,6.72,0,0,0-1.21-.11c-1.43,0-2.31.5-2.31,1.23C55.69,207.29,56.22,207.67,57.1,207.67Z" transform="translate(122.79)"/><path class="cls-1" d="M91.53,195.16l0,.11a24.69,24.69,0,0,1,3.91-.78c.89,0,1.61.35,1.61.79s-.39.68-1.19.68a26.42,26.42,0,0,0-4.66.53,19,19,0,0,0-.51,2.48,10,10,0,0,1,2.64-.52,1.68,1.68,0,0,0-.33-.71c-.3-.42.18-.75.65-.4a1.91,1.91,0,0,1,.79,1.09c3.07.13,5.21,2.38,4.93,5.27-.31,3.24-3.4,5.15-8.38,5.41h0c-.69,0-.83-.67-.11-.81,4.1-.8,6.55-2.21,6.84-4.76a3.6,3.6,0,0,0-3.37-4.18,11.88,11.88,0,0,1-3.17,5.09q.12.44.27.93c.17.53-.08,1-.52,1s-.7-.3-.94-.87c-1.34,1-2.9,1.93-4.12,1.91s-1.72-1.48-1.06-3.19a9.73,9.73,0,0,1,4.79-4.76c.11-.81.26-1.73.38-2.59a12.34,12.34,0,0,1-2.89.61,2.26,2.26,0,0,1-1.92-2c0-.29.21-.39.45-.25a4.25,4.25,0,0,0,1.94.82,10.13,10.13,0,0,0,2.58-.4c.1-.72.2-1.26.2-1.58s-.11-.45-.43-.63-1-.39-1-.7.67-.49,1.2-.49c.78,0,1.9.51,1.9,1.1A11.58,11.58,0,0,1,91.53,195.16Zm-5.16,10.58c1,0,2.2-.86,3.22-1.65a14.49,14.49,0,0,1-.15-3.47,8.2,8.2,0,0,0-3.4,3.89C85.78,205.36,86,205.74,86.37,205.74ZM90.8,203a10.52,10.52,0,0,0,2.36-3.68,7.2,7.2,0,0,0-2.58.68A11.93,11.93,0,0,0,90.8,203Z" transform="translate(122.79)"/><path class="cls-1" d="M126.35,208.38c-.85.15-1-.46-.26-.69,4.52-1.39,5.84-4.09,5.84-6.92,0-3.45-2.29-5.27-5.21-5.47.71,2.37-.09,5.17-1.47,7.64-1.25,2.26-2.7,3.58-3.9,3.58-1.38,0-3.08-2.09-3.08-4.57a7.89,7.89,0,0,1,8.2-7.72c4.12,0,7.22,2.74,7.22,6.45,0,3.94-2.38,6.87-7.34,7.7Zm-4.91-3.76c.65,0,1.57-.88,2.55-2.45,1.34-2.15,2.28-4.67,1.72-6.88a6.33,6.33,0,0,0-6,6.16C119.68,203.16,120.58,204.62,121.44,204.62Z" transform="translate(122.79)"/><path class="cls-1" d="M160.9,194.32c.18,7.25,3.75,11.59,8.44,13.14.61.21.55.55,0,.72a1.42,1.42,0,0,0-.9.57c-.22.28-.42.51-1,.22-3.51-1.9-6.06-5.24-6.94-10.34a12.89,12.89,0,0,1-1.63,4.81,14.33,14.33,0,0,1-7.51,6c-.57.2-.8-.41-.31-.67a15.92,15.92,0,0,0,6.47-5.76,14.27,14.27,0,0,0,1.78-7.85c0-1-.09-1.88-.17-2.78,0-.2,0-.3.31-.3.67,0,2.65.33,2.65.84,0,.28-.35.63-1.24.77Z" transform="translate(122.79)"/><path class="cls-1" d="M185.59,201.14c-.2-.46.07-.72.45-.6a4.06,4.06,0,0,0,1.11.31c.72,0,2.58-1.94,4-3.23a2.36,2.36,0,0,1,1.5-.83c.56,0,.92.17,1.66.82.4.36,2.12,2.14,3.22,3a19.26,19.26,0,0,0,5,2.83c.95.44,1.12.88,1.12,1.34s-.36.84-1,.78c-2-.19-4.66-2.36-6.38-4.15-1-1-2-2.05-2.76-2.84a1.13,1.13,0,0,0-.85-.47,1.16,1.16,0,0,0-.78.49c-.71.75-2.12,2.62-2.76,3.26s-.85.8-1.38.8a2.8,2.8,0,0,1-2.1-1.56Z" transform="translate(122.79)"/><path class="cls-1" d="M-16.77,239.78c-.16-.79.56-1,.86-.36.89,2,2.77,2.46,5.1,2.46a35.7,35.7,0,0,0,4.45-.53c.58,0,1.13.21,1.13.68,0,.86-1.77,1.56-5.35,1.56-3.31,0-5.63-1.07-6.19-3.81Zm4.22-6.07c.38-.28,1-.71,1.27-1s.31-.45-.17-.5a4.9,4.9,0,0,1-3.61-1.59c-.35-.47,0-1,.58-.61a5.14,5.14,0,0,0,2.75.81,25.41,25.41,0,0,0,2.85-.19c1.15,0,2.06.44,2.06,1s-.29.67-1.27.87a23.22,23.22,0,0,0-4,1.84C-12.73,234.61-13,234-12.55,233.71Z" transform="translate(122.79)"/><path class="cls-1" d="M17.52,239.78c-.16-.79.56-1,.86-.36.88,2,2.76,2.46,5.09,2.46a36.22,36.22,0,0,0,4.46-.53c.58,0,1.13.21,1.13.68,0,.86-1.78,1.56-5.36,1.56-3.31,0-5.62-1.07-6.18-3.81Zm4.21-6.07c.38-.28,1-.71,1.27-1s.31-.45-.16-.5a4.92,4.92,0,0,1-3.62-1.59c-.35-.47,0-1,.59-.61a5.14,5.14,0,0,0,2.75.81,25.2,25.2,0,0,0,2.84-.19c1.16,0,2.07.44,2.07,1s-.3.67-1.27.87a23,23,0,0,0-4,1.84C21.56,234.61,21.29,234,21.73,233.71Z" transform="translate(122.79)"/><path class="cls-1" d="M55,236.76c-.11.14-.09.23.1.12a9,9,0,0,1,4.53-1.31c2.86,0,4.55,1.57,4.55,3.89,0,3-3.16,5-8.68,5.34-1.19.07-1.19-.63-.14-.82,3.88-.69,7-2,7-4.86,0-1.49-1-2.6-3.06-2.6a8.72,8.72,0,0,0-5.57,2.37c-.76.68-1.29,1.6-1.75,2s-1,.67-1.38.17c-.55-.7.22-1.71.94-2.42.46-.46.94-1,2.13-2.13,1-1,4.56-4.75,5-5.72.16-.34,0-.6-.41-.49s-1.48.94-2.67,1.47a3.13,3.13,0,0,1-1.14.35,2.1,2.1,0,0,1-1.76-1.88c0-.45.29-.49.53-.33a2.42,2.42,0,0,0,1.39.45,13.08,13.08,0,0,0,2.74-.87,4.35,4.35,0,0,1,1.49-.35c.69,0,2,.82,2,1.55,0,.49-.4.8-.81,1.16C59,232.72,55.88,235.68,55,236.76Z" transform="translate(122.79)"/><path class="cls-1" d="M91.7,229.26c-.07.18-.19.49-.38.94,0,.49.39.52.8.29s.86-.58,1.2-.58h0a.55.55,0,0,1,.63.58c0,.35-.29.69-.81,1a13.79,13.79,0,0,1-2.89,1,35.44,35.44,0,0,1-2,3.44c-.1.15-.05.2.1.09a3.83,3.83,0,0,1,2.15-.8,1.74,1.74,0,0,1,1.92,1.32c1.27-2.37,3-3.67,4.72-3.67,2.78,0,3.32,2.86.8,3.85-1.94.76-3.89,1.35-5.36,2a1.16,1.16,0,0,0,0,.18c0,.92,0,2,0,2.38,0,.64-.29.93-.81.93s-.68-.33-.68-.93c0-.3.05-1.05.09-1.84-1,.66-2.06,1.6-2.06,2.65s1.09,1.28,2.82,1.28c1.43,0,3.12-.46,3.67-.46s.92.23.92.63-.31.74-.88.91a14.05,14.05,0,0,1-3.57.4c-2.67,0-4.24-.84-4.24-2.39,0-1.31,1.16-2.81,3.4-4.18,0-.27,0-.52,0-.73,0-1.15-.27-1.44-1-1.44-1,0-2.45,1.15-3.53,2.5-.57.72-1.1,1.5-1.62,1.5a.86.86,0,0,1-.73-1c0-.66,1.46-1.81,2-2.44a18.88,18.88,0,0,0,2.56-4,10.29,10.29,0,0,1-2.33,0,2.26,2.26,0,0,1-1.78-2.1c0-.36.28-.5.54-.27a3.82,3.82,0,0,0,1.7,1,7.44,7.44,0,0,0,2.46,0c.78-1.87.64-2.11-.24-2.59-.33-.18-.3-.51.06-.62a2.79,2.79,0,0,1,.91-.13,2.72,2.72,0,0,1,1.38.4C91.86,228.57,91.87,228.85,91.7,229.26Zm1.4,8c1-.42,2.45-1,3.87-1.71s1.32-1.85,0-1.85S94,235.45,93.1,237.3Z" transform="translate(122.79)"/><path class="cls-1" d="M119.61,235.83c.29-.39.66-.82.88-.82.41,0,1.59.9,1.59,1.35,0,.29-.39.53-.75.67,0,1,0,3.23,0,4.49.73,1.08,1.61,1.55,3.63,1.78a65.09,65.09,0,0,0,10.22-.1c.59-.07.57.59.06.71s-.43.27-.59.57-.27.43-.72.45a52,52,0,0,1-9.6-.29,4.42,4.42,0,0,1-3.58-2.53h0c-.87.94-1.87,1.92-2.71,2.78-.28.63-.57.63-.84.29a4.71,4.71,0,0,1-.61-1.23c-.1-.28-.08-.39.27-.55a20.35,20.35,0,0,0,3.12-1.77c0-1.17,0-3.86,0-5h-2.82c-.26,0-.44-.08-.44-.41s.18-.41.44-.41Zm-1.36-7.06c-.33-.41-.11-.88.49-.69,1.32.41,2.55,1.24,2.61,2.3a.9.9,0,0,1-.86,1.06c-.57.05-.8-.55-1.22-1.24C119,229.69,118.57,229.2,118.25,228.77Zm5.57.37c-.27,0-.45-.08-.45-.41s.18-.41.45-.41h3.65c.34-.47.81-1,1.1-1,.45,0,1.65,1,1.65,1.45s-.47.51-1,.67c.29,4.92,1.76,8.21,5.82,10.43.44.24.42.47,0,.67a2.62,2.62,0,0,0-.86.57c-.23.27-.45.31-.8.06a12.19,12.19,0,0,1-4.69-7.67h-.18a12.86,12.86,0,0,1-6.06,7.86c-.55.32-.92-.21-.41-.61a12.75,12.75,0,0,0,5.08-8.41c0-.24.14-.3.35-.26a4.61,4.61,0,0,1,1,.3,22,22,0,0,1-.29-3.2Z" transform="translate(122.79)"/><path class="cls-1" d="M162.32,233.15a22.37,22.37,0,0,1-2.09,4.74,1.92,1.92,0,0,0,.42,1.15c.25.3.34.67.17.88-.38.47-1.16.29-1.85-.16-.85,1.09-2.45,2.68-3.87,2.68s-1.95-2-1.79-3.76a6.8,6.8,0,0,1,2.35-4.18,18.9,18.9,0,0,0-.87-2.05,3.93,3.93,0,0,0-1-1c-.32-.27-.15-.65.29-.58h0a5.45,5.45,0,0,1,1.42.45,2,2,0,0,1,1.14,1.47c.08.32.14.6.21.86a9.22,9.22,0,0,1,4.34-1.46,8.52,8.52,0,0,0,.2-1.65c0-.45-.9-.85-1.22-1.05s-.23-.41,0-.53a1.69,1.69,0,0,1,.9-.19c.85,0,2,.61,2,1.12a16.68,16.68,0,0,1-.43,2.3,5.51,5.51,0,0,1,5.34,5.46c0,1.81-.84,5.84-8.45,6.61a.37.37,0,1,1-.09-.74c6.11-1.33,6.81-4.19,6.81-6.06A4.08,4.08,0,0,0,162.32,233.15Zm-7,7.62a4.35,4.35,0,0,0,2.63-1.88,9.39,9.39,0,0,1-1.88-3.31,5.19,5.19,0,0,0-1.53,3.33C154.55,240,154.89,240.77,155.33,240.77Zm3.41-3a18.8,18.8,0,0,0,2.15-4.62,7.53,7.53,0,0,0-3.8,1.51A8.33,8.33,0,0,0,158.74,237.78Z" transform="translate(122.79)"/><path class="cls-1" d="M191.14,228.34c.7,0,1.66.52,1.73,1a8.44,8.44,0,0,1-.42,2c.51.52,1.27-.46,2-.48s.91.73.34,1.27a8.31,8.31,0,0,1-2.8,1.32,63.28,63.28,0,0,1-2.8,9.42c-.34.79-.82,1-1.21,1a.84.84,0,0,1-.86-.71c0-.73.64-1.51,1.13-2.46a28.52,28.52,0,0,0,2.48-6.92,10.35,10.35,0,0,1-2.29.36,1.92,1.92,0,0,1-1.65-1.08,3.41,3.41,0,0,1-.35-.82.29.29,0,0,1,.45-.31,3.5,3.5,0,0,0,1.72.71,10.26,10.26,0,0,0,2.36-.24,12.27,12.27,0,0,0,.22-2.17c0-.5-.55-.71-1-1a.26.26,0,0,1,0-.42,1.46,1.46,0,0,1,1-.46Zm3.61,11.88c.12,1.17.62,2.07,2.45,2.33a22.2,22.2,0,0,0,3.73,0,.8.8,0,0,1,.87.8c0,1-2.64,1.06-4.24.87-3.05-.37-3.93-1.89-3.67-3.9.1-.76.79-.69.86-.09Zm7.23-5.9c0,.66-.33,1-1.27.94a8.83,8.83,0,0,0-2.3.63c-.46.14-.6-.32-.31-.53s.84-.58,1.14-.82.35-.56-.1-.86a4.2,4.2,0,0,0-2.24-.29c-.59,0-.65-.52-.19-.7C199.05,231.76,201.9,232.7,202,234.32Z" transform="translate(122.79)"/><path class="cls-1" d="M-15.09,264.77a1.43,1.43,0,0,1,.91-.32c.53,0,2,.18,2,.86a20.19,20.19,0,0,1-.47,2.4.78.78,0,0,0,1,.56,11.2,11.2,0,0,1,1.18-.35c.37,0,.73.1.76.48a.81.81,0,0,1-.5.81A19.78,19.78,0,0,1-13,270.3c-.08.82-.13,1.76-.13,2.84,0,.18,0,.36,0,.54a11.58,11.58,0,0,1,5.62-1.63c2.14,0,3.64,1.22,3.64,2.85,0,1.93-1.31,3.79-4.15,3.79-2.08,0-3.6-1.89-2.65-4.36.23-.57.85-.5.76.11-.19,1.31-.11,2.79,1.87,2.79a2.47,2.47,0,0,0,2.75-2.36c0-1.17-1-1.89-2.65-1.89a9.86,9.86,0,0,0-5.16,2c0,1.5.13,2.68.13,3.14a3.09,3.09,0,0,1-.26,1.59,1.12,1.12,0,0,1-.91.68c-.38,0-.67-.53-1-.9A9,9,0,0,0-17,278c-.37.35-.74.69-1,.69a1.24,1.24,0,0,1-1.11-1.17c0-.51.2-.65.51-.72a4.5,4.5,0,0,0,1.4-.58c1-.64,2-1.31,3-1.9,0-.35,0-.72,0-1.12,0-.76,0-1.67.09-2.57a9.39,9.39,0,0,1-1.46.26,3.5,3.5,0,0,1-2.14-.18,2.88,2.88,0,0,1-1.52-2.08h0c0-.47.23-.66.67-.29a3.77,3.77,0,0,0,2.78,1.26,10.73,10.73,0,0,0,1.75-.33c.08-1.23.16-2.31.16-2.85s-.35-.67-1-.95C-15.32,265.29-15.4,265-15.09,264.77Zm.79,13.15a17.73,17.73,0,0,0,.09-2.18,23.51,23.51,0,0,0-2.15,1.65c.54.3,1.12.6,1.46.74S-14.35,278.27-14.3,277.92Zm6.6-9.27a5.08,5.08,0,0,1,4.94.14c.53.37.82.78.67,1.29a.8.8,0,0,1-1.36.38,4.82,4.82,0,0,0-4.12-1.18C-8,269.33-8.12,268.85-7.7,268.65Z" transform="translate(122.79)"/><path class="cls-1" d="M20.44,271.82a1.37,1.37,0,0,0,.55,1c1.2,1.19,3.53,3.39,4.33,4.86a3.73,3.73,0,0,1,.62,1.93,1,1,0,0,1-1,1.07c-.54,0-.86-.55-1.31-1.69a18.38,18.38,0,0,0-3.59-5.32,2.62,2.62,0,0,1-.91-1.7,4.93,4.93,0,0,1,1.33-2.67c1.45-1.92,2.82-3.57,2.82-4.33,0-.45-.27-.61-.54-1s0-.55.35-.5a3.41,3.41,0,0,1,2.14,1.16c.3.36.28.66-.18,1.33-.83,1.22-3,3.08-4.14,4.66A2.26,2.26,0,0,0,20.44,271.82Z" transform="translate(122.79)"/><path class="cls-1" d="M56.42,265.61a9.14,9.14,0,0,1-.63,2,10.37,10.37,0,0,0-.69,2.67c0,.43.16.43.31,0,.72-2,1.68-3.86,3.29-3.85s3.5,1.66,3.5,5.14c0,4.9-2.71,8.1-8,9.16-.89.17-1.07-.57-.23-.86,4.65-1.58,6.57-4,6.57-8.31,0-2.46-.79-4-2-4-1.45,0-2.62,3.31-2.62,5.26,0,1,.29,1.65.29,2.13s-.17.77-.53.86a1,1,0,0,1-1-.43,6.13,6.13,0,0,1-.75-3,46.07,46.07,0,0,1,.76-6.07,3.56,3.56,0,0,0-.62-2.4c-.17-.32,0-.55.41-.47A2.47,2.47,0,0,1,56.42,265.61Z" transform="translate(122.79)"/><path class="cls-1" d="M89.62,264.32c-.3-.21-.23-.52.1-.59a2.59,2.59,0,0,1,1.07,0,2.36,2.36,0,0,1,1.71,1.88c0,.62-.85,2.67-1.38,4.61a25.9,25.9,0,0,0-.72,3.8l1.1.14c.77.11,1.15.37,1.15.79,0,.62-.7.95-2.38.76,0,.31,0,.62,0,.94,0,1.58.75,2.4,2.32,2.4a2.75,2.75,0,0,0,3-2.89c0-1.78-1.26-3.54-3.33-4.88-.51-.33-.16-1,.42-.71,2.73,1.19,4.52,3.54,4.52,5.83a4.12,4.12,0,0,1-4.43,4.1c-2.3,0-3.64-1.48-3.64-4.06,0-.28,0-.6,0-.93-1.74-.46-3.14-1.62-3.14-2.8a3.69,3.69,0,0,1,1.12-2.19c.63-.77,1-1.12.68-1.6a4.8,4.8,0,0,0-1.33-1.2c-.42-.28-.24-.7.24-.63h0c1.22.17,2.65.84,3,1.89a.88.88,0,0,1-.48,1.12,11.29,11.29,0,0,0-1.06.7A2.44,2.44,0,0,0,87,272.47c0,.49.84,1,2.35,1.37.19-1.56.48-3.28.74-4.77s.48-2.67.52-3.3-.31-1-1-1.45Z" transform="translate(122.79)"/><path class="cls-1" d="M126.35,279.81c-.85.14-1-.46-.26-.7,4.52-1.39,5.84-4.08,5.84-6.91,0-3.46-2.29-5.27-5.21-5.48.71,2.38-.09,5.17-1.47,7.64-1.25,2.27-2.7,3.59-3.9,3.59-1.38,0-3.08-2.09-3.08-4.57a7.89,7.89,0,0,1,8.2-7.72c4.12,0,7.22,2.74,7.22,6.45,0,3.94-2.38,6.86-7.34,7.7Zm-4.91-3.76c.65,0,1.57-.88,2.55-2.45,1.34-2.16,2.28-4.67,1.72-6.88a6.33,6.33,0,0,0-6,6.16C119.68,274.59,120.58,276.05,121.44,276.05Z" transform="translate(122.79)"/><rect class="cls-2" x="1.45" y="68.85" width="439.97" height="245.64"/><polyline class="cls-3" points="134.79 4.64 134.79 12.99 123.04 12.99 123.04 1.25 131.1 1.25"/><line class="cls-3" x1="125.79" y1="11.25" x2="135.79" y2="0.25"/><polyline class="cls-3" points="132.29 0.25 135.71 0.25 135.72 3.82"/></svg>