<svg id="图层_1" data-name="图层 1" xmlns="http://www.w3.org/2000/svg" width="58.81" height="14" viewBox="0 0 58.81 14"><defs><style>.cls-1{fill:#20559e;}.cls-2{fill:#fff;}.cls-3{fill:#3d3a39;}</style></defs><rect class="cls-1" width="58.81" height="14" rx="2.73"/><path class="cls-2" d="M12.63,8.23l-.3.09.19.25a.64.64,0,0,1-.41,1l-.3.05L12,9.9a.66.66,0,0,1,.07.3.64.64,0,0,1-.6.64H7.7a1.34,1.34,0,0,1-.79-.28.64.64,0,0,0-.21-.14l-.08,0V6.94L7,6.61,8.32,4.19a1.2,1.2,0,0,0,.13-.31,1.27,1.27,0,0,0,0-.34l-.1-1.36a.61.61,0,0,1,.3-.08c.56,0,1.05.91,1.05,1.65a1.53,1.53,0,0,1,0,.3L9.47,5.53H12.3a.7.7,0,0,1,.49.2.63.63,0,0,1-.06.95l-.27.2.29.17a.65.65,0,0,1,.33.56A.65.65,0,0,1,12.63,8.23Z"/><rect class="cls-1" x="3.46" y="6.27" width="2.94" height="5.08" rx="0.01"/><path class="cls-3" d="M13.51,7.61a1.1,1.1,0,0,0-.32-.77,1.12,1.12,0,0,0,.23-.66,1,1,0,0,0-.32-.75,1.1,1.1,0,0,0-.8-.34H10l.15-1a2.31,2.31,0,0,0,0-.37c0-1-.65-2.08-1.48-2.08A1,1,0,0,0,8,1.91L7.92,2,8,3.58a.71.71,0,0,1,0,.2A.42.42,0,0,1,7.94,4L6.66,6.33l0,0A.45.45,0,0,0,6.17,6H3.69a.45.45,0,0,0-.45.45v4.68a.45.45,0,0,0,.45.45H6.17a.45.45,0,0,0,.45-.45v-.24h0a1.76,1.76,0,0,0,1.07.39h3.74a1.08,1.08,0,0,0,1-1.08,1,1,0,0,0,0-.25,1.09,1.09,0,0,0,.65-1A1.25,1.25,0,0,0,13,8.53,1.07,1.07,0,0,0,13.51,7.61ZM6.19,11.12s0,0,0,0H3.69a0,0,0,0,1,0,0V6.44a0,0,0,0,1,0,0H6.17s0,0,0,0v4.68Zm6.44-2.89-.3.09.19.25a.64.64,0,0,1-.41,1l-.3.05L12,9.9a.66.66,0,0,1,.07.3.64.64,0,0,1-.6.64H7.7a1.34,1.34,0,0,1-.79-.28.64.64,0,0,0-.21-.14l-.08,0V6.94L7,6.61,8.32,4.19a1.2,1.2,0,0,0,.13-.31,1.27,1.27,0,0,0,0-.34l-.1-1.36a.61.61,0,0,1,.3-.08c.56,0,1.05.91,1.05,1.65a1.53,1.53,0,0,1,0,.3L9.47,5.53H12.3a.7.7,0,0,1,.49.2.63.63,0,0,1-.06.95l-.27.2.29.17a.65.65,0,0,1,.33.56A.65.65,0,0,1,12.63,8.23Z"/><path class="cls-2" d="M19,3.3c.15,0,.25.09.25.19s-.06.13-.26.21a15.33,15.33,0,0,0-.09,2.2,5.42,5.42,0,0,0,.47,2.46c.17.36.46.63.67.63s.32-.4.52-1.53a5.19,5.19,0,0,0,1,.62c-.4,1.72-.74,2.24-1.49,2.24a2.05,2.05,0,0,1-1.7-1.21,5.57,5.57,0,0,1-.62-1.76,9.46,9.46,0,0,1-.1-1.62c0-.54.05-1.81.08-2.31,0-.2,0-.2,0-.31Zm5,.49a9.07,9.07,0,0,1,2.59,4.13l-1.18.55a7.47,7.47,0,0,0-1-2.31,8.43,8.43,0,0,0-1.29-1.62Z"/><path class="cls-2" d="M30,3.3c.15,0,.25.09.25.19s-.06.13-.26.21a15.33,15.33,0,0,0-.09,2.2,5.42,5.42,0,0,0,.47,2.46c.17.36.46.63.67.63s.32-.4.52-1.53a5.19,5.19,0,0,0,1,.62c-.4,1.72-.74,2.24-1.49,2.24a2.05,2.05,0,0,1-1.7-1.21,5.57,5.57,0,0,1-.62-1.76,9.46,9.46,0,0,1-.1-1.62c0-.54.05-1.81.08-2.31,0-.2,0-.2,0-.31Zm5,.49a9.07,9.07,0,0,1,2.59,4.13l-1.18.55a7.47,7.47,0,0,0-1-2.31,8.43,8.43,0,0,0-1.29-1.62Z"/><path class="cls-2" d="M42.28,6c1.58-1.83,2.45-2.46,3.41-2.46a2.06,2.06,0,0,1,1.54.68,4.3,4.3,0,0,1,.71,2.64,7.9,7.9,0,0,1-.19,1.71,9.94,9.94,0,0,1,1.17,1,2.75,2.75,0,0,0-.73.84,4.82,4.82,0,0,0-.8-.86,1.89,1.89,0,0,1-1.94,1A1.7,1.7,0,0,1,43.91,10a1.56,1.56,0,0,1-.25-.75c0-.87.71-1.45,1.74-1.45A3,3,0,0,1,46.66,8a8.37,8.37,0,0,0,.09-1.19c0-1.45-.37-2.2-1.09-2.2s-1.26.43-2.35,1.57a14.33,14.33,0,0,0-1.05,1.23c0,2.56,0,2.56.06,3.53l-1.24,0c0-.23,0-1.1.07-2.6l-.06.08c-.23.3-.61.76-.88,1.07s-.34.39-.49.58L39,9.23a24.5,24.5,0,0,0,2.15-2.41c0-.34,0-.61,0-.78,0-.46,0-.58,0-.69a13.57,13.57,0,0,0-1.66.6l-.33-1.13a17.56,17.56,0,0,0,2-.5,20.88,20.88,0,0,0-.06-2.44L42.36,2c.08,0,.15,0,.15.11s0,.09-.15.16c0,.75-.06,1.3-.06,1.6a1.09,1.09,0,0,0,.24-.21l.56.63a.22.22,0,0,1,.09.17c0,.07-.07.1-.21.13l-.7.82Zm3.1,2.59c-.46,0-.73.17-.73.48s.32.57.83.57a.93.93,0,0,0,.94-.76A1.88,1.88,0,0,0,45.38,8.62Z"/><path class="cls-2" d="M55.45,9.1v1.47H54V9.1Zm0-6.91-.19,5.74H54.18L54,2.19Z"/></svg>