<svg id="图层_1" data-name="图层 1" xmlns="http://www.w3.org/2000/svg" width="80.76" height="30.09" viewBox="0 0 80.76 30.09"><defs><style>.cls-1{fill:#8a1c24;}.cls-2{fill:#6e1419;}.cls-3{fill:none;stroke:#8a1c24;stroke-miterlimit:10;}</style></defs><path class="cls-1" d="M33.76,11.08c0-.22.48-.47,1-.47s1.33.17,1.45.53,0,.69,0,1.07c0,.23.13.76.28,1.46l1.07-.37a5.61,5.61,0,0,1,1.7-.49c.28,0,.83.09.83.52s-.18.47-.9.61a20.6,20.6,0,0,0-2.5.63l.49,2.08L39.54,16a9.29,9.29,0,0,1,1.85-.45c.7,0,1.24.28,1.24.67s-.16.49-.63.52a22.64,22.64,0,0,0-4.56.77c.3,1.23.61,2.4.85,3.17a5.59,5.59,0,0,1,.24,1.08.58.58,0,0,1-.51.7c-.46.06-.76-.23-.9-.78s-.13-1-.27-1.82c-.06-.41-.24-1.2-.44-2.07a28,28,0,0,0-3.18,1.13,3.53,3.53,0,0,1-1.09.39,1.81,1.81,0,0,1-1.51-1c-.07-.26.05-.43.29-.38a3.06,3.06,0,0,0,1.65.08c.88-.23,2.28-.65,3.64-1l-.5-2-1.4.52a3.29,3.29,0,0,1-1.11.28,2,2,0,0,1-1.53-1c-.11-.29,0-.5.37-.38a4.41,4.41,0,0,0,1.23.25A10.08,10.08,0,0,0,35.49,14a19.94,19.94,0,0,0-.64-2.17c-.09-.22-.19-.29-.5-.38s-.59-.15-.59-.38ZM40,12c-.31-.22-.21-.45.18-.41A3.16,3.16,0,0,1,42,12.2a1.22,1.22,0,0,1,.51,1,.51.51,0,0,1-.56.49c-.26,0-.43-.25-.79-.72A4.85,4.85,0,0,0,40,12Zm2.66-.29a3.46,3.46,0,0,0-1.17-.93c-.34-.18-.25-.42.12-.41a3.05,3.05,0,0,1,1.8.53,1.08,1.08,0,0,1,.51.94.49.49,0,0,1-.52.52c-.27,0-.38-.2-.74-.65Z"/><path class="cls-1" d="M49.56,13.05c.93,0,3.7-.31,5.07-.52.59-.09.85-.43,1.13-.43.58,0,1.73.86,1.73,1.33s-.62.64-1,1.25A16,16,0,0,1,48.24,22c-.5.22-.72-.35-.3-.58a16.65,16.65,0,0,0,7.45-7.64c.14-.35,0-.4-.32-.37a35.72,35.72,0,0,0-3.9.75,8.24,8.24,0,0,1-1.77.37c-.53,0-1.35-.77-1.52-1.55-.09-.4.15-.55.49-.35a2.18,2.18,0,0,0,1.19.47Z"/><path class="cls-1" d="M64.55,10.51c.74,0,1.66.43,1.66.86a15.07,15.07,0,0,0-.48,3.49c1.93.27,3.86,1.18,3.86,2.46a.64.64,0,0,1-.67.71c-.4,0-.67-.41-1-.84a4.35,4.35,0,0,0-2.22-1.66c0,3.23.16,5.66.16,6.22s-.28.87-.67.87-.81-.46-.81-1.31c0-.46.12-1.55.16-2.11.06-.86.15-2.24.15-3.57s0-2.53-.06-3.44c0-.49-.24-.73-.89-1-.32-.14-.32-.44,0-.54A2.47,2.47,0,0,1,64.55,10.51Z"/><path class="cls-2" d="M8.65,10a1.31,1.31,0,0,0-1.3,1.3v5.1h9.73V10Z"/><path class="cls-2" d="M7.35,22.74a1.31,1.31,0,0,0,1.3,1.31h8.43v-6.4H7.35Z"/><path class="cls-2" d="M28.11,11.25A1.31,1.31,0,0,0,26.8,10H18.38v6.4h9.73Z"/><path class="cls-2" d="M28.11,17.65H18.38v6.4H26.8a1.31,1.31,0,0,0,1.31-1.31Z"/><polygon class="cls-2" points="13.91 8.69 16.96 8.69 11.92 3.89 11.9 5.74 10.4 5.72 13.91 8.69"/><polygon class="cls-2" points="21.54 8.69 18.49 8.69 23.54 3.89 23.56 5.74 25.06 5.72 21.54 8.69"/><rect class="cls-3" x="0.5" y="0.5" width="79.76" height="29.09" rx="3.17"/></svg>