<svg id="图层_1" data-name="图层 1" xmlns="http://www.w3.org/2000/svg" width="139.66" height="105.13" viewBox="0 0 139.66 105.13"><defs><style>.cls-1{fill:#1c2a53;}.cls-2{fill:none;stroke:#1c2a53;stroke-width:1.18px;}.cls-3{fill:#fff;}</style></defs><path class="cls-1" d="M51,12.39c0,1.91,0,3.15,0,3.59s-.21.53-.67.53c-.28,0-.39-.16-.39-.44s0-.89,0-1.74a24.86,24.86,0,0,1-4.29,1.18c0,.31-.16.58-.4.58s-.55-.55-.68-1.33c0-.13,0-.17.16-.19.63-.06,1.22-.12,1.78-.19V9.31H45c-.19,0-.33-.05-.33-.29s.14-.3.33-.3H56.05c.28-.42.64-.88.85-.88s1.26.82,1.26,1.16-.21.31-.76.31H51.57a.15.15,0,0,1,0,.06c0,.18-.19.32-.58.36ZM48.3,7.92c0,.33-.24.46-.7.46a.36.36,0,0,1-.4-.4c0-.94.08-3.25-.06-4.53a.18.18,0,0,1,.21-.19,3.91,3.91,0,0,1,1.29.53h6c.22-.3.5-.61.66-.61s1.19.66,1.19,1-.24.33-.5.43c0,1,0,2.75,0,3.22s-.24.58-.66.58a.45.45,0,0,1-.46-.5V7.81H48.3ZM50,10.49V9.31H47.87c0,.12-.12.23-.3.29v.89Zm0,1.75V11.08H47.57v1.16Zm0,1.48v-.89H47.57v1.4c1-.16,1.76-.33,2.42-.49ZM48.41,4.39h-.09c0,.21,0,.7,0,1.08h6.57V4.39Zm6.42,2.83,0-1.14H48.29V7.22Zm.64,3.22c.24-.28.55-.58.7-.58s1.08.76,1.08,1.1c0,.18-.23.28-.63.39A8.22,8.22,0,0,1,55,14.11a6.42,6.42,0,0,0,2.91,1.14c.46.08.31.31,0,.42a1,1,0,0,0-.56.42c-.17.22-.24.32-.7.17a5.33,5.33,0,0,1-2.44-1.44,8.26,8.26,0,0,1-2.74,1.56c-.39.18-.61-.25-.22-.47a9.16,9.16,0,0,0,2.43-1.73A7.93,7.93,0,0,1,52.43,11h-.8c-.2,0-.33-.06-.33-.3s.13-.3.33-.3ZM53,11a6.17,6.17,0,0,0,1.33,2.45A7.39,7.39,0,0,0,55.55,11Z"/><path class="cls-1" d="M63.05,10a9.3,9.3,0,0,1-.58,2.82,6.39,6.39,0,0,1-2.64,3c-.34.24-.65-.12-.34-.42a7,7,0,0,0,2.09-2.79A9.24,9.24,0,0,0,62.07,10H59.83c-.19,0-.33-.06-.33-.29s.14-.3.33-.3H62.1A22.51,22.51,0,0,0,62,6.57h-.64a9.52,9.52,0,0,1-1.47,1.87c-.31.28-.64.06-.43-.31a14.2,14.2,0,0,0,2.09-5c0-.14.12-.21.3-.18.5.09,1.41.43,1.41.73s-.22.3-.67.31c-.24.56-.52,1.28-.91,2h1.85c.28-.41.62-.87.83-.87s1.18.83,1.18,1.16-.28.31-.69.31H63.67v0c0,.18-.14.28-.5.35,0,.78,0,1.62-.08,2.47h.45c.28-.42.62-.88.83-.89s1.19.84,1.19,1.17-.27.31-.68.31Zm.83,3.22a9.87,9.87,0,0,0-.64-1c-.22-.29-.06-.63.36-.49.91.35,1.68.91,1.71,1.58a.61.61,0,0,1-.6.71C64.33,14.09,64.15,13.71,63.88,13.23Zm7,2c.31-.48.71-1,1-1s1.32.93,1.32,1.28-.28.34-.77.34h-8c-.19,0-.33-.06-.33-.29s.14-.3.33-.3ZM65.44,5c-.19,0-.33-.06-.33-.3s.14-.29.33-.29h5c.33-.48.74-1,1-1s1.39.91,1.39,1.28c0,.21-.28.34-.84.34Zm4.92,1.83c.2-.3.48-.63.65-.63s1.14.64,1.14,1-.25.32-.5.43c0,.87,0,2.66,0,3.12s-.22.56-.62.56a.45.45,0,0,1-.45-.51v-.2H67.18V11c0,.32-.23.46-.66.46a.35.35,0,0,1-.38-.4c0-.95.07-3.36-.06-4.65a.17.17,0,0,1,.21-.19,3.42,3.42,0,0,1,1.3.58ZM67,12.05c.75.46,1.37,1.07,1.27,1.69a.67.67,0,0,1-.76.58c-.39-.08-.45-.48-.59-.94a7.28,7.28,0,0,0-.38-.93C66.41,12.11,66.64,11.82,67,12.05Zm3.6-2.13c0-.78,0-1.94,0-2.55H67.19c0,.4,0,1.34,0,1.62v.93Zm1,2.51c0,.23-.22.3-.68.27a8.7,8.7,0,0,1-1.59,2.21c-.33.25-.62.05-.43-.3A10.19,10.19,0,0,0,70,11.79a.21.21,0,0,1,.3-.17C70.82,11.75,71.62,12.18,71.6,12.43Z"/><path class="cls-1" d="M78.84,14.29c1.3-.25,2.39-.52,3.31-.79.61-.16.73.28.16.52a34.53,34.53,0,0,1-6.89,1.92c-.06.35-.19.66-.44.66s-.57-.68-.7-1.48c0-.13,0-.18.16-.19,1.28-.14,2.41-.29,3.43-.46,0-.73,0-1.59,0-2.41H74.78c-.19,0-.32-.06-.32-.3s.13-.29.32-.29h3.08c0-.94-.06-1.75-.12-2.2,0-.13.07-.21.21-.21s1.67,0,1.67.43-.32.43-.78.52v1.46H80.4c.29-.45.67-.94.89-.94s1.26.86,1.26,1.2-.27.33-.74.33h-3ZM80.65,4.18c.3-.45.68-.95.89-.95s1.29.87,1.29,1.21-.25.33-.76.33H78.94a.24.24,0,0,1,.08.16c0,.21-.33.32-.61.35a22.42,22.42,0,0,1-1.18,2.61c1.34,0,2.47-.16,3.42-.28l-.06-.14a6.09,6.09,0,0,0-.68-1c-.15-.19,0-.48.34-.34a2.85,2.85,0,0,1,2,2.33.64.64,0,0,1-.69.68c-.29,0-.44-.16-.57-.47-.05-.12-.09-.27-.15-.43a31.06,31.06,0,0,1-5.5.78c-.09.34-.26.64-.5.61s-.48-.71-.52-1.51c0-.14.07-.18.19-.18.66,0,1.26,0,1.84,0a17.83,17.83,0,0,0,.86-3.13H74.64c-.2,0-.33-.06-.33-.3s.13-.29.33-.29Zm3.73,5c0,.64,0,3.59,0,4s-.24.46-.67.46a.37.37,0,0,1-.41-.4c0-.46.09-3.33.09-4,0-.52,0-3.25-.12-4.28,0-.13.06-.2.19-.2.71,0,1.65.07,1.65.43s-.28.38-.74.46C84.39,6.32,84.38,8.72,84.38,9.18ZM88,3.84c0,.25-.27.38-.77.52-.08,2.55,0,7.26-.05,10.8,0,.84-.47,1.33-1.1,1.33s-.29-.51-1.32-.85c-.34-.13-.28-.5,0-.49s.56.06.78.06.52-.13.55-.6c.06-1,0-3.69,0-5.25,0-1.1,0-4.14-.18-5.75,0-.18.06-.23.29-.23C87.18,3.38,88,3.51,88,3.84Z"/><path class="cls-1" d="M100.42,8.72c.29-.43.68-.93.9-.93s1.31.86,1.31,1.2-.21.32-.79.32H95.09c0,.2-.18.3-.63.33-.06.13-.13.25-.21.39a2.27,2.27,0,0,1,.36.22H99c.22-.27.47-.55.62-.55.3,0,1.19.65,1.19,1s-.24.33-.51.43c-.06,1.25,0,4.11,0,4.74,0,.46-.25.56-.67.56a.45.45,0,0,1-.46-.5v-.3H94.23V16c0,.33-.23.47-.67.47a.37.37,0,0,1-.42-.4c0-.53.06-2.79,0-4.35A10.7,10.7,0,0,1,89.59,15c-.41.22-.65-.16-.28-.44a11.67,11.67,0,0,0,4-5.22H89.65c-.19,0-.32-.05-.32-.29s.13-.3.32-.3h5.79V7.55H91.52c-.19,0-.32-.06-.32-.3s.13-.3.32-.3h3.92V5.81H90.5c-.19,0-.33-.06-.33-.3s.14-.29.33-.29h3.29a2.22,2.22,0,0,1-.43-.7,8.33,8.33,0,0,0-.44-.83c-.18-.28,0-.58.37-.45.76.25,1.51.73,1.48,1.4a.67.67,0,0,1-.31.58H97a6.71,6.71,0,0,0,.92-2,.24.24,0,0,1,.32-.18c.52.19,1.35.7,1.32,1s-.25.3-.71.26a6.3,6.3,0,0,1-.87,1h1.84c.31-.43.68-.91.89-.91S102,5.14,102,5.48s-.22.33-.77.33H96.7c0,.15-.1.25-.31.33V7h2.32c.3-.43.67-.9.87-.9s1.3.84,1.3,1.19c0,.19-.24.31-.78.31H96.39V8.72Zm-6.18,2.12c0,.21,0,.58,0,1h5c0-.4,0-.74,0-1Zm0,2.57h5v-1h-5v1ZM99.15,15V14H94.21l0,1Z"/><path class="cls-1" d="M113.62,4.85c.25-.33.55-.69.74-.69.34,0,1.31.73,1.31,1.07s-.28.39-.61.51c-.1,2.18.06,8.73.06,9.82,0,.47-.33.58-.76.58a.45.45,0,0,1-.47-.5V15h-6.1v.82c0,.34-.23.53-.72.53a.4.4,0,0,1-.44-.44c0-1.78.18-9.36-.06-11.51a.19.19,0,0,1,.21-.21,3.74,3.74,0,0,1,1.53.66Zm.31,4.79c0-1.81,0-3.5,0-4.2h-6l-.15,0c-.06.79-.07,3.12-.07,4.17Zm0,4.77c0-1.06,0-2.62,0-4.17h-6.17l0,4.17Z"/><line class="cls-2" x1="30.42" y1="10.86" x2="37.03" y2="10.86"/><path class="cls-2" d="M125.49,10.86H132c3.88,0,7,4.81,7,10.74V93.81c0,5.93-3.16,10.73-7,10.73H16.3c-3.89,0-7-4.8-7-10.73V21.6"/><polygon class="cls-1" points="18.71 5.46 14.39 4.01 0.85 8.56 5.63 10.34 18.71 5.46"/><polygon class="cls-1" points="8 16.8 6.55 15.48 5.47 15.85 5.47 11.71 0 9.66 0 23.21 13.55 28.29 13.55 14.74 8 12.66 8 16.8"/><path class="cls-1" d="M19.63,7.82,9.25,11.69l5.27,2,6.6-2.47A7.48,7.48,0,0,1,19.63,7.82Z"/><path class="cls-1" d="M22,12.11l-7,2.63V28.29l13.55-5.08v-9.4a7.25,7.25,0,0,1-1.62.19A7.39,7.39,0,0,1,22,12.11Z"/><path class="cls-1" d="M26.93,0a6.59,6.59,0,0,0-6.6,6.6,5.74,5.74,0,0,0,.07.93h0l0,.2s0,0,0,.07,0,.13,0,.2h0c0,.14.07.28.11.41s0,0,0,.05l.06.19s0,0,0,.06c.07.2.15.39.23.59,0,0,0,0,0,0l.09.19h0a6.65,6.65,0,0,0,.33.58v0c.13.19.26.38.39.55h0A6.49,6.49,0,0,0,24,12.5h0l.2.09.06,0,.2.08.08,0,.18.07.1,0,.18.06.09,0,.31.08.16,0,.13,0,.17,0,.14,0,.18,0h.12l.21,0h.91l.28,0,.12,0,.28,0,.09,0A6.6,6.6,0,0,0,26.93,0Zm3,6L27,7.29h0l-.08,0h-.22l-.06,0h0l-.07,0h0l-.05,0h0l0-.06h0l0-.07h0a.43.43,0,0,0,0,0,.08.08,0,0,1,0,0s0,0,0,0v0h0V2.35a.47.47,0,1,1,.93,0V6.14l2.26-1A.47.47,0,1,1,29.9,6Z"/><path class="cls-1" d="M132.13,104.64H16.48c-3.83,0-6.94-6.26-6.94-9.48V76.28H139.07V94.16C139.07,97.38,136,104.64,132.13,104.64Z"/><path class="cls-3" d="M33.47,90.74c.24-.33.55-.69.73-.69.35,0,1.32.76,1.32,1.14s-.3.44-.63.56c0,.91,0,2.93,0,3.94.48.79,1.11,1.27,2.88,1.44a60.53,60.53,0,0,0,8.88-.1c.49,0,.47.44.05.55s-.38.2-.52.44-.22.35-.6.38a45.87,45.87,0,0,1-8.43-.22,3.47,3.47,0,0,1-2.77-2.13c-.72.77-1.53,1.6-2.18,2.3-.22.53-.48.56-.7.26a3.74,3.74,0,0,1-.53-1.1c-.09-.22-.07-.31.22-.45a20,20,0,0,0,2.54-1.45c0-1,0-3.24,0-4.18H31.55c-.22,0-.38-.07-.38-.35s.16-.34.38-.34ZM32.4,84.81c-.27-.34-.08-.74.42-.6,1.11.31,2.21,1,2.26,1.9a.79.79,0,0,1-.77.93c-.5,0-.7-.46-1.07-1.05A9.27,9.27,0,0,0,32.4,84.81Zm3.71,6.63c-.23,0-.38-.07-.38-.34s.15-.34.38-.34h3.8a11.42,11.42,0,0,0,0-2.74H36.35c-.23,0-.38-.07-.38-.35s.15-.34.38-.34h7.18c.36-.51.82-1.11,1.08-1.11s1.56,1,1.56,1.42c0,.24-.31.38-1,.38H42c0,.24-.31.34-.77.44a16.14,16.14,0,0,1-.09,2.3H44c.36-.53.84-1.15,1.1-1.15s1.58,1,1.58,1.44c0,.24-.31.39-.95.39H41a6.16,6.16,0,0,1-.82,2.18,7.57,7.57,0,0,1-3.89,2.62c-.5.21-.74-.29-.29-.55a7.46,7.46,0,0,0,3.13-2.48,5.52,5.52,0,0,0,.64-1.77Zm1.32-7.23c-.23-.36,0-.74.48-.55,1,.38,1.86,1,1.85,1.8a.78.78,0,0,1-.83.83c-.48,0-.61-.47-.89-1A8.42,8.42,0,0,0,37.43,84.21Zm3.92,2.3a10.29,10.29,0,0,0,1.42-3c0-.16.14-.28.33-.23.58.16,1.61.72,1.61,1s-.29.34-.81.31a10.74,10.74,0,0,1-2,2.25C41.47,87.19,41.13,86.92,41.35,86.51ZM45.77,95a.75.75,0,0,1-.39,1.09c-.36.12-.57,0-.89-.36a14.3,14.3,0,0,0-1.26-1.3,9.55,9.55,0,0,0-1.45-1.1c-.29-.18-.12-.63.29-.56C44.23,93.16,45.48,94.25,45.77,95Z"/><path class="cls-3" d="M57.43,90.91c0,1.18.06,6.48.06,7.2,0,.38-.24.6-.78.6a.47.47,0,0,1-.52-.52c0-.54.09-3.29.12-5.22a11.71,11.71,0,0,1-3.1,3.42c-.46.33-.82,0-.43-.47a15.57,15.57,0,0,0,3.29-5.56H53.42c-.23,0-.38-.06-.38-.34s.15-.34.38-.34h2.93a45.88,45.88,0,0,0-.23-5.81.21.21,0,0,1,.23-.24c1.09,0,2,.1,2,.51s-.34.47-.87.59c0,.85,0,3.37,0,5h1.16c.36-.55.79-1.17,1-1.17A2.62,2.62,0,0,1,61,90c0,.26-.36.39-.75.39H57.43ZM53.3,86.17c-.16-.37.08-.67.48-.43.9.56,1.68,1.44,1.54,2.19a.71.71,0,0,1-.84.65c-.43-.08-.53-.55-.7-1.15A9.09,9.09,0,0,0,53.3,86.17ZM58.8,93a11.84,11.84,0,0,0-.69-1c-.24-.29-.08-.64.36-.53.94.24,1.89.77,2,1.54a.71.71,0,0,1-.69.82C59.31,93.82,59.11,93.43,58.8,93Zm-.59-4.9A12.74,12.74,0,0,0,59,85.57c0-.16.14-.3.31-.24.61.17,1.56.72,1.54,1s-.26.35-.77.31a10.69,10.69,0,0,1-1.29,1.72C58.39,88.68,58,88.5,58.21,88.05ZM67,93.22c.25-.56.6-1.19.82-1.23a2.54,2.54,0,0,1,1.49,1.2c0,.26-.28.43-.65.48L66.53,94c0,1.74,0,3.63,0,4s-.31.6-.88.6a.49.49,0,0,1-.55-.51c0-.45.06-2.25.11-3.95L59.69,95c-.21,0-.38,0-.41-.28s.1-.36.32-.39l5.67-.86c0-.94,0-1.78,0-2.24a69.91,69.91,0,0,0-.22-7.13c0-.16.06-.26.24-.26,1.13,0,2.1.1,2.1.53s-.36.5-.89.62c-.05,1.17-.05,5.35-.05,6,0,.41,0,1.3,0,2.29ZM61.5,90.16c-.25-.29-.12-.65.35-.57,1,.24,2,.81,2.16,1.63a.72.72,0,0,1-.64.87c-.44.07-.7-.34-1-.87A8.42,8.42,0,0,0,61.5,90.16ZM62,86.44c-.24-.29-.1-.64.36-.53,1,.24,2.06.82,2.14,1.64a.74.74,0,0,1-.68.88c-.45,0-.69-.36-1-.89A9.73,9.73,0,0,0,62,86.44Z"/><path class="cls-3" d="M87.47,90.5V94H88c.36-.53.84-1.15,1.09-1.15s1.58,1,1.58,1.44c0,.24-.28.4-.94.4H75.68c-.23,0-.38-.07-.38-.35s.15-.34.38-.34h2.4V90.5H75.45c-.22,0-.37-.07-.37-.34s.15-.35.37-.35h2.63V87.26a10.3,10.3,0,0,1-2.21,2.16c-.38.31-.71,0-.5-.36a13.55,13.55,0,0,0,3.24-5.52c0-.15.13-.27.32-.25.67.12,1.6.49,1.61.78s-.25.36-.78.42c-.18.34-.36.68-.55,1h8.17c.34-.51.79-1.09,1.05-1.09s1.52,1,1.54,1.4c0,.24-.29.38-.93.38H87.79v0c0,.17-.1.29-.32.36v3.23h.79c.35-.51.8-1.13,1.06-1.13s1.56,1,1.57,1.44c0,.24-.27.38-.94.38Zm-9.6,5A4.14,4.14,0,0,1,78,97.1a1.86,1.86,0,0,1-1.87,1.68.64.64,0,0,1-.69-.62c0-.57.88-.82,1.42-1.3.33-.29.3-.74.36-1.31A.32.32,0,0,1,77.87,95.47Zm1.37-5.66h1.53V86.2h-1.2c0,.14-.14.22-.33.31Zm0,4.22h1.53V90.5H79.24ZM82,97.92a.76.76,0,0,1-1.06.5c-.43-.16-.43-.62-.5-1.17,0-.37-.15-.77-.24-1.15s.19-.66.6-.36C81.54,96.29,82.24,97.11,82,97.92Zm1.56-8.11V86.2H82.26c0,.14-.14.22-.33.31v3.3Zm-1.58.69V94h1.58V90.5Zm4,7.27a.78.78,0,0,1-1,.61c-.45-.1-.5-.58-.62-1.13-.1-.37-.24-.77-.37-1.13s.12-.7.56-.44C85.31,96.17,86.11,96.93,85.91,97.77Zm-1.24-8h1.61V86.2H85v0c0,.17-.12.29-.35.36Zm1.61.69H84.67V94h1.61Zm4,7.3a.77.77,0,0,1-.82.84c-.48,0-.65-.51-.94-1.2-.24-.48-.55-.91-.79-1.32s0-.7.46-.53C89.25,96,90.28,96.82,90.24,97.8Z"/><path class="cls-3" d="M101.3,90.91c0,1.18.07,6.48.07,7.2,0,.38-.24.6-.79.6a.47.47,0,0,1-.51-.52c0-.54.08-3.29.11-5.22a11.71,11.71,0,0,1-3.1,3.42c-.46.33-.82,0-.43-.47a15.43,15.43,0,0,0,3.29-5.56H97.29c-.22,0-.38-.06-.38-.34s.16-.34.38-.34h2.93a46.07,46.07,0,0,0-.22-5.81.2.2,0,0,1,.22-.24c1.1,0,2,.1,2,.51s-.35.47-.88.59c0,.85,0,3.37,0,5h1.16c.36-.55.79-1.17,1-1.17A2.62,2.62,0,0,1,104.86,90c0,.26-.36.39-.75.39H101.3Zm-4.13-4.74c-.16-.37.08-.67.48-.43.91.56,1.68,1.44,1.54,2.19a.7.7,0,0,1-.84.65c-.43-.08-.53-.55-.7-1.15A8,8,0,0,0,97.17,86.17Zm5.5,6.78a11.84,11.84,0,0,0-.69-1c-.24-.29-.08-.64.36-.53,1,.24,1.89.77,2,1.54a.71.71,0,0,1-.69.82C103.18,93.82,103,93.43,102.67,93Zm-.58-4.9a13.45,13.45,0,0,0,.75-2.48c0-.16.14-.3.31-.24.62.17,1.56.72,1.54,1s-.26.35-.77.31a11.21,11.21,0,0,1-1.28,1.72C102.26,88.68,101.9,88.5,102.09,88.05Zm8.79,5.17c.25-.56.6-1.19.82-1.23a2.54,2.54,0,0,1,1.49,1.2c0,.26-.27.43-.65.48L110.4,94c0,1.74,0,3.63,0,4s-.31.6-.88.6a.48.48,0,0,1-.54-.51c0-.45,0-2.25.1-3.95l-5.57.83c-.21,0-.38,0-.41-.28s.1-.36.32-.39l5.68-.86c0-.94,0-1.78,0-2.24a69.91,69.91,0,0,0-.22-7.13.21.21,0,0,1,.24-.26c1.13,0,2.11.1,2.11.53s-.36.5-.9.62c0,1.17,0,5.35,0,6,0,.41,0,1.3,0,2.29Zm-5.5-3.06c-.26-.29-.12-.65.34-.57,1,.24,2.06.81,2.16,1.63a.71.71,0,0,1-.64.87c-.44.07-.7-.34-1-.87A9.36,9.36,0,0,0,105.38,90.16Zm.44-3.72c-.24-.29-.1-.64.36-.53,1,.24,2.06.82,2.14,1.64a.74.74,0,0,1-.68.88c-.45,0-.69-.36-1-.89A9.73,9.73,0,0,0,105.82,86.44Z"/></svg>