<svg id="图层_1" data-name="图层 1" xmlns="http://www.w3.org/2000/svg" width="121.24" height="27.94" viewBox="0 0 121.24 27.94"><defs><style>.cls-1{fill:#f1f1f1;stroke:#989898;stroke-miterlimit:10;stroke-width:0.57px;}.cls-2{fill:#2f1f19;}.cls-3{fill:#dd7cab;}</style></defs><rect class="cls-1" x="0.29" y="0.29" width="120.67" height="27.36" rx="4.73"/><path class="cls-2" d="M10.27,8.52a.88.88,0,0,1,.57-.2c.34,0,1.29.11,1.29.54a14.3,14.3,0,0,1-.31,1.53.5.5,0,0,0,.62.35c.28-.05.48-.2.75-.22s.46.06.48.31a.5.5,0,0,1-.32.51,11.87,11.87,0,0,1-1.76.69c-.05.52-.08,1.12-.08,1.81v.34a7.44,7.44,0,0,1,3.58-1c1.36,0,2.31.77,2.31,1.81a2.38,2.38,0,0,1-2.64,2.41,1.88,1.88,0,0,1-1.68-2.77c.14-.37.54-.32.48.06-.12.84-.07,1.78,1.19,1.78a1.57,1.57,0,0,0,1.75-1.5c0-.74-.62-1.2-1.69-1.2A6.27,6.27,0,0,0,11.53,15c0,1,.09,1.71.09,2a2.05,2.05,0,0,1-.17,1,.72.72,0,0,1-.58.43c-.24,0-.43-.34-.63-.57a5.8,5.8,0,0,0-1.2-1c-.24.22-.48.43-.64.43a.78.78,0,0,1-.7-.74c0-.32.12-.41.32-.46a2.78,2.78,0,0,0,.89-.36c.65-.41,1.29-.84,1.91-1.21v-.71c0-.49,0-1.07.06-1.64a7.4,7.4,0,0,1-.93.17,2.18,2.18,0,0,1-1.36-.12,1.84,1.84,0,0,1-1-1.32c0-.3.15-.42.43-.18a2.37,2.37,0,0,0,1.76.79,6.05,6.05,0,0,0,1.12-.2c.05-.78.1-1.47.1-1.82s-.23-.42-.67-.6C10.12,8.85,10.07,8.68,10.27,8.52Zm.5,8.36c0-.33.05-.78.06-1.39a14.56,14.56,0,0,0-1.37,1,10.19,10.19,0,0,0,.93.47C10.63,17.1,10.74,17.1,10.77,16.88ZM15,11a3.25,3.25,0,0,1,3.14.09c.33.24.52.5.42.82a.51.51,0,0,1-.86.25,3,3,0,0,0-2.62-.75C14.76,11.42,14.7,11.12,15,11Z"/><path class="cls-2" d="M23.13,9.57a10,10,0,0,1-2.93,3.09c-.31.22-.57-.07-.31-.33a11.41,11.41,0,0,0,3.1-5c0-.14.1-.18.24-.16.46.08,1.34.41,1.35.68s-.27.28-.64.26c-.15.3-.3.62-.5,1h5.48c.29-.43.67-.93.88-.93s1.26.8,1.26,1.14c0,.18-.25.31-.76.31Zm3.74,7.86c.14.42,0,.65-.33.77s-.46,0-.84-.5a10.42,10.42,0,0,0-1.17-1.27,11.17,11.17,0,0,1-4.24,2.5c-.35.11-.5-.28-.16-.44a13.11,13.11,0,0,0,3.78-2.6A19.41,19.41,0,0,0,22,14.55c-.3-.18-.16-.54.18-.44a10.26,10.26,0,0,1,2.34,1.08,8.19,8.19,0,0,0,.94-1.61c.07-.13.15-.17.26-.13.46.14,1.16.53,1.13.79s-.29.27-.66.19a13.39,13.39,0,0,1-.95,1.26A5,5,0,0,1,26.87,17.43ZM28,12.49c.21-.27.46-.56.63-.56s1.05.68,1.05,1-.28.38-.67.5c-.17,3.1,1,4.11,1.61,4.13a.34.34,0,0,0,.3-.16,5.22,5.22,0,0,0,.29-.58c.15-.27.42-.2.39.1a8.61,8.61,0,0,0-.07.92,6.12,6.12,0,0,1,.19.68c0,.22-.19.34-.47.34-1.28,0-3.34-1.17-3.11-5.82H21.41c-.17,0-.29,0-.29-.26s.12-.26.29-.26Zm-.53-1.75c.28-.39.64-.85.84-.85s1.22.76,1.22,1.07-.26.3-.74.3H23.23c-.16,0-.28-.06-.28-.26s.12-.26.28-.26Z"/><path class="cls-2" d="M36.23,10a1.36,1.36,0,0,1,0,1.16c-.48,1.2-1.26,2.62-1,3.79.11.48.3.52.52,0s.4-.89.58-1.36c.12-.31.46-.16.37.14a13.68,13.68,0,0,0-.55,2.45c0,.66.29.81.29,1.26,0,.23-.19.41-.52.41-.71,0-1.44-1.58-1.44-3.06a14.67,14.67,0,0,1,.66-3.58,2,2,0,0,0,0-1.42c-.12-.31-.23-.55-.31-.71s.07-.36.28-.27A2.15,2.15,0,0,1,36.23,10Zm2.2,5.66a3,3,0,0,0,2.25.69,17,17,0,0,0,2.21-.22.45.45,0,0,1,.5.41c0,.71-1.29.9-2.42.9-1.65,0-2.48-.62-2.87-1.5-.16-.35.14-.46.33-.28Zm0-5.52c-.25-.26-.09-.51.23-.4a3.75,3.75,0,0,0,1.4.24,15.75,15.75,0,0,0,1.69-.23c.74,0,1,.31,1,.51,0,.6-1.22.74-1.88.74h0A3.27,3.27,0,0,1,38.46,10.18Z"/><path class="cls-2" d="M51.56,8.42c.23-.3.52-.64.69-.64s1.18.68,1.18,1-.43.36-.78.45a9.64,9.64,0,0,0,.92,4.59,7.52,7.52,0,0,0,4.1,3.75c.36.14.34.39-.05.47a.88.88,0,0,0-.63.37c-.16.24-.31.18-.49.11a8.36,8.36,0,0,1-3.58-4,10,10,0,0,1-.61-1.89,1.17,1.17,0,0,1-.57.1,9.42,9.42,0,0,1-5.61,6.11c-.38.16-.6-.26-.25-.47a9.37,9.37,0,0,0,5-6.56c0-.14.1-.21.26-.15a6.62,6.62,0,0,1,1.1.45A20.46,20.46,0,0,1,52,8.93H48.71c-.17,0-.29,0-.29-.25s.12-.26.29-.26Z"/><path class="cls-2" d="M64,9.05a6.2,6.2,0,0,1-.4,1.28A6.48,6.48,0,0,0,63.2,12c0,.27.1.27.19,0,.46-1.26,1.07-2.45,2.09-2.45s2.23,1.06,2.23,3.27c0,3.11-1.72,5.15-5.1,5.82-.57.11-.68-.36-.15-.54,2.95-1,4.18-2.52,4.18-5.29,0-1.56-.5-2.54-1.29-2.54s-1.67,2.1-1.67,3.34c0,.6.19,1,.19,1.36s-.11.49-.34.54a.61.61,0,0,1-.61-.27,3.92,3.92,0,0,1-.48-1.94,29.44,29.44,0,0,1,.49-3.86A2.3,2.3,0,0,0,62.53,8c-.11-.2,0-.35.26-.3A1.57,1.57,0,0,1,64,9.05Z"/><path class="cls-2" d="M76.1,8.18c.22-.26.5-.55.65-.55s1,.76,1,1.06-.26.28-.6.34A10,10,0,0,1,72.1,13.9c-.35.17-.56-.19-.22-.41A10.29,10.29,0,0,0,76.15,8.7H73.06c-.17,0-.28,0-.28-.26s.11-.26.28-.26Zm5.06,9.89c.27-.41.63-.89.83-.89s1.2.78,1.2,1.11-.21.29-.72.29H72.56c-.17,0-.29,0-.29-.26s.12-.25.29-.25h5.73c-.13,0-.18-.17-.09-.37a6.18,6.18,0,0,0,.53-1.5A.2.2,0,0,1,79,16c.47.12,1.11.44,1.11.66s-.16.26-.57.27a4,4,0,0,1-.94,1,.55.55,0,0,1-.18.1ZM73.41,10.4c-.13-.25-.3-.52-.45-.75s0-.56.34-.42c.7.33,1.27.77,1.27,1.3a.54.54,0,0,1-.54.58C73.71,11.11,73.61,10.78,73.41,10.4Zm6.34,2.91c.19-.26.43-.55.58-.55s1,.56,1,.84-.21.29-.44.37c0,.61,0,1.54,0,1.86s-.2.5-.56.5a.39.39,0,0,1-.39-.44v-.06H75.42v.26c0,.28-.2.39-.58.39a.3.3,0,0,1-.34-.33c0-.73,0-2.08,0-3.09a.17.17,0,0,1,.19-.17,3.45,3.45,0,0,1,1,.42Zm.22,2c0-.47,0-1.09,0-1.5H75.55l-.13,0c0,.22,0,.83,0,1v.43Zm-1.71-3.64c.26-.37.56-.77.74-.77s1,.74,1,1-.24.27-.61.27H75.89c-.17,0-.29,0-.29-.26s.12-.26.29-.26Zm-2,4.53c.54.31,1,.69,1,1.19a.53.53,0,0,1-.65.48c-.3,0-.35-.37-.45-.68a5.92,5.92,0,0,0-.28-.64C75.69,16.28,75.89,16,76.23,16.21Zm7.39-3.66a1.65,1.65,0,0,0-.52.41.34.34,0,0,1-.43.11,7.78,7.78,0,0,1-2.86-2.14,10.18,10.18,0,0,1-1.75-3.28.25.25,0,0,1,.48-.12,14.44,14.44,0,0,0,1,1.72,10.92,10.92,0,0,0,1.21-1.52c.06-.09.16-.18.29-.1.41.23,1,.76,1,1s-.25.19-.64.09a9.59,9.59,0,0,1-1.52,1,5.68,5.68,0,0,0,.61.69,2.75,2.75,0,0,0,.26.22A10,10,0,0,0,82,9.12.21.21,0,0,1,82.35,9c.43.25,1,.72.91.93s-.21.2-.63.11a7.28,7.28,0,0,1-1.49.85,9.41,9.41,0,0,0,2.44,1.2C83.92,12.26,83.9,12.42,83.62,12.55Z"/><path class="cls-2" d="M87.88,16.68c.5-.13,1-.25,1.34-.37s.55.07.4.29a22.87,22.87,0,0,0,2.25-1c.39-.2.56.08.25.4a11.49,11.49,0,0,1-1.78,1.3c0,.27,0,.46-.23.49s-.54-.38-.74-1v0a17.91,17.91,0,0,1-3.5,1.28c0,.31-.15.59-.35.61s-.52-.55-.68-1.25c0-.12,0-.16.13-.17.77-.12,1.48-.25,2.12-.39v-3.4H85.26c-.17,0-.29-.05-.29-.25s.12-.26.29-.26h1.82V11.54h-.93c-.16,0-.28,0-.28-.26a.28.28,0,0,1,0-.1,8.35,8.35,0,0,1-1.23,1.14c-.26.21-.55-.05-.32-.31A11.52,11.52,0,0,0,87,7.35a.18.18,0,0,1,.2-.17c.51.07,1.17.28,1.17.48s-.13.19-.38.2h0a8.21,8.21,0,0,1,1.39.82,2,2,0,0,1,.77.89.54.54,0,0,1-.38.72c-.36,0-.58-.47-1-.9a5.18,5.18,0,0,0-1-1A12,12,0,0,1,86,11.05a.57.57,0,0,1,.15,0h2.08c.22-.33.47-.66.61-.67a1.73,1.73,0,0,1,.87,1c0,.18-.24.24-.47.24h-1.1a.39.39,0,0,1-.26.22V13h.58c.22-.34.48-.67.63-.68a1.75,1.75,0,0,1,.88,1c0,.18-.22.24-.5.24H87.88Zm-2.4-1.31c0-.24-.12-.49-.18-.74s.12-.47.4-.26c.51.4.93.92.78,1.4a.5.5,0,0,1-.64.35C85.56,16,85.55,15.72,85.48,15.37ZM89,14.06c.44.09,1.09.41,1.1.62s-.17.25-.53.26A6,6,0,0,1,88.81,16c-.26.23-.5.09-.39-.22a7.28,7.28,0,0,0,.34-1.53C88.77,14.14,88.84,14,89,14.06Zm5-1.86c0,.11-.12.2-.31.26a9.47,9.47,0,0,0,.54,2,6.25,6.25,0,0,0,1-1.4c.07-.09.16-.17.29-.11.41.21.93.64.89.86s-.23.22-.61.13a6.66,6.66,0,0,1-1.4,1,4.42,4.42,0,0,0,2.22,2.1c.35.14.17.3,0,.35a.91.91,0,0,0-.49.32c-.14.18-.23.23-.56.05-1.33-1-2-2.93-2.26-5.29h0v5.22c0,.85-.39,1.2-.82,1.2-.23,0-.29-.15-.42-.31a1.1,1.1,0,0,0-.7-.36.23.23,0,0,1-.19-.21c0-.12.08-.18.2-.18l.66,0c.27,0,.39-.18.42-.59s0-3.87,0-5.11H89.88c-.17,0-.29,0-.29-.26s.12-.26.29-.26h4V10.35H90.78c-.16,0-.28,0-.28-.26s.12-.26.28-.26h3.1V8.52H90.53c-.17,0-.29,0-.29-.26s.12-.26.29-.26h3.11c.17-.25.43-.54.57-.54s1,.54,1,.81-.2.3-.4.39c0,.65,0,2.17,0,3H95c.23-.38.51-.75.67-.75s.89.74.91,1-.25.28-.49.28H93.94Zm-3.22,2.1c-.12-.22-.26-.45-.4-.67s0-.52.33-.39c.63.26,1.2.65,1.19,1.17a.52.52,0,0,1-.55.54C91,15,90.89,14.63,90.72,14.3Z"/><path class="cls-3" d="M116.44,8.28a4.13,4.13,0,0,0-1.25-1.63l-.25.3.25-.3a4,4,0,0,0-2.57-.91A4.19,4.19,0,0,0,109,7.86a4,4,0,0,0-1.13-1.29,4.19,4.19,0,0,0-2.5-.83,4,4,0,0,0-2.57.91,4.13,4.13,0,0,0-1.25,1.63,4.9,4.9,0,0,0-.41,2,7.75,7.75,0,0,0,1.72,4.63,44,44,0,0,0,3.31,3.62c.54.55,1,1.08,1.46,1.57a5.85,5.85,0,0,1,.91,1.29h0a.53.53,0,0,0,.23.24l.1,0h.2l.08,0a.53.53,0,0,0,.16-.09.64.64,0,0,0,.16-.19,5.85,5.85,0,0,1,.91-1.29c.62-.73,1.44-1.56,2.3-2.43a35.57,35.57,0,0,0,2.47-2.76,7.75,7.75,0,0,0,1.72-4.63A4.9,4.9,0,0,0,116.44,8.28Zm-1.93,6.17A43.37,43.37,0,0,1,111.26,18c-.55.56-1.06,1.1-1.5,1.61a10.17,10.17,0,0,0-.77,1,12.17,12.17,0,0,0-.78-1c-.65-.77-1.49-1.6-2.34-2.47a35.22,35.22,0,0,1-2.41-2.69,6.9,6.9,0,0,1-1.55-4.15,4.14,4.14,0,0,1,.34-1.71,3.45,3.45,0,0,1,1-1.33,3.28,3.28,0,0,1,2.08-.74,3.37,3.37,0,0,1,2,.68A3.26,3.26,0,0,1,108.61,9a.39.39,0,0,0,.75,0,3.26,3.26,0,0,1,1.23-1.79,3.37,3.37,0,0,1,2-.68,3.28,3.28,0,0,1,2.08.74h0a3.45,3.45,0,0,1,1,1.33,4.14,4.14,0,0,1,.34,1.71A6.9,6.9,0,0,1,114.51,14.45Z"/></svg>