<svg id="图层_1" data-name="图层 1" xmlns="http://www.w3.org/2000/svg" width="221.06" height="26.63" viewBox="0 0 221.06 26.63"><defs><style>.cls-1{fill:#bcaf6b;}</style></defs><path class="cls-1" d="M48.22,10.79,47.1,11.85a8.54,8.54,0,0,0-2.65-1.8,7.08,7.08,0,0,0-2.8-.61,6.79,6.79,0,0,0-3.24.83A6.05,6.05,0,0,0,36,12.54a5.86,5.86,0,0,0-.84,3,6,6,0,0,0,.87,3.09A6.19,6.19,0,0,0,38.48,21a6.92,6.92,0,0,0,3.38.84,5.83,5.83,0,0,0,3.77-1.25,5,5,0,0,0,1.82-3.27h-4.6V15.89h6.22a7.25,7.25,0,0,1-2,5.32,7.15,7.15,0,0,1-5.27,2,7.92,7.92,0,0,1-6.35-2.73,7.24,7.24,0,0,1-1.8-4.86,7.56,7.56,0,0,1,1-3.83A7.43,7.43,0,0,1,37.53,9,8.32,8.32,0,0,1,41.6,8a8.93,8.93,0,0,1,3.46.67A10.38,10.38,0,0,1,48.22,10.79Z"/><path class="cls-1" d="M59.47,11.85a5.32,5.32,0,0,1,4.1,1.79,5.74,5.74,0,0,1-.09,7.77,5.64,5.64,0,0,1-8,0,5.71,5.71,0,0,1-.08-7.76A5.28,5.28,0,0,1,59.47,11.85Zm0,1.35a4,4,0,0,0-2.95,1.27,4.22,4.22,0,0,0-1.23,3.06,4.4,4.4,0,0,0,.56,2.16,4,4,0,0,0,1.52,1.55,4.35,4.35,0,0,0,4.2,0,4,4,0,0,0,1.52-1.55,4.4,4.4,0,0,0,.56-2.16,4.19,4.19,0,0,0-1.24-3.06A3.94,3.94,0,0,0,59.47,13.2Z"/><path class="cls-1" d="M70.23,12.13H71.6v5a10.61,10.61,0,0,0,.2,2.51,2.81,2.81,0,0,0,1.12,1.55,3.45,3.45,0,0,0,2,.57,3.36,3.36,0,0,0,2-.55A2.92,2.92,0,0,0,78,19.74a10.8,10.8,0,0,0,.2-2.62v-5h1.41v5.24a8.14,8.14,0,0,1-.52,3.33,4,4,0,0,1-1.55,1.76,4.93,4.93,0,0,1-2.6.63,5,5,0,0,1-2.61-.63,4.06,4.06,0,0,1-1.56-1.77,8.77,8.77,0,0,1-.51-3.42Z"/><path class="cls-1" d="M84.93,12.13h1.4v1.56a4.77,4.77,0,0,1,1.33-1.38,2.64,2.64,0,0,1,1.45-.46,2.44,2.44,0,0,1,1.22.37l-.72,1.16a1.83,1.83,0,0,0-.72-.19,2,2,0,0,0-1.33.56,3.52,3.52,0,0,0-1,1.76,16.72,16.72,0,0,0-.26,3.69v3.61h-1.4Z"/><path class="cls-1" d="M94.31,12.13h1.37V14a5.36,5.36,0,0,1,1.48-1.49,4.14,4.14,0,0,1,2.19-.63,3.49,3.49,0,0,1,1.47.31A3,3,0,0,1,102,13a4.34,4.34,0,0,1,.77,1.45,5,5,0,0,1,1.72-1.91,4,4,0,0,1,2.21-.66,3.46,3.46,0,0,1,2,.56A3.35,3.35,0,0,1,109.87,14a8.2,8.2,0,0,1,.42,3v5.83h-1.41V17a7.74,7.74,0,0,0-.24-2.36,2.2,2.2,0,0,0-.84-1,2.54,2.54,0,0,0-1.42-.39,3.09,3.09,0,0,0-1.82.59,3.33,3.33,0,0,0-1.21,1.57,10.08,10.08,0,0,0-.38,3.28v4.18h-1.38V17.34a9.34,9.34,0,0,0-.24-2.62,2.13,2.13,0,0,0-.84-1.11,2.41,2.41,0,0,0-1.42-.42,3.06,3.06,0,0,0-1.78.57,3.36,3.36,0,0,0-1.23,1.55,8.24,8.24,0,0,0-.4,3v4.52H94.31Z"/><path class="cls-1" d="M125,19.27l1.16.61a6.22,6.22,0,0,1-1.32,1.8,5.28,5.28,0,0,1-1.68,1.05,5.89,5.89,0,0,1-2.12.36A5.13,5.13,0,0,1,117,21.38a5.82,5.82,0,0,1-1.47-3.88,5.73,5.73,0,0,1,1.25-3.62,5.1,5.1,0,0,1,4.23-2,5.26,5.26,0,0,1,4.37,2.08,5.77,5.77,0,0,1,1.18,3.65h-9.62a4.39,4.39,0,0,0,1.19,3.05,3.79,3.79,0,0,0,2.85,1.19,4.5,4.5,0,0,0,1.58-.28,4.22,4.22,0,0,0,1.32-.75A6.58,6.58,0,0,0,125,19.27Zm0-2.88a4.71,4.71,0,0,0-.8-1.76,3.88,3.88,0,0,0-1.4-1.06,4.2,4.2,0,0,0-1.82-.4,3.94,3.94,0,0,0-2.7,1A4.57,4.57,0,0,0,117,16.39Z"/><path class="cls-1" d="M133.09,8.16h1.37v4h2.18v1.19h-2.18v9.49h-1.37V13.32h-1.88V12.13h1.88Z"/><path class="cls-1" d="M150.21,8.37h2.88a17.75,17.75,0,0,1,3.26.19,3.69,3.69,0,0,1,2.09,1.27,3.58,3.58,0,0,1,.81,2.38,3.88,3.88,0,0,1-.56,2.08,3.55,3.55,0,0,1-1.58,1.35,7.46,7.46,0,0,1-2.85.47l5.19,6.7h-1.78l-5.2-6.7h-.81v6.7h-1.45Zm1.45,1.41v4.91l2.48,0a6.26,6.26,0,0,0,2.14-.27,2.27,2.27,0,0,0,1.09-.88,2.47,2.47,0,0,0,.39-1.35,2.33,2.33,0,0,0-.4-1.32,2.13,2.13,0,0,0-1-.85,6.31,6.31,0,0,0-2.13-.26Z"/><path class="cls-1" d="M173.93,19.27l1.16.61a6.22,6.22,0,0,1-1.32,1.8,5.28,5.28,0,0,1-1.68,1.05,5.84,5.84,0,0,1-2.11.36,5.1,5.1,0,0,1-4.09-1.71,5.85,5.85,0,0,1-.23-7.5,5.12,5.12,0,0,1,4.24-2,5.25,5.25,0,0,1,4.36,2.08,5.71,5.71,0,0,1,1.18,3.65h-9.61A4.3,4.3,0,0,0,167,20.63a3.75,3.75,0,0,0,2.84,1.19,4.59,4.59,0,0,0,1.59-.28,4.28,4.28,0,0,0,1.31-.75A6.58,6.58,0,0,0,173.93,19.27Zm0-2.88a4.56,4.56,0,0,0-.8-1.76,3.84,3.84,0,0,0-1.39-1.06,4.27,4.27,0,0,0-1.82-.4,4,4,0,0,0-2.71,1A4.65,4.65,0,0,0,166,16.39Z"/><path class="cls-1" d="M186.19,13.3l-.88.91a3.17,3.17,0,0,0-2.16-1.07,1.65,1.65,0,0,0-1.14.44,1.37,1.37,0,0,0-.48,1,1.52,1.52,0,0,0,.39,1,5.47,5.47,0,0,0,1.66,1.13,6.24,6.24,0,0,1,2.08,1.54,2.77,2.77,0,0,1,.55,1.68,3,3,0,0,1-.93,2.23,3.2,3.2,0,0,1-2.31.91,4,4,0,0,1-1.77-.4,3.89,3.89,0,0,1-1.39-1.11l.86-1a3,3,0,0,0,2.24,1.19,2,2,0,0,0,1.41-.53A1.65,1.65,0,0,0,184.9,20a1.6,1.6,0,0,0-.39-1.06,6.1,6.1,0,0,0-1.73-1.14,5.47,5.47,0,0,1-2-1.47,2.82,2.82,0,0,1-.52-1.66,2.71,2.71,0,0,1,.83-2,2.91,2.91,0,0,1,2.1-.81A4.3,4.3,0,0,1,186.19,13.3Z"/><path class="cls-1" d="M196.51,11.85a5.3,5.3,0,0,1,4.09,1.79,5.75,5.75,0,0,1-.08,7.77,5.64,5.64,0,0,1-8,0,5.73,5.73,0,0,1-.09-7.76A5.3,5.3,0,0,1,196.51,11.85Zm0,1.35a4,4,0,0,0-2.95,1.27,4.22,4.22,0,0,0-1.23,3.06,4.4,4.4,0,0,0,.56,2.16,4,4,0,0,0,1.52,1.55,4.35,4.35,0,0,0,4.2,0,4,4,0,0,0,1.52-1.55,4.4,4.4,0,0,0,.56-2.16,4.19,4.19,0,0,0-1.24-3.06A3.94,3.94,0,0,0,196.5,13.2Z"/><path class="cls-1" d="M206.91,12.13h1.41v1.56a4.77,4.77,0,0,1,1.33-1.38,2.62,2.62,0,0,1,1.45-.46,2.47,2.47,0,0,1,1.22.37l-.72,1.16a1.83,1.83,0,0,0-.73-.19,2,2,0,0,0-1.32.56,3.6,3.6,0,0,0-1,1.76,16.93,16.93,0,0,0-.25,3.69v3.61h-1.41Z"/><path class="cls-1" d="M217.5,8.16h1.38v4h2.18v1.19h-2.18v9.49H217.5V13.32h-1.88V12.13h1.88Z"/><path class="cls-1" d="M27.29,18l-.3-.08a13.07,13.07,0,0,0,.46-3.47A13.22,13.22,0,0,0,1,14.41a12.94,12.94,0,0,0,.46,3.46l-.3.08a13.53,13.53,0,1,1,26.58-3.54A13.62,13.62,0,0,1,27.29,18Z"/><path class="cls-1" d="M28,18l-.3-.08A14,14,0,0,0,14.24.31,13.94,13.94,0,0,0,.79,17.88L.49,18A14.55,14.55,0,0,1,0,14.24,14.24,14.24,0,1,1,28,18Z"/><path class="cls-1" d="M1.41,18.47c1,.56,2,1.11,3,1.57a15.94,15.94,0,0,0,3.16,1.08,9,9,0,0,0,1.62.21,8.86,8.86,0,0,0,1.63-.08,12,12,0,0,0,3.12-1c.51-.22,1-.47,1.53-.71s1-.49,1.56-.71a14.84,14.84,0,0,1,3.33-1,12.55,12.55,0,0,1,3.46-.09,14,14,0,0,1,1.7.28c.56.12,1.11.28,1.65.45-.29,0-.56-.09-.85-.12l-.42-.06-.42-.05c-.56,0-1.12-.1-1.68-.1a14.17,14.17,0,0,0-3.32.33,14.42,14.42,0,0,0-1.59.45c-.52.18-1,.39-1.55.62s-1,.47-1.52.72-1,.5-1.55.74a16.49,16.49,0,0,1-1.62.63,10.09,10.09,0,0,1-1.73.39,9,9,0,0,1-3.5-.27,12.73,12.73,0,0,1-1.64-.58,17.19,17.19,0,0,1-1.55-.77A22.77,22.77,0,0,1,1.41,18.47Z"/><path class="cls-1" d="M2.16,20.67a24.12,24.12,0,0,0,2.56,1.54,14.46,14.46,0,0,0,1.34.6,11.07,11.07,0,0,0,1.38.44,11.54,11.54,0,0,0,1.41.24,9.62,9.62,0,0,0,1.42,0,9.74,9.74,0,0,0,1.41-.19,11.45,11.45,0,0,0,1.39-.38c.45-.15.91-.32,1.36-.51s.9-.39,1.35-.6c.89-.42,1.79-.86,2.73-1.26a13.38,13.38,0,0,1,2.92-.91,6.65,6.65,0,0,1,1.54-.1h.19l.19,0,.38.05a6.11,6.11,0,0,1,.74.17l-.38,0h-.37l-.37,0h-.19l-.18,0a8.67,8.67,0,0,0-1.43.31,16.39,16.39,0,0,0-2.7,1.16c-.87.45-1.75.94-2.65,1.4-.45.23-.9.45-1.37.65a14.79,14.79,0,0,1-1.44.56,11.15,11.15,0,0,1-1.51.39,10.34,10.34,0,0,1-1.57.18A9.55,9.55,0,0,1,7.21,24a12,12,0,0,1-1.43-.6,12.45,12.45,0,0,1-1.32-.79l-.31-.22-.31-.23c-.19-.15-.4-.31-.58-.48s-.38-.33-.57-.5l-.27-.27Z"/><path class="cls-1" d="M3.42,23.34l.45.25c.15.08.29.17.44.24.3.16.59.33.89.47A14.37,14.37,0,0,0,7,25.07a8.47,8.47,0,0,0,3.75.5,14.91,14.91,0,0,0,3.75-1,20.18,20.18,0,0,1,1.95-.63l.26-.05.25-.05.26,0,.13,0h.13a4.44,4.44,0,0,1,1,0,8.59,8.59,0,0,0-1.89.64c-.6.28-1.19.59-1.8.9a16.94,16.94,0,0,1-1.9.81,4.83,4.83,0,0,1-.5.16l-.52.14-.52.1c-.18,0-.36.06-.54.07a9.49,9.49,0,0,1-1.07,0,9.47,9.47,0,0,1-1.07-.13l-.52-.12-.52-.16L7.19,26,7,25.93l-.24-.11a10.25,10.25,0,0,1-1.77-1.09c-.28-.21-.54-.44-.79-.66S3.66,23.59,3.42,23.34Z"/><path class="cls-1" d="M15,11.19a1.37,1.37,0,0,1,0-.95,1.45,1.45,0,0,1,.74-.64.2.2,0,0,1,.13,0,.14.14,0,0,1,.08.1,1.43,1.43,0,0,1,0,1,1.39,1.39,0,0,1-.64.59,12.58,12.58,0,0,0-.8,3.46V16a9.06,9.06,0,0,1,.64-.75v0a6.35,6.35,0,0,1,.17-1.7,1.39,1.39,0,0,1,0-1,1.51,1.51,0,0,1,.74-.64.2.2,0,0,1,.13,0,.16.16,0,0,1,.08.1,1.39,1.39,0,0,1-.05,1,1.28,1.28,0,0,1-.63.59,6.45,6.45,0,0,0-.17,1.34,7.08,7.08,0,0,1,.79-.66c.61-.89.75-3.08.55-4.43a1.36,1.36,0,0,1-.49-.77,1.43,1.43,0,0,1,.2-1,.19.19,0,0,1,.11-.07.2.2,0,0,1,.13,0,1.69,1.69,0,0,1,.25.25c.1-.26.21-.49.3-.67a1.44,1.44,0,0,1-.08-.33h-.4a7.88,7.88,0,0,1-1.17-.09h0a5.94,5.94,0,0,0-1.12,2.84v2.68A14.92,14.92,0,0,1,15,11.19Z"/><path class="cls-1" d="M13.2,14.9A6.36,6.36,0,0,0,13,13.57,1.42,1.42,0,0,1,12.4,13a1.43,1.43,0,0,1-.05-1,.14.14,0,0,1,.08-.09.15.15,0,0,1,.13,0,1.42,1.42,0,0,1,.74.63,1.42,1.42,0,0,1,0,1,6.55,6.55,0,0,1,.18,1.7,0,0,0,0,1,0,0,7.77,7.77,0,0,1,.65.75V14.7a12.81,12.81,0,0,0-.81-3.46,1.39,1.39,0,0,1-.63-.58,1.42,1.42,0,0,1-.05-1,.16.16,0,0,1,.08-.1.15.15,0,0,1,.13,0,1.37,1.37,0,0,1,.74.63,1.39,1.39,0,0,1,0,1,15.54,15.54,0,0,1,.49,1.55V10.05A6,6,0,0,0,13,7.21h0a6.6,6.6,0,0,1-1.17.1h-.39a2.68,2.68,0,0,1-.08.33,6.36,6.36,0,0,1,.29.66,1.66,1.66,0,0,1,.26-.24A.17.17,0,0,1,12,8a.18.18,0,0,1,.11.08,1.43,1.43,0,0,1,.21,1,1.46,1.46,0,0,1-.5.77c-.2,1.34-.06,3.53.56,4.42Q12.83,14.56,13.2,14.9Z"/><path class="cls-1" d="M26.25,12.53a1.4,1.4,0,0,0-.85-.47,1.39,1.39,0,0,0-.8.21c-.32,0-.86-.07-1.54-.07a5.75,5.75,0,0,1,.63-.6l.18-.14,1.76-1.69s.09-.15-.15-.15-.95.33-2,1.74l-.85.85c-.38,0-.79,0-1.22.09l1.68-1.79a.71.71,0,0,1,.36-.17l.19-.05a2.41,2.41,0,0,0,.57-.49L24.86,9s0,0,0,0l-.8.79s-.05.06-.08,0,0-.07,0-.07l.78-.84s0,0,0,0l-.81.77c-.05.06-.08.05-.08.05s0-.08,0-.08l.8-.81s0,0,0,0l-.85.78s0,0-.06,0,0-.07,0-.07l.82-.81s0,0,0,0l-1,.82a1,1,0,0,0-.36.49.81.81,0,0,1-.19.42,23.42,23.42,0,0,1-2.14,2,10.88,10.88,0,0,0-1.71.41l-.31.1a1.25,1.25,0,0,0,.2-.65,1.52,1.52,0,0,0-.38-.9.18.18,0,0,0-.12-.05h0a.18.18,0,0,0-.12.05,1.52,1.52,0,0,0-.38.9,1.44,1.44,0,0,0,.33.84,9.93,9.93,0,0,0-1.52.79,7.42,7.42,0,0,0,.38-1.94c0-.18,0-.36,0-.53a6.31,6.31,0,0,0,1.23-.58l0,0h0a4.31,4.31,0,0,0,1,.18,1.48,1.48,0,0,0,.75.23h.18a1.48,1.48,0,0,0,.82-.54.24.24,0,0,0,0-.12.26.26,0,0,0-.07-.11,1.5,1.5,0,0,0-1-.23,1.46,1.46,0,0,0-.75.45,4.54,4.54,0,0,1-.74-.11,10.67,10.67,0,0,0,1.3-1.06l.08-.07h.27a3.23,3.23,0,0,0,2.17-.76h0a1.41,1.41,0,0,0,.81-.25A1.51,1.51,0,0,0,24,7.61a.24.24,0,0,0,0-.12.19.19,0,0,0-.12-.07,1.45,1.45,0,0,0-.94.24,1.4,1.4,0,0,0-.47.82,3.91,3.91,0,0,1-.65.4,3,3,0,0,1-1.24.26A4.8,4.8,0,0,0,21.6,7.58s0,0,0,0a1.43,1.43,0,0,0,.69-.66,1.38,1.38,0,0,0,0-1,.13.13,0,0,0-.09-.1.17.17,0,0,0-.12,0,1.44,1.44,0,0,0-.71.67,1.37,1.37,0,0,0,0,.92.14.14,0,0,0-.07.1,5.93,5.93,0,0,1-1.4,1.79,9.07,9.07,0,0,1-1.58,1.23,3.13,3.13,0,0,1,.8-1.85,1.44,1.44,0,0,0,.79-.47,1.45,1.45,0,0,0,.24-.94.14.14,0,0,0-.07-.11.17.17,0,0,0-.12,0,1.51,1.51,0,0,0-.85.48,1.44,1.44,0,0,0-.25.87A3.55,3.55,0,0,0,18,10.72a6,6,0,0,1-.73.33,12.05,12.05,0,0,0-.09-1.29,1.33,1.33,0,0,0,.16-.88.48.48,0,0,0-.05-.17l.11-.38a5.67,5.67,0,0,1,.24-.53,1.48,1.48,0,0,0,.59-.61l.28-.07a5.22,5.22,0,0,0,1.69-.76h0A1.46,1.46,0,0,0,21,5.84a1.47,1.47,0,0,0,.2-1,.21.21,0,0,0-.07-.11.19.19,0,0,0-.13,0,1.49,1.49,0,0,0-.83.52,1.36,1.36,0,0,0-.2.83,5.37,5.37,0,0,1-1.57.71l-.11,0a1.55,1.55,0,0,0-.12-.7.12.12,0,0,0-.09-.08.15.15,0,0,0-.13,0,1.41,1.41,0,0,0-.66.72.87.87,0,0,0-.05.22,6.63,6.63,0,0,1-1.4-.06c.18-.27.37-.54.58-.83l.18-.23h.32a3.94,3.94,0,0,0,1.86-.41,1.35,1.35,0,0,0,.78-.39,1.47,1.47,0,0,0,.32-.92A.23.23,0,0,0,19.81,4a.17.17,0,0,0-.12,0,1.43,1.43,0,0,0-.89.41,1.41,1.41,0,0,0-.31.83,3.81,3.81,0,0,1-1.66.31,23,23,0,0,1,1.51-1.76.17.17,0,0,0,0-.24.16.16,0,0,0-.23,0,27.24,27.24,0,0,0-2,2.34L16,6.15a9.76,9.76,0,0,1,0-1.43A1.4,1.4,0,0,0,16.48,4a1.42,1.42,0,0,0-.16-1,.16.16,0,0,0-.1-.08.15.15,0,0,0-.13,0,1.4,1.4,0,0,0-.59.77,1.45,1.45,0,0,0,.15,1l0,0a8,8,0,0,0,0,1.77v0A14.51,14.51,0,0,0,14.8,8c-.11.22-.21.43-.29.64v-4a1.44,1.44,0,0,0,.33-.85,1.22,1.22,0,0,0-.08-.43,1.64,1.64,0,0,0-.31-.49.17.17,0,0,0-.12-.05.18.18,0,0,0-.12.05,1.52,1.52,0,0,0-.38.9,1.22,1.22,0,0,0,.09.43,1.4,1.4,0,0,0,.25.42v4c-.09-.2-.18-.41-.3-.64A14.51,14.51,0,0,0,13,6.53v0a9.4,9.4,0,0,0,0-1.77v0a1.4,1.4,0,0,0,.15-1A1.49,1.49,0,0,0,12.58,3a.19.19,0,0,0-.13,0,.2.2,0,0,0-.1.08,1.48,1.48,0,0,0-.15,1,1.36,1.36,0,0,0,.47.68,8.56,8.56,0,0,1,0,1.43l-.17-.24a28.41,28.41,0,0,0-2-2.34.16.16,0,1,0-.23.22s.7.75,1.5,1.76a4,4,0,0,1-1.48-.23l-.18-.07a1.43,1.43,0,0,0-.31-.84A1.54,1.54,0,0,0,9,4a.18.18,0,0,0-.12,0,.16.16,0,0,0,0,.11,1.44,1.44,0,0,0,.31.93,1.41,1.41,0,0,0,.79.39,4,4,0,0,0,1.86.4h.32l.17.24c.21.28.41.56.58.82A6.55,6.55,0,0,1,11.45,7a1.89,1.89,0,0,0,0-.23h0A1.46,1.46,0,0,0,10.73,6a.19.19,0,0,0-.13,0,.2.2,0,0,0-.09.09,1.51,1.51,0,0,0-.12.7l-.11,0a4.75,4.75,0,0,1-1.56-.71,1.41,1.41,0,0,0-.21-.83,1.42,1.42,0,0,0-.83-.51.13.13,0,0,0-.12,0,.12.12,0,0,0-.07.1,1.4,1.4,0,0,0,.19,1,1.53,1.53,0,0,0,.83.52h0a5.07,5.07,0,0,0,1.68.76l.28.07a1.55,1.55,0,0,0,.59.61c.07.14.16.32.24.52l.11.38a1.21,1.21,0,0,0-.05.18,1.4,1.4,0,0,0,.17.88A8.38,8.38,0,0,0,11.45,11a4.91,4.91,0,0,1-.74-.33,3.49,3.49,0,0,0-.89-2.25,1.42,1.42,0,0,0-.25-.87,1.42,1.42,0,0,0-.85-.48.17.17,0,0,0-.12,0,.14.14,0,0,0-.06.11,1.4,1.4,0,0,0,.24.95,1.33,1.33,0,0,0,.78.46,3.14,3.14,0,0,1,.8,1.86A10,10,0,0,1,8.78,9.27a5.73,5.73,0,0,1-1.39-1.8.22.22,0,0,0-.07-.09,1.43,1.43,0,0,0,0-.92,1.48,1.48,0,0,0-.71-.67.15.15,0,0,0-.13,0,.2.2,0,0,0-.09.09,1.47,1.47,0,0,0,0,1,1.43,1.43,0,0,0,.69.66.06.06,0,0,0,0,0A4.69,4.69,0,0,0,8.16,9.11a2.89,2.89,0,0,1-1.24-.25,3.82,3.82,0,0,1-.64-.4,1.5,1.5,0,0,0-.47-.82,1.48,1.48,0,0,0-.95-.24.17.17,0,0,0-.11.06.15.15,0,0,0,0,.13,1.4,1.4,0,0,0,.47.85A1.39,1.39,0,0,0,6,8.68H6a3.26,3.26,0,0,0,2.18.76h.26l.08.08a10.05,10.05,0,0,0,1.31,1.05,3.66,3.66,0,0,1-.75.12,1.34,1.34,0,0,0-.75-.45,1.44,1.44,0,0,0-.94.23.12.12,0,0,0-.07.11.14.14,0,0,0,0,.12,1.39,1.39,0,0,0,.81.53l.18,0A1.54,1.54,0,0,0,9.12,11a4.86,4.86,0,0,0,1-.19h0l0,0a6.56,6.56,0,0,0,1.23.57c0,.18,0,.36,0,.54a7.44,7.44,0,0,0,.37,1.94,9.53,9.53,0,0,0-1.52-.8,1.34,1.34,0,0,0,.34-.83,1.41,1.41,0,0,0-.39-.9.17.17,0,0,0-.12-.05.16.16,0,0,0-.11.05,1.41,1.41,0,0,0-.39.9,1.25,1.25,0,0,0,.2.65l-.3-.11a12.26,12.26,0,0,0-1.7-.4,12.18,12.18,0,0,0-1.34-2h0A1.51,1.51,0,0,0,6,9.53a1.38,1.38,0,0,0-1-.14.26.26,0,0,0-.11.07.15.15,0,0,0,0,.13,1.41,1.41,0,0,0,.56.8,1.32,1.32,0,0,0,.66.17h.18A10.76,10.76,0,0,1,7.45,12.3c-.48-.06-.94-.1-1.36-.11a.18.18,0,0,0,0-.07l-.46-.38c-.23-.2-.49-.42-.73-.61h0a1.42,1.42,0,0,0-.5-.84,1.38,1.38,0,0,0-.95-.21.14.14,0,0,0-.11.06.16.16,0,0,0,0,.13,1.42,1.42,0,0,0,.5.84,1.32,1.32,0,0,0,.77.22h0c.27.2.56.45.81.67l.22.19a13.93,13.93,0,0,0-1.52.06,1.35,1.35,0,0,0-.8-.2h0a1.41,1.41,0,0,0-.85.46.2.2,0,0,0,0,.13.24.24,0,0,0,.06.11,1.55,1.55,0,0,0,.83.3h.1a1.48,1.48,0,0,0,.86-.47h0a14.8,14.8,0,0,1,2.31,0,11.67,11.67,0,0,1,2.91.54,9.46,9.46,0,0,1,2.62,1.31l.11.09s0,0,.05,0a8.91,8.91,0,0,1,1.94,2v2.12a.09.09,0,0,0,0,.05v.71a.17.17,0,0,0,.16.17.18.18,0,0,0,.17-.17V16.56a8.62,8.62,0,0,1,1.93-2,.1.1,0,0,0,0,0l.12-.09a9.83,9.83,0,0,1,2.61-1.31,12.64,12.64,0,0,1,2.92-.54,16,16,0,0,1,2.3,0h0a1.4,1.4,0,0,0,.85.47h.1a1.41,1.41,0,0,0,.83-.31.11.11,0,0,0,.06-.11A.14.14,0,0,0,26.25,12.53ZM15.63,7.23h0a7.88,7.88,0,0,0,1.17.09h.4a1.44,1.44,0,0,0,.08.33c-.09.18-.2.41-.3.67a1.69,1.69,0,0,0-.25-.25.2.2,0,0,0-.13,0,.19.19,0,0,0-.11.07,1.43,1.43,0,0,0-.2,1,1.36,1.36,0,0,0,.49.77c.2,1.35.06,3.54-.55,4.43a7.08,7.08,0,0,0-.79.66,6.45,6.45,0,0,1,.17-1.34,1.28,1.28,0,0,0,.63-.59,1.39,1.39,0,0,0,.05-1,.16.16,0,0,0-.08-.1.2.2,0,0,0-.13,0,1.51,1.51,0,0,0-.74.64,1.39,1.39,0,0,0,0,1,6.35,6.35,0,0,0-.17,1.7v0a9.06,9.06,0,0,0-.64.75V14.73a12.58,12.58,0,0,1,.8-3.46,1.39,1.39,0,0,0,.64-.59,1.43,1.43,0,0,0,0-1,.14.14,0,0,0-.08-.1.2.2,0,0,0-.13,0,1.45,1.45,0,0,0-.74.64,1.37,1.37,0,0,0,0,.95,14.92,14.92,0,0,0-.48,1.56V10.07A5.94,5.94,0,0,1,15.63,7.23ZM11.86,9.82a1.46,1.46,0,0,0,.5-.77,1.43,1.43,0,0,0-.21-1A.18.18,0,0,0,12,8a.17.17,0,0,0-.12,0,1.66,1.66,0,0,0-.26.24,6.36,6.36,0,0,0-.29-.66,2.68,2.68,0,0,0,.08-.33h.39A6.6,6.6,0,0,0,13,7.21h0a6,6,0,0,1,1.13,2.84v2.67a15.54,15.54,0,0,0-.49-1.55,1.39,1.39,0,0,0,0-1,1.37,1.37,0,0,0-.74-.63.15.15,0,0,0-.13,0,.16.16,0,0,0-.08.1,1.42,1.42,0,0,0,.05,1,1.39,1.39,0,0,0,.63.58,12.81,12.81,0,0,1,.81,3.46V16a7.77,7.77,0,0,0-.65-.75,0,0,0,0,0,0,0,6.55,6.55,0,0,0-.18-1.7,1.42,1.42,0,0,0,0-1,1.42,1.42,0,0,0-.74-.63.15.15,0,0,0-.13,0,.14.14,0,0,0-.08.09,1.43,1.43,0,0,0,.05,1,1.42,1.42,0,0,0,.63.59,6.36,6.36,0,0,1,.17,1.33q-.37-.35-.78-.66C11.8,13.35,11.66,11.16,11.86,9.82Z"/></svg>