<svg id="图层_1" data-name="图层 1" xmlns="http://www.w3.org/2000/svg" width="442.86" height="324.17" viewBox="0 0 442.86 324.17"><defs><style>.cls-1{fill:#fff;}.cls-2{fill:none;stroke:#fff;stroke-miterlimit:10;stroke-width:2.89px;}.cls-3{fill:#bcaf6b;}</style></defs><path class="cls-1" d="M-65.65,143.28c-.59-.25-.72-.66-.23-1.07a2.24,2.24,0,0,1,1.43-.49c.83,0,3.16.26,3.16,1.34a32.23,32.23,0,0,1-.75,3.78,1.23,1.23,0,0,0,1.52.88c.7-.13,1.2-.5,1.87-.56s1.14.16,1.19.76a1.23,1.23,0,0,1-.79,1.26,28.26,28.26,0,0,1-4.37,1.72c-.12,1.29-.19,2.77-.19,4.47v.84A18.37,18.37,0,0,1-54,153.66c3.36,0,5.71,1.92,5.71,4.48,0,3-2,6-6.52,6-3.27,0-5.66-3-4.16-6.84.35-.9,1.33-.79,1.19.16-.3,2.06-.17,4.39,2.94,4.39,2.67,0,4.32-1.66,4.32-3.71,0-1.84-1.51-3-4.17-3s-5.37,1.41-8.11,3.18c.07,2.37.21,4.23.21,5a4.89,4.89,0,0,1-.41,2.49,1.76,1.76,0,0,1-1.42,1.07c-.61,0-1.06-.84-1.57-1.41a13.66,13.66,0,0,0-3-2.4c-.58.54-1.17,1.07-1.56,1.07a2,2,0,0,1-1.74-1.83c0-.8.3-1,.8-1.14a7,7,0,0,0,2.2-.9c1.59-1,3.18-2.06,4.72-3v-1.76c0-1.21.06-2.63.14-4.05a15.34,15.34,0,0,1-2.3.41c-2,.17-2.5.12-3.37-.28a4.55,4.55,0,0,1-2.38-3.27h0c-.06-.74.36-1,1-.45,1.4,1.17,2.44,2,4.36,2a14.52,14.52,0,0,0,2.77-.52c.12-1.93.25-3.63.25-4.48s-.56-1-1.66-1.49Zm1,19.61a30.33,30.33,0,0,0,.14-3.44,41.61,41.61,0,0,0-3.39,2.6,23.59,23.59,0,0,0,2.31,1.16C-65,163.44-64.72,163.44-64.64,162.89Zm10.38-14.58a8,8,0,0,1,7.76.22c.84.58,1.29,1.22,1.06,2a1.27,1.27,0,0,1-2.15.61,7.56,7.56,0,0,0-6.48-1.86C-54.77,149.38-54.93,148.63-54.26,148.31Z" transform="translate(113.38 -1.14)"/><path class="cls-1" d="M-26.58,151.48a3.51,3.51,0,0,0-.79,1.82,2.2,2.2,0,0,0,.86,1.64c1.89,1.86,5.55,5.32,6.82,7.64a5.92,5.92,0,0,1,1,3,1.56,1.56,0,0,1-1.52,1.68c-.86,0-1.36-.86-2.07-2.65a28.89,28.89,0,0,0-5.63-8.38,4.08,4.08,0,0,1-1.44-2.66c0-1,.59-2.23,2.09-4.21,2.27-3,4.44-5.6,4.44-6.81,0-.7-.42-.94-.85-1.55s-.06-.87.54-.79a5.53,5.53,0,0,1,3.37,1.82c.46.58.44,1.05-.28,2.1-1.31,1.92-4.68,4.84-6.51,7.32Z" transform="translate(113.38 -1.14)"/><path class="cls-1" d="M11.85,143.53a14,14,0,0,1-1,3.15,16.6,16.6,0,0,0-1.09,4.19c0,.68.26.68.49,0,1.13-3.11,2.64-6.06,5.17-6s5.5,2.6,5.5,8.09c0,7.69-4.25,12.73-12.61,14.38-1.4.28-1.69-.89-.37-1.34,7.31-2.48,10.34-6.22,10.34-13.06,0-3.87-1.24-6.31-3.19-6.31-2.28,0-4.12,5.2-4.12,8.26,0,1.5.46,2.6.46,3.36s-.27,1.22-.84,1.35a1.51,1.51,0,0,1-1.51-.67,9.82,9.82,0,0,1-1.19-4.8c-.05-3.16,1-7.77,1.2-9.54a5.59,5.59,0,0,0-1-3.78c-.26-.51,0-.86.64-.74A3.88,3.88,0,0,1,11.85,143.53Z" transform="translate(113.38 -1.14)"/><path class="cls-1" d="M46.71,141.51c-.47-.33-.37-.83.16-.93a4,4,0,0,1,1.68,0,3.72,3.72,0,0,1,2.69,3c0,1-1.34,4.2-2.18,7.24a41.33,41.33,0,0,0-1.12,6c.62.08,1.19.13,1.72.21,1.21.19,1.81.58,1.81,1.25,0,1-1.1,1.5-3.74,1.2q0,.72,0,1.47c0,2.48,1.18,3.78,3.64,3.78,2.93,0,4.75-1.75,4.75-4.56s-2-5.56-5.23-7.66c-.81-.52-.26-1.51.66-1.11,4.28,1.86,7.11,5.55,7.11,9.16,0,3.78-2.93,6.45-7,6.45-3.63,0-5.74-2.33-5.74-6.39,0-.45,0-.94,0-1.45-2.73-.73-4.94-2.56-4.94-4.41,0-1.31.9-2.39,1.77-3.44,1-1.21,1.51-1.77,1.07-2.52a7.46,7.46,0,0,0-2.1-1.88c-.66-.45-.38-1.11.39-1h0c1.93.28,4.18,1.33,4.64,3a1.38,1.38,0,0,1-.74,1.76,19.06,19.06,0,0,0-1.68,1.1,3.87,3.87,0,0,0-1.84,2.59c0,.78,1.32,1.56,3.69,2.15.3-2.44.77-5.15,1.18-7.49s.75-4.2.81-5.19-.48-1.52-1.52-2.27Z" transform="translate(113.38 -1.14)"/><path class="cls-1" d="M87.1,165.86c-1.33.22-1.6-.73-.4-1.1,7.11-2.18,9.18-6.42,9.18-10.87,0-5.43-3.6-8.28-8.19-8.6,1.12,3.73-.15,8.12-2.3,12-2,3.56-4.26,5.64-6.14,5.64-2.17,0-4.84-3.28-4.84-7.18,0-6.63,5.51-12.14,12.9-12.14,6.47,0,11.34,4.31,11.34,10.14,0,6.2-3.74,10.79-11.55,12.11Zm-7.72-5.92c1,0,2.48-1.38,4-3.85,2.1-3.38,3.58-7.34,2.7-10.81A10,10,0,0,0,76.62,155C76.62,157.64,78,159.94,79.38,159.94Z" transform="translate(113.38 -1.14)"/><path class="cls-1" d="M121.87,151.37c1.26.26,2.3,1.14,2.3,1.75s-.25,1.09-1.09,2a32.28,32.28,0,0,1-12,9c-1,.43-1.46-.66-.71-1.11a34.13,34.13,0,0,0,10.46-9.22c.46-.71.46-1,.15-1.51C120.6,151.63,121,151.18,121.87,151.37Zm3.21,11.19c.63,0,.92-.16.92-.82,0-1.46-.18-8.16-.21-11.26-3,.38-6.36,1.13-8.19,1.55a14,14,0,0,1-2.95.61c-1.28,0-2.75-1.69-2.92-3.21-.06-.58.45-.78.9-.51a5.33,5.33,0,0,0,2.66,1c1.49,0,6.63-.69,10.5-1.2,0-1.47,0-3.09,0-3.93-.06-.59-.28-.81-1-1.1s-1.2-.53-1.2-.82c0-.54,1-1,1.91-1,1.36,0,3.36.61,3.36,1.43,0,1.06-.62,1.86-.86,5.1l1-.12c1.6-.19,2.44-.63,3-.63,1.48,0,3.35.92,3.35,1.94,0,.72-.43,1-1.15,1s-3-.36-4.78-.36c-.51,0-1,0-1.53.05-.07,3,0,7.14.16,9.35.08,1.43.35,2.87.35,3.76a3.09,3.09,0,0,1-2.55,2.85c-1,0-.86-1.31-3.28-3-.54-.36-.33-1.05.42-.94A17.54,17.54,0,0,0,125.08,162.56Z" transform="translate(113.38 -1.14)"/><path class="cls-1" d="M153,147.41c1.9,0,7.57-.64,10.35-1.06,1.22-.19,1.75-.9,2.32-.9,1.19,0,3.53,1.76,3.53,2.73,0,.76-1.26,1.3-2,2.56a32.8,32.8,0,0,1-16.89,14.85c-1,.44-1.47-.71-.61-1.2,7.63-4.29,12.87-9.94,15.21-15.6.29-.72,0-.81-.65-.75a75,75,0,0,0-8,1.52,16.11,16.11,0,0,1-3.61.77c-1.09,0-2.76-1.57-3.11-3.18-.18-.8.3-1.11,1-.7a4.61,4.61,0,0,0,2.43,1Zm18.4-7.83A3.37,3.37,0,1,1,168,143a3.37,3.37,0,0,1,3.43-3.37Zm0,5.61a2.24,2.24,0,0,0,2.24-2.24,2.28,2.28,0,0,0-2.27-2.25,2.24,2.24,0,0,0-2.24,2.25,2.2,2.2,0,0,0,2.24,2.24Z" transform="translate(113.38 -1.14)"/><path class="cls-1" d="M185.66,150.14c2.58-.09,5.9,1.31,5.92,3.65a1.24,1.24,0,0,1-1.27,1.38c-.63,0-1-.44-1.58-1.07a22.78,22.78,0,0,0-3.43-2.87C184.69,150.78,184.88,150.17,185.66,150.14Zm21.91-2.88a.69.69,0,0,1,1.16.76c-3.49,5.71-9.66,11.53-15.77,15.71a6.2,6.2,0,0,1-3,1.43,4.73,4.73,0,0,1-3.89-3.42.69.69,0,0,1,1-.81c.65.36,1.21.81,1.81,1.08a2.59,2.59,0,0,0,2.53-.34c5.11-2.84,12.1-9.1,16.17-14.42Zm-17.39-1.66c-.62-.43-.46-1.06.32-1.1,2.49-.12,6,1.12,6.08,3.46a1.27,1.27,0,0,1-1.25,1.42c-.64,0-1-.4-1.62-1a21.73,21.73,0,0,0-3.53-2.76Z" transform="translate(113.38 -1.14)"/><path class="cls-1" d="M227.92,152.57c1.18,0,6.07-.45,7.44-.63,1-.13,1.38-.52,1.93-.52,1,0,3,1.32,3,2.06s-1,1.57-1.14,2.4c-.24,1.2-.68,4.65-.94,6.73a1.47,1.47,0,0,1,1,1.18.83.83,0,0,1-.9.93c-.25,0-1.87-.22-2.38-.25a38.94,38.94,0,0,0-5.9.47,17,17,0,0,1-2.49.46,2.71,2.71,0,0,1-2.13-2.3c-.09-.68.43-.94,1-.55h0a2.46,2.46,0,0,0,1.64.59c.82,0,5.67-.54,8-.73.13-1.17.25-2.5.37-3.77a2.94,2.94,0,0,1-.77.17c-.82.07-4.23.41-5.74.66a15.36,15.36,0,0,1-1.75.3,2.41,2.41,0,0,1-2-2.16c-.07-.56.39-.82.94-.5a2.29,2.29,0,0,0,1.38.44c1.2,0,5.37-.58,6.52-.74a2.44,2.44,0,0,1,1.59.31c.1-1.2.18-2.28.23-3,0-.35-.08-.41-.43-.39-.9,0-5.11.42-6.47.66-.53.1-2,.56-2.47.56a2.64,2.64,0,0,1-2.14-2.34c-.09-.57.35-.87.9-.62A4.15,4.15,0,0,0,227.92,152.57Z" transform="translate(113.38 -1.14)"/><path class="cls-1" d="M282.51,147.89c-3.66,5.35-10.25,11-16.1,14.61-1.11.68-2.15,1.5-3.14,1.5a4.9,4.9,0,0,1-3.94-3.63.7.7,0,0,1,1-.81c.61.32,1.17.78,1.78,1.07a3.2,3.2,0,0,0,2.81-.32,66.6,66.6,0,0,0,16.58-13.23A.65.65,0,1,1,282.51,147.89ZM261,145.75c3.24.38,6.94,1.85,6.94,4.14a1.5,1.5,0,0,1-1.52,1.62,1.88,1.88,0,0,1-1.33-.72,26.49,26.49,0,0,0-4.54-4c-.56-.43-.24-1.12.45-1Z" transform="translate(113.38 -1.14)"/><path class="cls-1" d="M-11.62,114.67c1.11,4.76,3.69,8,7.85,9,.64.16.51.49,0,.64a1.57,1.57,0,0,0-.93.64c-.24.34-.41.49-.94.28-3.36-1.34-5.48-4.63-6.47-9.12a12.26,12.26,0,0,1-1.22,3.77,11.72,11.72,0,0,1-7.7,5.64c-.57.17-.76-.45-.24-.66a12.24,12.24,0,0,0,6.56-5.39,13.76,13.76,0,0,0,1.34-4.8h-7.41c-.25,0-.43-.08-.43-.39s.18-.39.43-.39h7.47c.07-1,.07-1.79.07-2.43,0-.89-.09-2.1-.21-3,0-.19,0-.31.29-.31.64,0,2.33.23,2.33.62s-.23.47-.87.62c0,1.46,0,3-.16,4.53h4.94c.47-.68,1-1.47,1.4-1.47s1.89,1.28,1.89,1.78c0,.3-.35.47-1.13.47Z" transform="translate(113.38 -1.14)"/><path class="cls-1" d="M8.45,119.67c0,.77.08.91,1.33.91s1.53-.25,1.71-.68.21-.8.29-1,.45-.35.5,0a5.83,5.83,0,0,0,.16.87c.12.59.41.57.41,1s-.6,1.16-3,1.16-2.72-.52-2.72-1.88c0-.37,0-2.49,0-4.79l-2.52.51c-.26,0-.45,0-.51-.31s.1-.41.35-.47l2.68-.52c0-2.22,0-4.42-.11-5.21,0-.27,0-.37.33-.37,1.51,0,2.15.21,2.15.62s-.42.54-1,.64c0,.39,0,2.14,0,4l2-.39c.29-.74.66-1.56.95-1.62a3.16,3.16,0,0,1,2,1.36c.06.28-.33.53-.84.65L8.47,115ZM20,110.08c.27-.37.64-.75.82-.75.43,0,1.69.91,1.69,1.24s-.29.48-.66.68c.08,3.19,0,9.23-1.09,11.76a3,3,0,0,1-3.11,2.1c-.41,0-.62-.23-.88-.56a1.88,1.88,0,0,0-1-.64c-.27-.12-.34-.3-.31-.47s.18-.27.43-.25a13.66,13.66,0,0,0,2,.25,1.51,1.51,0,0,0,1.6-1.07c1-2.2,1.12-7.89.93-11.51H17.55a.36.36,0,0,1,.08.18c0,.21-.27.37-.72.46-.25,7.27-1.24,11.24-8.2,14-.59.23-.8-.43-.28-.7,6.07-3.15,7-6.59,6.87-14v0H11.8c-.25,0-.43-.08-.43-.39s.18-.39.43-.39Z" transform="translate(113.38 -1.14)"/><path class="cls-1" d="M33.35,122.17a.65.65,0,0,1-.66-.73,2,2,0,0,1,.5-1.22,25.6,25.6,0,0,0,3.5-6.48,9.63,9.63,0,0,1-2.45.15,2.08,2.08,0,0,1-1.6-1.29,1.82,1.82,0,0,1-.14-.75c0-.27.16-.35.41-.16a3.77,3.77,0,0,0,1.81.8,10.49,10.49,0,0,0,2.31,0,5.7,5.7,0,0,0,.13-1.75c-.08-.49-.3-.49-.87-.84a.29.29,0,0,1,0-.52,1.93,1.93,0,0,1,1-.31,2.69,2.69,0,0,1,1.12.2.59.59,0,0,1,.3.65,11.23,11.23,0,0,1-.26,1.28.51.51,0,0,0,.59.4c.35,0,.74-.39,1.14-.39s.63.15.63.49-.2.59-.56.84a7.8,7.8,0,0,1-2.44,1,33.59,33.59,0,0,1-3.41,7.85C34.07,121.91,33.76,122.17,33.35,122.17ZM45,123.88a7.35,7.35,0,0,0-2.23-1.68,2,2,0,0,1,0,.25A2.57,2.57,0,0,1,40,125c-1.78,0-2.95-.84-2.95-2.12s1.56-2.25,3.75-2.25l.51,0c-.06-.82-.12-1.7-.12-2.43a3.37,3.37,0,0,1,1.35-3.08c.4-.27,1.72-.92,1.89-1s.17-.24.07-.42c-.2-.35-.8-.55-1.24-.7s-.41-.63.2-.66a4.23,4.23,0,0,1,1.62.28,2.19,2.19,0,0,1,1.51,2,1,1,0,0,1-1,1,5.93,5.93,0,0,0-2-.15,1.75,1.75,0,0,0-1.37,1.9,21,21,0,0,0,.38,3.49c1.91.43,3.66,1.48,3.66,2.7a.61.61,0,0,1-.62.68,1,1,0,0,1-.66-.34Zm-5.66-.23c1.32,0,2-.55,2-1.48,0-.13,0-.27,0-.42a6.19,6.19,0,0,0-1.16-.1c-1.36,0-2.19.47-2.19,1.17C38,123.29,38.5,123.65,39.34,123.65Z" transform="translate(113.38 -1.14)"/><path class="cls-1" d="M72.87,120c-.38,0-1-.57-1.27-1a17.47,17.47,0,0,1-1.8-3.47c0,2.7-.26,4.87-1.2,6.44a5.38,5.38,0,0,1-5,2.7,3.88,3.88,0,0,1-4.16-3.94c-.07-3.61,2-6.06,3.11-7.5.34-.44.22-.53-.23-.35a6.18,6.18,0,0,1-1.9.49c-.81,0-1.35-.81-1.52-1.51h0c-.1-.41,0-.6.43-.41a3.43,3.43,0,0,0,1.44.42,8.21,8.21,0,0,0,3.27-.82,1.08,1.08,0,0,1,.56-.2c.73-.08,1.38.18,1.47.63s-.17.8-.79,1a3.44,3.44,0,0,0-1.87,1.26,10.21,10.21,0,0,0-2.66,6.58,2.57,2.57,0,0,0,2.76,2.82c3.6,0,5.44-3.08,5.44-9,0-.41,0-.79,0-1.12a9.53,9.53,0,0,1-.26-1.74c0-.74.23-1.15.66-1.15s.8.32.8,1a15.48,15.48,0,0,0,.09,2,8.39,8.39,0,0,0,2.6,4.77,1.86,1.86,0,0,1,.73,1.29c0,.5-.28.84-.7.84Z" transform="translate(113.38 -1.14)"/><path class="cls-1" d="M88.69,109.44c0-.27.47-.44.81-.44a3.18,3.18,0,0,1,1.78.38c.4.3.5.61.42,1.26a34.32,34.32,0,0,0-.76,4.26c0,.88.27,1.13,1,1.09.49,0,1.26-.56,2.09-.56s1.4.38,1.43.93-.66.81-1.78.9c-.5,0-1.41.13-2,.25a3.86,3.86,0,0,0-2.89,3.69c0,1.72,1.61,1.85,3.34,1.81,1.31,0,2.59-.41,3.11-.43.68,0,1.19.3,1.19.68s-.27.73-.87.95a9.19,9.19,0,0,1-3.06.41c-3.11.08-4.84-1-4.9-3s.9-3.51,2.95-4.82a2,2,0,0,1-.69-1.67c0-.89.15-3.18.15-4a1,1,0,0,0-.51-1c-.59-.35-.75-.42-.75-.67Z" transform="translate(113.38 -1.14)"/><path class="cls-1" d="M114,112.29A2,2,0,0,1,114,114c-.72,1.8-1.88,3.92-1.49,5.68.16.73.44.79.77.08.25-.51.6-1.33.87-2,.18-.48.68-.24.55.19a21.64,21.64,0,0,0-.82,3.68c0,1,.43,1.21.43,1.89,0,.35-.28.62-.77.62-1.06,0-2.16-2.37-2.16-4.59a22.09,22.09,0,0,1,1-5.37,3.08,3.08,0,0,0,0-2.12c-.19-.47-.35-.83-.47-1.08s.1-.52.43-.4A3.16,3.16,0,0,1,114,112.29Zm3.31,8.47a4.46,4.46,0,0,0,3.37,1,25.48,25.48,0,0,0,3.3-.33c.4,0,.75.22.75.62,0,1.06-1.93,1.34-3.62,1.34-2.48,0-3.73-.92-4.31-2.24-.23-.53.21-.69.51-.43Zm0-8.27c-.36-.39-.13-.77.34-.6a5.69,5.69,0,0,0,2.11.36,24.21,24.21,0,0,0,2.53-.34c1.12,0,1.48.46,1.48.76,0,.9-1.82,1.12-2.82,1.12A4.9,4.9,0,0,1,117.38,112.49Z" transform="translate(113.38 -1.14)"/><path class="cls-1" d="M139,109.44c.29-.41.68-.85.91-.85.39,0,1.54.87,1.54,1.3,0,.27-.37.47-.74.6-.08,2.2,0,9,.06,10.11,0,.6-.33.74-.86.74s-.56-.35-.56-.66v-.33H137.2v.56a.59.59,0,0,1-.49.62c.67.22,1.56.8,1.54,1.13s-.31.33-.84.27a6.74,6.74,0,0,1-2.56,2.63c-.43.29-.76,0-.49-.41a7.26,7.26,0,0,0,1.87-3.46s0-.08,0-.12a.49.49,0,0,1-.47-.56c0-2,.2-9.62-.08-12.05a.27.27,0,0,1,.28-.28,5,5,0,0,1,1.76.76Zm.41,3.31v-2.53h-2.16c0,.49,0,1.53-.06,2.53Zm-2.22,3.4h2.2l0-2.63h-2.22v2.63Zm2.16,3.42,0-2.64h-2.2l0,2.64Zm2,4.2a.79.79,0,0,1-.87.78c-.47,0-.61-.55-.86-1.17a9.56,9.56,0,0,0-.62-1.24c-.22-.41,0-.78.52-.55C140.54,122.16,141.4,123,141.34,123.77Zm8.88-12.5c.3-.39.67-.84.88-.84.39,0,1.5.86,1.5,1.29,0,.25-.35.42-.7.56,0,1.3,0,4.39,0,5s-.3.74-.8.74-.56-.35-.56-.66v-.12h-7.27v.24c0,.43-.28.6-.84.6a.46.46,0,0,1-.51-.52c0-1.33.12-5-.07-6.75a.23.23,0,0,1,.27-.25,5.14,5.14,0,0,1,1.57.66h4a.43.43,0,0,1,0-.43,7.83,7.83,0,0,0,1.07-2.58.28.28,0,0,1,.36-.26c.67.18,1.72.76,1.72,1.09s-.32.39-.9.37a6.23,6.23,0,0,1-1.69,1.81ZM149,118.83c.27-.37.62-.78.84-.78s1.47.82,1.47,1.25c0,.25-.31.41-.64.54,0,1.28,0,4.24,0,4.9s-.29.74-.81.74a.58.58,0,0,1-.59-.66v-.24h-4.64V125c0,.43-.29.63-.86.63-.33,0-.5-.2-.5-.55,0-1.3.11-4.84-.08-6.61a.23.23,0,0,1,.27-.25,4.31,4.31,0,0,1,1.57.66Zm-5.64-6.76c0,.35,0,1.16,0,1.8h3v-1.82h-2.88Zm0,4.45h3v-1.87h-3Zm.4-7.78c-.19-.41.06-.76.55-.52.89.4,1.79,1.09,1.67,1.94a.81.81,0,0,1-1,.74c-.47-.08-.58-.54-.78-1.07A7.36,7.36,0,0,0,143.69,108.74Zm5.6,12.54v-1.67h-4.55l-.11,0c0,.33,0,1.05,0,1.65Zm0,2.53,0-1.75h-4.68v0l0,1.73Zm-1.38-11.76a.65.65,0,0,1-.33.21v1.61h3.05v-1.82Zm2.69,4.47v-1.87h-3v1.87Z" transform="translate(113.38 -1.14)"/><path class="cls-1" d="M167,108.71a2.34,2.34,0,0,1,1.87,2.09,8.35,8.35,0,0,1-.6,1.91,10.11,10.11,0,0,0-.66,2.54c0,.41.16.41.3,0,.68-1.88,1.6-3.67,3.13-3.67s3.34,1.58,3.34,4.9c0,4.67-2.58,7.72-7.65,8.73-.85.16-1-.55-.22-.82,4.43-1.5,6.26-3.77,6.26-7.92,0-2.34-.75-3.82-1.93-3.82-1.38,0-2.5,3.15-2.5,5,0,.9.28,1.57.28,2s-.16.73-.51.81a.91.91,0,0,1-.91-.41,5.82,5.82,0,0,1-.72-2.9,43.86,43.86,0,0,1,.73-5.78,3.48,3.48,0,0,0-.59-2.3c-.16-.3,0-.52.38-.44Z" transform="translate(113.38 -1.14)"/><path class="cls-1" d="M192.65,109.32c.67,0,1.58.5,1.65,1a7.76,7.76,0,0,1-.4,1.9c.49.5,1.21-.44,1.89-.46s.86.7.32,1.21a8,8,0,0,1-2.67,1.26,60,60,0,0,1-2.67,9c-.32.75-.78,1-1.15,1a.81.81,0,0,1-.82-.68c0-.7.61-1.44,1.08-2.35a27.33,27.33,0,0,0,2.36-6.59,9,9,0,0,1-2.18.34,1.83,1.83,0,0,1-1.58-1,2.74,2.74,0,0,1-.32-.78.27.27,0,0,1,.42-.29,3.51,3.51,0,0,0,1.64.68,10.35,10.35,0,0,0,2.25-.23,13.09,13.09,0,0,0,.21-2.07c0-.47-.52-.68-1-1a.24.24,0,0,1,0-.4,1.42,1.42,0,0,1,1-.44Zm5.77,13.55a22,22,0,0,0,3.55,0c.54,0,.84.34.83.76,0,1-2.5,1-4,.83-2.9-.34-3.74-1.8-3.49-3.71.1-.72.76-.66.82-.09C196.21,121.76,196.69,122.62,198.42,122.87ZM203,115c0,.63-.31.93-1.21.89a8.4,8.4,0,0,0-2.19.61c-.44.13-.57-.31-.3-.51s.8-.55,1.09-.79.34-.52-.1-.8a3.9,3.9,0,0,0-2.13-.29c-.56,0-.62-.49-.18-.67C200.19,112.58,202.9,113.48,203,115Z" transform="translate(113.38 -1.14)"/><path class="cls-1" d="M220.21,119c.29-.52.84-.35.71.24-.08.35-.39,1.24-.46,1.66a2.62,2.62,0,0,0,0,1.15c.19.69,0,1-.84,1-1.72,0-3.52-2-3.87-4.2a22.32,22.32,0,0,1-.07-3.93,3.24,3.24,0,0,0-.94-2.4c-.45-.57-.13-.93.53-.65,1.57.67,2,1.65,2,2.53s-.56,2.44-.32,4.14c.18,1.18,1,2.38,1.7,2.38a.9.9,0,0,0,.69-.51c.17-.26.64-1.12.83-1.44Zm5.52-5.22a5.14,5.14,0,0,1,3.81,4.78c0,.8-.44,1.33-1,1.32s-.69-.28-.8-1.28a5.18,5.18,0,0,0-2.33-4C224.69,114.12,224.88,113.57,225.73,113.78Z" transform="translate(113.38 -1.14)"/><path class="cls-1" d="M-.88,207.62c1.17,5,3.88,8.39,8.24,9.45.68.16.54.51,0,.67a1.61,1.61,0,0,0-1,.68c-.25.34-.43.5-1,.28-3.53-1.41-5.76-4.86-6.8-9.57a12.78,12.78,0,0,1-1.28,4c-1.45,2.69-4.06,4.83-8.08,5.92-.59.18-.8-.47-.25-.7a12.77,12.77,0,0,0,6.88-5.65,14.33,14.33,0,0,0,1.41-5h-7.78c-.26,0-.44-.08-.44-.41s.18-.4.44-.4h7.84c.08-1,.08-1.88.08-2.55,0-.94-.1-2.21-.22-3.19,0-.2,0-.32.3-.32.68,0,2.45.24,2.45.65s-.24.49-.92.65c0,1.53,0,3.17-.16,4.76H4.1c.49-.72,1.1-1.55,1.47-1.55s2,1.34,2,1.87c0,.31-.37.49-1.18.49Z" transform="translate(113.38 -1.14)"/><path class="cls-1" d="M27.14,212.87c0,.81.09.95,1.39.95s1.61-.26,1.8-.71.22-.84.3-1.06c.13-.37.47-.37.53,0a6.81,6.81,0,0,0,.17.92c.12.61.43.59.43,1s-.64,1.22-3.19,1.22-2.85-.55-2.85-2c0-.38,0-2.61,0-5l-2.65.54c-.27,0-.47,0-.54-.33s.11-.43.37-.49l2.82-.55c0-2.33,0-4.63-.13-5.47,0-.29,0-.39.35-.39,1.59,0,2.27.23,2.27.66s-.45.57-1,.67c0,.41,0,2.24,0,4.24l2.12-.41c.3-.77.69-1.63,1-1.69a3.33,3.33,0,0,1,2.08,1.43c.06.29-.35.55-.88.67l-4.32.86Zm12.12-10.06c.29-.39.68-.8.86-.8.45,0,1.77,1,1.77,1.31s-.3.51-.69.71c.08,3.35,0,9.69-1.14,12.34a3.18,3.18,0,0,1-3.27,2.21c-.42,0-.65-.25-.91-.59a2.06,2.06,0,0,0-1.11-.68c-.28-.12-.36-.3-.32-.49s.18-.28.45-.26a13.54,13.54,0,0,0,2.1.26,1.57,1.57,0,0,0,1.67-1.12c1-2.3,1.18-8.28,1-12.08h-3a.43.43,0,0,1,.08.19c0,.22-.28.39-.75.49-.27,7.63-1.31,11.79-8.61,14.73-.61.24-.84-.45-.29-.74,6.37-3.3,7.39-6.91,7.21-14.65v0H30.65c-.26,0-.44-.08-.44-.4s.18-.41.44-.41Z" transform="translate(113.38 -1.14)"/><path class="cls-1" d="M60.23,215.5a.69.69,0,0,1-.7-.78,2,2,0,0,1,.53-1.27,26.89,26.89,0,0,0,3.67-6.81,10.2,10.2,0,0,1-2.57.17,2.19,2.19,0,0,1-1.68-1.36,2,2,0,0,1-.15-.79c0-.28.18-.36.44-.16a4,4,0,0,0,1.89.84,11,11,0,0,0,2.43,0,6,6,0,0,0,.14-1.83c-.09-.51-.32-.52-.92-.89a.3.3,0,0,1,0-.54,2,2,0,0,1,1.09-.32,2.66,2.66,0,0,1,1.18.21.6.6,0,0,1,.31.67,12.7,12.7,0,0,1-.27,1.35c.11.36.31.42.62.42s.78-.41,1.2-.41.65.16.65.51a1,1,0,0,1-.58.88,7.87,7.87,0,0,1-2.57,1,35.34,35.34,0,0,1-3.57,8.24C61,215.22,60.65,215.5,60.23,215.5Zm12.22,1.79a7.87,7.87,0,0,0-2.33-1.77v.26a2.7,2.7,0,0,1-2.94,2.68c-1.87,0-3.1-.89-3.1-2.23s1.65-2.36,3.94-2.36a4.87,4.87,0,0,1,.54,0c-.06-.86-.13-1.79-.13-2.55a3.55,3.55,0,0,1,1.42-3.23c.42-.29,1.81-1,2-1.09s.18-.25.08-.44a2.66,2.66,0,0,0-1.31-.74c-.52-.19-.43-.66.21-.69a4.51,4.51,0,0,1,1.71.3,2.31,2.31,0,0,1,1.58,2.11,1,1,0,0,1-1,1,6.17,6.17,0,0,0-2.1-.16,1.84,1.84,0,0,0-1.45,2,21.76,21.76,0,0,0,.4,3.65c2,.46,3.84,1.56,3.84,2.84a.63.63,0,0,1-.65.71,1,1,0,0,1-.69-.35Zm-5.94-.24c1.38,0,2.12-.58,2.12-1.55,0-.14,0-.29,0-.45a6.74,6.74,0,0,0-1.21-.1c-1.43,0-2.31.5-2.31,1.22C65.1,216.67,65.63,217.05,66.51,217.05Z" transform="translate(113.38 -1.14)"/><path class="cls-1" d="M100.94,204.54l0,.11a25.93,25.93,0,0,1,3.91-.78c.89,0,1.61.35,1.61.8s-.39.67-1.19.67a25.69,25.69,0,0,0-4.66.54,19.22,19.22,0,0,0-.51,2.47,10,10,0,0,1,2.64-.52,1.68,1.68,0,0,0-.33-.71c-.3-.41.18-.74.65-.4a1.91,1.91,0,0,1,.79,1.09c3.07.14,5.21,2.38,4.93,5.27-.31,3.24-3.4,5.15-8.38,5.41h0c-.69,0-.83-.67-.11-.81,4.1-.8,6.55-2.21,6.84-4.76a3.6,3.6,0,0,0-3.37-4.18,11.88,11.88,0,0,1-3.17,5.09q.12.43.27.93c.17.53-.08,1-.52,1s-.7-.29-.94-.87c-1.34,1-2.9,1.93-4.12,1.91s-1.72-1.48-1.06-3.19A9.73,9.73,0,0,1,99,208.81c.11-.81.26-1.73.38-2.59a12.34,12.34,0,0,1-2.89.61,2.25,2.25,0,0,1-1.92-2c0-.29.21-.39.45-.25a4.25,4.25,0,0,0,1.94.82,9.71,9.71,0,0,0,2.58-.4,15.78,15.78,0,0,0,.19-1.58c0-.35-.1-.44-.42-.63s-1-.39-1-.7.67-.48,1.2-.48c.78,0,1.9.5,1.9,1.1A11.56,11.56,0,0,1,100.94,204.54Zm-5.16,10.58c1,0,2.2-.86,3.22-1.65a14.41,14.41,0,0,1-.15-3.46,8.14,8.14,0,0,0-3.4,3.88C95.19,214.75,95.38,215.12,95.78,215.12Zm4.43-2.7a10.52,10.52,0,0,0,2.36-3.68,7.41,7.41,0,0,0-2.58.68A11.86,11.86,0,0,0,100.21,212.42Z" transform="translate(113.38 -1.14)"/><path class="cls-1" d="M135.76,217.77c-.85.14-1-.47-.26-.7,4.52-1.39,5.84-4.08,5.84-6.91a5.18,5.18,0,0,0-5.21-5.48c.71,2.37-.09,5.17-1.47,7.64-1.25,2.26-2.7,3.58-3.9,3.58-1.38,0-3.08-2.08-3.08-4.57a7.89,7.89,0,0,1,8.2-7.71c4.12,0,7.22,2.73,7.22,6.45,0,3.93-2.38,6.86-7.34,7.69ZM130.85,214c.65,0,1.57-.88,2.55-2.45,1.34-2.15,2.28-4.67,1.72-6.88a6.34,6.34,0,0,0-6,6.16C129.09,212.54,130,214,130.85,214Z" transform="translate(113.38 -1.14)"/><path class="cls-1" d="M170.31,203.71c.18,7.24,3.75,11.58,8.44,13.13.61.21.55.55,0,.72a1.42,1.42,0,0,0-.9.57.61.61,0,0,1-1,.22c-3.51-1.89-6.06-5.24-6.94-10.34a12.94,12.94,0,0,1-1.63,4.82,14.32,14.32,0,0,1-7.51,6c-.57.21-.8-.4-.31-.67A16,16,0,0,0,167,212.4a14.32,14.32,0,0,0,1.78-7.86c0-1-.09-1.87-.17-2.77,0-.21,0-.31.31-.31.67,0,2.65.33,2.65.84,0,.28-.35.63-1.24.77Z" transform="translate(113.38 -1.14)"/><path class="cls-1" d="M195,210.52c-.2-.45.07-.71.45-.6a4.06,4.06,0,0,0,1.11.31c.72,0,2.58-1.94,4-3.23a2.41,2.41,0,0,1,1.5-.83c.56,0,.92.17,1.66.83.4.35,2.12,2.13,3.22,3a19.33,19.33,0,0,0,5,2.84c.95.43,1.12.87,1.12,1.33s-.36.84-1,.78c-2-.19-4.66-2.36-6.38-4.15-1-1-2-2-2.76-2.84a.93.93,0,0,0-1.63,0c-.71.76-2.12,2.62-2.76,3.26s-.85.8-1.38.8a2.8,2.8,0,0,1-2.1-1.56Z" transform="translate(113.38 -1.14)"/><path class="cls-1" d="M-7.36,249.16c-.16-.79.56-1,.86-.36.89,2,2.77,2.47,5.1,2.47a35.07,35.07,0,0,0,4.45-.54c.58,0,1.13.21,1.13.68,0,.86-1.77,1.56-5.35,1.56-3.31,0-5.63-1.07-6.19-3.81Zm4.22-6.07c.38-.28,1-.71,1.27-.94s.31-.46-.17-.51a4.9,4.9,0,0,1-3.61-1.58c-.35-.48,0-1,.58-.62a5.14,5.14,0,0,0,2.75.81,25.41,25.41,0,0,0,2.85-.19c1.15,0,2.06.45,2.06,1s-.29.66-1.27.86a24,24,0,0,0-4,1.84C-3.32,244-3.59,243.42-3.14,243.09Z" transform="translate(113.38 -1.14)"/><path class="cls-1" d="M26.93,249.16c-.16-.79.56-1,.86-.36.88,2,2.76,2.47,5.09,2.47a35.58,35.58,0,0,0,4.46-.54c.58,0,1.13.21,1.13.68,0,.86-1.78,1.56-5.36,1.56-3.31,0-5.62-1.07-6.18-3.81Zm4.21-6.07c.38-.28,1-.71,1.27-.94s.31-.46-.16-.51a4.92,4.92,0,0,1-3.62-1.58c-.35-.48,0-1,.59-.62a5.13,5.13,0,0,0,2.74.81,25.23,25.23,0,0,0,2.85-.19c1.15,0,2.07.45,2.07,1s-.3.66-1.27.86a23.75,23.75,0,0,0-4,1.84C31,244,30.7,243.42,31.14,243.09Z" transform="translate(113.38 -1.14)"/><path class="cls-1" d="M64.37,246.14c-.11.14-.09.23.1.12A9,9,0,0,1,69,245c2.86,0,4.55,1.57,4.55,3.89,0,3.06-3.16,5-8.68,5.34-1.19.07-1.19-.63-.14-.81,3.88-.69,7-2,7-4.87,0-1.48-1-2.59-3.06-2.59a8.71,8.71,0,0,0-5.57,2.36c-.76.68-1.29,1.6-1.75,2s-1,.67-1.38.16c-.55-.7.22-1.7.94-2.42.46-.46.94-1,2.13-2.13,1-1,4.56-4.75,5-5.72.16-.34,0-.59-.41-.49s-1.48.95-2.67,1.47a2.94,2.94,0,0,1-1.14.35,2.1,2.1,0,0,1-1.76-1.88c0-.45.29-.49.53-.32a2.5,2.5,0,0,0,1.39.45,12.62,12.62,0,0,0,2.74-.88,4.35,4.35,0,0,1,1.49-.35c.69,0,2,.82,2,1.55,0,.49-.4.8-.81,1.17C68.45,242.11,65.29,245.06,64.37,246.14Z" transform="translate(113.38 -1.14)"/><path class="cls-1" d="M101.11,238.65l-.38.94c0,.49.39.51.8.28s.86-.58,1.2-.58h0a.55.55,0,0,1,.63.58c0,.35-.29.69-.81,1a13.79,13.79,0,0,1-2.89,1,35.44,35.44,0,0,1-2,3.44c-.1.16,0,.2.1.09a3.83,3.83,0,0,1,2.15-.8,1.74,1.74,0,0,1,1.92,1.33c1.27-2.37,3-3.68,4.72-3.68,2.78,0,3.32,2.86.8,3.85-1.94.77-3.89,1.35-5.36,2a1.16,1.16,0,0,0,0,.18c0,.93,0,2,0,2.39,0,.63-.29.92-.81.92s-.68-.33-.68-.92c0-.31,0-1.06.09-1.85-1,.67-2.06,1.61-2.06,2.65s1.09,1.28,2.82,1.28c1.43,0,3.12-.46,3.67-.46s.92.23.92.63-.31.74-.88.92a14.6,14.6,0,0,1-3.57.39c-2.67,0-4.24-.84-4.24-2.39,0-1.31,1.16-2.81,3.4-4.17,0-.27,0-.52,0-.73,0-1.16-.27-1.45-1-1.45-1,0-2.45,1.15-3.53,2.5-.57.72-1.1,1.5-1.62,1.5a.86.86,0,0,1-.73-1c0-.66,1.46-1.81,2-2.44a18.81,18.81,0,0,0,2.56-4,10.9,10.9,0,0,1-2.33,0A2.28,2.28,0,0,1,94.23,240c0-.36.28-.5.54-.26a3.9,3.9,0,0,0,1.7,1,7.69,7.69,0,0,0,2.46,0c.78-1.88.64-2.12-.24-2.6-.33-.18-.3-.5.06-.62a3.08,3.08,0,0,1,.91-.13,2.72,2.72,0,0,1,1.38.4C101.27,238,101.28,238.23,101.11,238.65Zm1.4,8c1-.42,2.45-1,3.87-1.71s1.32-1.84,0-1.84S103.38,244.83,102.51,246.68Z" transform="translate(113.38 -1.14)"/><path class="cls-1" d="M129,245.21c.29-.38.66-.81.88-.81.41,0,1.59.89,1.59,1.34,0,.29-.39.53-.75.68,0,1,0,3.22,0,4.49.73,1.08,1.61,1.55,3.63,1.77a63.9,63.9,0,0,0,10.22-.1c.59-.06.57.59.06.71s-.43.27-.59.57-.27.43-.72.45a51.23,51.23,0,0,1-9.61-.28,4.46,4.46,0,0,1-3.57-2.53h0c-.87.94-1.87,1.92-2.71,2.77-.28.63-.57.63-.84.29a4.71,4.71,0,0,1-.61-1.23c-.1-.28-.08-.38.27-.55a20.35,20.35,0,0,0,3.12-1.77c0-1.17,0-3.86,0-5h-2.82c-.26,0-.44-.08-.44-.41s.18-.41.44-.41Zm-1.36-7.06c-.33-.4-.11-.87.49-.69,1.32.41,2.55,1.25,2.61,2.31a.9.9,0,0,1-.86,1.06c-.57,0-.8-.55-1.22-1.25C128.37,239.07,128,238.58,127.66,238.15Zm5.57.37c-.27,0-.45-.08-.45-.41s.18-.4.45-.4h3.65c.34-.47.81-1,1.1-1,.45,0,1.65,1,1.65,1.44s-.47.51-1,.68c.29,4.91,1.76,8.2,5.82,10.42.44.25.42.47,0,.68a2.35,2.35,0,0,0-.86.57c-.23.26-.45.3-.8.06a12.25,12.25,0,0,1-4.69-7.67h-.18a12.82,12.82,0,0,1-6.06,7.85c-.55.33-.92-.2-.41-.61a12.75,12.75,0,0,0,5.08-8.41c0-.24.14-.3.35-.26a4.61,4.61,0,0,1,1,.3,21.87,21.87,0,0,1-.29-3.2Z" transform="translate(113.38 -1.14)"/><path class="cls-1" d="M171.73,242.54a22.53,22.53,0,0,1-2.09,4.73,2,2,0,0,0,.42,1.16.72.72,0,0,1,.17.87c-.38.47-1.16.29-1.85-.16-.85,1.09-2.45,2.68-3.87,2.68s-1.95-2-1.79-3.76a6.8,6.8,0,0,1,2.35-4.18,19.86,19.86,0,0,0-.87-2,4.08,4.08,0,0,0-1-1c-.32-.27-.15-.65.29-.57h0a5,5,0,0,1,1.42.44,2,2,0,0,1,1.14,1.47c.08.32.14.6.21.86a9.33,9.33,0,0,1,4.34-1.46,8.44,8.44,0,0,0,.2-1.64c0-.46-.9-.85-1.22-1.06s-.23-.41,0-.53a1.69,1.69,0,0,1,.9-.19c.85,0,2,.62,2,1.13a16.6,16.6,0,0,1-.43,2.29c3.08.3,5.34,2.46,5.34,5.46,0,1.81-.84,5.84-8.45,6.61a.37.37,0,1,1-.09-.73c6.11-1.34,6.81-4.2,6.81-6.06A4.07,4.07,0,0,0,171.73,242.54Zm-7,7.61a4.31,4.31,0,0,0,2.63-1.88,9.3,9.3,0,0,1-1.88-3.31,5.19,5.19,0,0,0-1.53,3.33C164,249.39,164.3,250.15,164.74,250.15Zm3.41-3a18.47,18.47,0,0,0,2.15-4.62,7.53,7.53,0,0,0-3.8,1.51A8.26,8.26,0,0,0,168.15,247.16Z" transform="translate(113.38 -1.14)"/><path class="cls-1" d="M200.55,237.72c.7,0,1.66.53,1.73,1a8.44,8.44,0,0,1-.42,2c.51.52,1.27-.45,2-.48s.91.74.34,1.27a8.31,8.31,0,0,1-2.8,1.32,63.28,63.28,0,0,1-2.8,9.42c-.34.8-.82,1-1.21,1a.85.85,0,0,1-.86-.72c0-.73.64-1.51,1.13-2.46a28.52,28.52,0,0,0,2.48-6.92,9.79,9.79,0,0,1-2.29.36,1.92,1.92,0,0,1-1.65-1.08,3.1,3.1,0,0,1-.35-.82.28.28,0,0,1,.45-.3,3.58,3.58,0,0,0,1.72.7,10.8,10.8,0,0,0,2.36-.23,12.45,12.45,0,0,0,.22-2.18c0-.49-.55-.71-1-1a.26.26,0,0,1,0-.42,1.5,1.5,0,0,1,1-.46Zm3.61,11.89c.12,1.17.62,2.07,2.45,2.33a23.07,23.07,0,0,0,3.73,0c.56,0,.88.36.87.8,0,1-2.64,1.07-4.25.87-3-.36-3.92-1.89-3.66-3.9.1-.75.79-.69.86-.08Zm7.23-5.91c0,.66-.33,1-1.27.94a8.83,8.83,0,0,0-2.3.63c-.46.14-.6-.32-.31-.53s.84-.58,1.14-.82.35-.56-.1-.85a4.1,4.1,0,0,0-2.24-.3c-.59,0-.65-.52-.19-.7C208.46,241.15,211.31,242.09,211.39,243.7Z" transform="translate(113.38 -1.14)"/><path class="cls-1" d="M-5.68,274.15a1.41,1.41,0,0,1,.91-.31c.53,0,2,.17,2,.85a19.81,19.81,0,0,1-.47,2.4.77.77,0,0,0,1,.56c.45-.08.76-.31,1.19-.35s.73.1.76.49a.8.8,0,0,1-.5.8,19.78,19.78,0,0,1-2.78,1.09c-.08.82-.13,1.76-.13,2.84,0,.18,0,.36,0,.54a11.58,11.58,0,0,1,5.62-1.62c2.14,0,3.64,1.21,3.64,2.85,0,1.93-1.31,3.78-4.15,3.78-2.08,0-3.6-1.89-2.65-4.36.23-.57.85-.5.76.11-.19,1.31-.11,2.79,1.87,2.79a2.47,2.47,0,0,0,2.75-2.36c0-1.17-1-1.89-2.65-1.89a9.86,9.86,0,0,0-5.16,2c0,1.51.13,2.69.13,3.14a3.07,3.07,0,0,1-.26,1.59,1.12,1.12,0,0,1-.91.68c-.38,0-.67-.53-1-.9a8.64,8.64,0,0,0-1.9-1.52c-.37.34-.74.68-1,.68a1.24,1.24,0,0,1-1.11-1.17c0-.51.2-.65.51-.72a4.27,4.27,0,0,0,1.4-.58c1-.64,2-1.3,3-1.9,0-.35,0-.72,0-1.12,0-.76,0-1.67.09-2.57a9.39,9.39,0,0,1-1.46.26,3.5,3.5,0,0,1-2.14-.18A2.88,2.88,0,0,1-9.84,278h0c0-.47.23-.65.67-.28A3.8,3.8,0,0,0-6.39,279a9,9,0,0,0,1.75-.33c.08-1.23.16-2.31.16-2.85s-.35-.66-1-.95C-5.91,274.67-6,274.41-5.68,274.15Zm.79,13.15a17.63,17.63,0,0,0,.09-2.18,23.51,23.51,0,0,0-2.15,1.65c.54.3,1.12.6,1.46.74S-4.94,287.65-4.89,287.3ZM1.71,278a5.11,5.11,0,0,1,4.94.14c.53.37.82.78.67,1.29a.81.81,0,0,1-1.36.39,4.79,4.79,0,0,0-4.12-1.19C1.39,278.71,1.29,278.24,1.71,278Z" transform="translate(113.38 -1.14)"/><path class="cls-1" d="M29.85,281.21a1.4,1.4,0,0,0,.55,1c1.2,1.18,3.53,3.38,4.33,4.86a3.7,3.7,0,0,1,.62,1.92,1,1,0,0,1-1,1.07c-.54,0-.86-.54-1.31-1.68a18.44,18.44,0,0,0-3.59-5.33,2.63,2.63,0,0,1-.91-1.69,5,5,0,0,1,1.33-2.68c1.45-1.92,2.82-3.56,2.82-4.33,0-.45-.27-.6-.54-1s0-.55.35-.5a3.45,3.45,0,0,1,2.14,1.16c.29.36.28.66-.18,1.33-.83,1.22-3,3.08-4.14,4.66A2.25,2.25,0,0,0,29.85,281.21Z" transform="translate(113.38 -1.14)"/><path class="cls-1" d="M65.83,275a9,9,0,0,1-.63,2,10.31,10.31,0,0,0-.69,2.66c0,.43.16.43.31,0,.72-2,1.68-3.86,3.29-3.85s3.5,1.66,3.5,5.15c0,4.89-2.71,8.09-8,9.15-.89.17-1.07-.57-.23-.86,4.65-1.57,6.57-4,6.57-8.31,0-2.45-.79-4-2-4-1.45,0-2.62,3.31-2.62,5.26,0,.95.29,1.65.29,2.14s-.17.77-.53.85a1,1,0,0,1-1-.42,6.2,6.2,0,0,1-.75-3.06,45.89,45.89,0,0,1,.76-6.06,3.6,3.6,0,0,0-.62-2.41c-.17-.32,0-.55.41-.47A2.47,2.47,0,0,1,65.83,275Z" transform="translate(113.38 -1.14)"/><path class="cls-1" d="M99,273.71c-.3-.22-.23-.53.1-.6a2.62,2.62,0,0,1,1.07,0,2.34,2.34,0,0,1,1.71,1.88c0,.61-.85,2.67-1.38,4.6a26.16,26.16,0,0,0-.72,3.8l1.1.14c.77.12,1.15.37,1.15.79,0,.62-.7,1-2.38.77,0,.3,0,.62,0,.93,0,1.58.75,2.41,2.32,2.41a2.75,2.75,0,0,0,3-2.9c0-1.77-1.26-3.54-3.33-4.88-.51-.33-.16-1,.42-.71,2.73,1.19,4.52,3.54,4.52,5.83a4.11,4.11,0,0,1-4.43,4.1c-2.3,0-3.64-1.48-3.64-4.06,0-.28,0-.59,0-.92-1.74-.46-3.14-1.63-3.14-2.8a3.63,3.63,0,0,1,1.12-2.19c.63-.77,1-1.13.68-1.6a4.51,4.51,0,0,0-1.33-1.2c-.42-.29-.24-.71.24-.64h0c1.22.18,2.65.85,2.95,1.89a.88.88,0,0,1-.48,1.12c-.27.16-.74.46-1.06.7a2.46,2.46,0,0,0-1.17,1.65c0,.5.84,1,2.35,1.37.19-1.56.48-3.28.74-4.77s.48-2.67.52-3.3-.31-1-1-1.44Z" transform="translate(113.38 -1.14)"/><path class="cls-1" d="M135.76,289.19c-.85.15-1-.46-.26-.69,4.52-1.39,5.84-4.09,5.84-6.92,0-3.45-2.29-5.27-5.21-5.47.71,2.37-.09,5.17-1.47,7.64-1.25,2.26-2.7,3.58-3.9,3.58-1.38,0-3.08-2.09-3.08-4.57a7.89,7.89,0,0,1,8.2-7.72c4.12,0,7.22,2.74,7.22,6.45,0,3.94-2.38,6.87-7.34,7.7Zm-4.91-3.76c.65,0,1.57-.88,2.55-2.45,1.34-2.15,2.28-4.67,1.72-6.88a6.33,6.33,0,0,0-6,6.16C129.09,284,130,285.43,130.85,285.43Z" transform="translate(113.38 -1.14)"/><rect class="cls-2" x="1.45" y="77.09" width="439.97" height="245.64"/><path class="cls-3" d="M30.56,21.18l-.33-.09a14.74,14.74,0,1,0-28.46,0l-.33.09a15.09,15.09,0,1,1,29.12,0Z" transform="translate(113.38 -1.14)"/><path class="cls-3" d="M31.33,21.19,31,21.1A15.9,15.9,0,0,0,31.54,17,15.54,15.54,0,1,0,1,21.09l-.33.09A15.72,15.72,0,0,1,.12,17a15.88,15.88,0,1,1,31.76,0A15.74,15.74,0,0,1,31.33,21.19Z" transform="translate(113.38 -1.14)"/><path class="cls-3" d="M1.7,21.75A37,37,0,0,0,5.06,23.5a18,18,0,0,0,3.51,1.21,11.33,11.33,0,0,0,1.82.23,9.16,9.16,0,0,0,1.81-.09,14,14,0,0,0,3.48-1.12l1.7-.8c.58-.27,1.16-.54,1.75-.79A17.05,17.05,0,0,1,22.84,21a14.35,14.35,0,0,1,3.87-.1,17.31,17.31,0,0,1,1.89.31q.93.21,1.83.51l-.93-.14L29,21.55l-.47-.06c-.63-.06-1.26-.1-1.88-.11a16.36,16.36,0,0,0-3.7.36c-.6.14-1.19.31-1.78.51s-1.16.44-1.72.69-1.13.53-1.7.81l-1.73.82a17.85,17.85,0,0,1-1.81.7,11.37,11.37,0,0,1-1.92.44,10.14,10.14,0,0,1-3.92-.3,17.32,17.32,0,0,1-1.83-.65,18.39,18.39,0,0,1-1.72-.86A25.35,25.35,0,0,1,1.7,21.75Z" transform="translate(113.38 -1.14)"/><path class="cls-3" d="M2.53,24.21a26.86,26.86,0,0,0,2.85,1.71c.49.25,1,.47,1.5.67a12,12,0,0,0,1.54.49,10.52,10.52,0,0,0,1.57.27,9.38,9.38,0,0,0,1.59,0,10.56,10.56,0,0,0,1.57-.21,14.21,14.21,0,0,0,1.55-.42c.51-.17,1-.36,1.51-.58s1-.43,1.51-.67c1-.46,2-1,3.05-1.4a15,15,0,0,1,3.26-1A7.58,7.58,0,0,1,25.74,23H26l.21,0,.42.06a5.45,5.45,0,0,1,.82.2l-.41,0h-.42l-.41,0-.21,0-.2,0a9.5,9.5,0,0,0-1.6.35,18,18,0,0,0-3,1.28c-1,.51-1.95,1.05-2.95,1.56-.51.26-1,.51-1.54.74s-1.06.44-1.6.62a14,14,0,0,1-1.69.44,11.29,11.29,0,0,1-1.75.19A10.31,10.31,0,0,1,8.17,28a10.79,10.79,0,0,1-1.6-.67A12.15,12.15,0,0,1,5.1,26.4l-.35-.24-.34-.26c-.22-.17-.45-.34-.66-.53s-.42-.38-.63-.57l-.3-.29Z" transform="translate(113.38 -1.14)"/><path class="cls-3" d="M3.94,27.18l.5.28c.16.09.32.19.49.27.33.18.66.36,1,.52a16.31,16.31,0,0,0,2,.87,9.52,9.52,0,0,0,4.18.55,16.82,16.82,0,0,0,4.19-1.12,21.13,21.13,0,0,1,2.17-.69l.29-.07.28-.06.29,0,.14,0h.15a4.92,4.92,0,0,1,1.15,0,8.91,8.91,0,0,0-2.11.72c-.67.31-1.33.66-2,1a18.32,18.32,0,0,1-2.12.92c-.18.07-.37.12-.56.18l-.57.15-.59.11-.59.08a9.62,9.62,0,0,1-1.2,0,9.44,9.44,0,0,1-1.19-.15l-.59-.13-.57-.17-.55-.21-.27-.12L7.6,30a11.6,11.6,0,0,1-2-1.22c-.31-.23-.6-.49-.88-.74A10.32,10.32,0,0,1,3.94,27.18Z" transform="translate(113.38 -1.14)"/><path class="cls-3" d="M29.41,15.12a1.62,1.62,0,0,0-1-.52,1.5,1.5,0,0,0-.89.23,16.23,16.23,0,0,0-1.72-.08,7.14,7.14,0,0,1,.7-.67l.21-.15,2-1.88s.1-.17-.17-.17-1.05.36-2.24,1.94l-.94.94c-.43,0-.89.05-1.37.11.76-.82,1.82-1.94,1.88-2a.71.71,0,0,1,.4-.19l.21-.06a2.75,2.75,0,0,0,.63-.54l.74-.87s0,0,0,0l-.89.87s-.06.07-.09,0,0-.08,0-.08l.87-.93s0,0,0,0-.85.8-.9.86-.08.05-.08.05,0-.09,0-.09l.89-.9s0,0,0,0l-.95.87s0,.06-.06,0,0-.08,0-.08l.92-.9s0,0,0,0l-1.11.92a1.18,1.18,0,0,0-.4.53.89.89,0,0,1-.21.48A26.46,26.46,0,0,1,23.36,15a12.32,12.32,0,0,0-1.91.46l-.35.12a1.43,1.43,0,0,0,.23-.73,1.6,1.6,0,0,0-.43-1,.16.16,0,0,0-.13-.06h0a.16.16,0,0,0-.13.06,1.6,1.6,0,0,0-.43,1,1.53,1.53,0,0,0,.37.93,11,11,0,0,0-1.7.89,8.08,8.08,0,0,0,.42-2.17,5.83,5.83,0,0,0,0-.59,6.63,6.63,0,0,0,1.37-.65l.05,0h0a5,5,0,0,0,1.16.21,1.69,1.69,0,0,0,.84.26l.2,0a1.61,1.61,0,0,0,.91-.59.17.17,0,0,0,0-.14.2.2,0,0,0-.08-.12,1.35,1.35,0,0,0-1.89.24,4.52,4.52,0,0,1-.83-.12,12,12,0,0,0,1.46-1.18l.08-.09H23a3.68,3.68,0,0,0,2.43-.84h0a1.52,1.52,0,0,0,.9-.28,1.54,1.54,0,0,0,.53-.94.17.17,0,0,0,0-.14.17.17,0,0,0-.13-.07,1.56,1.56,0,0,0-1.05.26,1.63,1.63,0,0,0-.53.91,3.12,3.12,0,0,1-.72.45,3.3,3.3,0,0,1-1.38.29,5.57,5.57,0,0,0,1.22-1.73.43.43,0,0,1,0,0A1.62,1.62,0,0,0,25,8.82a1.59,1.59,0,0,0,0-1.09.19.19,0,0,0-.1-.1.17.17,0,0,0-.14,0,1.55,1.55,0,0,0-.79.74,1.65,1.65,0,0,0,0,1,.21.21,0,0,0-.07.11,6.57,6.57,0,0,1-1.56,2,10.75,10.75,0,0,1-1.77,1.37,3.53,3.53,0,0,1,.9-2.07,1.52,1.52,0,0,0,.88-.51,1.58,1.58,0,0,0,.26-1.06.15.15,0,0,0-.07-.12.18.18,0,0,0-.14,0,1.64,1.64,0,0,0-.95.53,1.64,1.64,0,0,0-.27,1,4,4,0,0,0-1,2.52,6.17,6.17,0,0,1-.83.37A10.33,10.33,0,0,0,19.24,12a1.65,1.65,0,0,0,.18-1,1.05,1.05,0,0,0-.05-.19l.12-.43c.09-.22.18-.43.26-.58a1.63,1.63,0,0,0,.66-.68l.32-.08a6,6,0,0,0,1.88-.85h0a1.63,1.63,0,0,0,.92-.58,1.52,1.52,0,0,0,.22-1.06.15.15,0,0,0-.07-.12.17.17,0,0,0-.14,0,1.57,1.57,0,0,0-.93.57,1.58,1.58,0,0,0-.23.93,5.5,5.5,0,0,1-1.75.79l-.11,0A1.67,1.67,0,0,0,20.38,8a.18.18,0,0,0-.25-.09,1.65,1.65,0,0,0-.74.79,1.23,1.23,0,0,0-.05.25,6.85,6.85,0,0,1-1.56-.07c.2-.29.41-.6.65-.92l.19-.26H19a4.44,4.44,0,0,0,2.08-.45,1.52,1.52,0,0,0,.87-.44,1.59,1.59,0,0,0,.35-1,.16.16,0,0,0-.06-.13.24.24,0,0,0-.14-.05,1.65,1.65,0,0,0-1,.46,1.52,1.52,0,0,0-.35.93,4.25,4.25,0,0,1-1.85.34c.89-1.13,1.67-1.95,1.68-2a.19.19,0,0,0,0-.26.18.18,0,0,0-.26,0,32,32,0,0,0-2.18,2.61L17.94,8a10.55,10.55,0,0,1,0-1.59,1.63,1.63,0,0,0,.53-.77,1.64,1.64,0,0,0-.17-1.07.18.18,0,0,0-.12-.09.18.18,0,0,0-.14,0,1.57,1.57,0,0,0-.66.86,1.6,1.6,0,0,0,.17,1.08v0a10.61,10.61,0,0,0,0,2,0,0,0,0,0,0,0,15.48,15.48,0,0,0-1,1.63c-.13.25-.24.49-.33.71V6.36a1.53,1.53,0,0,0,.38-.94,1.25,1.25,0,0,0-.1-.48,1.9,1.9,0,0,0-.34-.55.21.21,0,0,0-.13,0,.19.19,0,0,0-.13,0,1.6,1.6,0,0,0-.43,1,1.41,1.41,0,0,0,.09.48,2.09,2.09,0,0,0,.28.48v4.43a7.46,7.46,0,0,0-.33-.72,13.78,13.78,0,0,0-1-1.63,0,0,0,0,1,0,0,9.87,9.87,0,0,0,0-2v0a1.56,1.56,0,0,0,.18-1.07,1.66,1.66,0,0,0-.67-.87.22.22,0,0,0-.14,0,.17.17,0,0,0-.11.09,1.52,1.52,0,0,0-.17,1.07,1.46,1.46,0,0,0,.53.77,10.66,10.66,0,0,1,0,1.6l-.2-.28a30.76,30.76,0,0,0-2.17-2.61.19.19,0,0,0-.26,0,.18.18,0,0,0,0,.26s.79.84,1.68,2a4.73,4.73,0,0,1-1.65-.25L11.48,7A1.59,1.59,0,0,0,11.13,6a1.56,1.56,0,0,0-1-.45.18.18,0,0,0-.14,0,.38.38,0,0,0-.06.13,1.65,1.65,0,0,0,.35,1,1.51,1.51,0,0,0,.88.44,4.37,4.37,0,0,0,2.08.45h.35l.2.27c.23.31.45.62.65.92a7.48,7.48,0,0,1-1.56.07,1,1,0,0,0-.06-.25h0a1.59,1.59,0,0,0-.74-.8.22.22,0,0,0-.14,0,.18.18,0,0,0-.11.1,1.78,1.78,0,0,0-.13.78l-.12,0a5.6,5.6,0,0,1-1.75-.79A1.48,1.48,0,0,0,9.61,7a1.6,1.6,0,0,0-.92-.58.17.17,0,0,0-.14,0,.2.2,0,0,0-.08.12,1.67,1.67,0,0,0,.22,1.07,1.56,1.56,0,0,0,.92.57h0a6,6,0,0,0,1.88.86l.31.07a1.69,1.69,0,0,0,.66.68c.08.16.18.36.27.59l.12.42a.7.7,0,0,0-.06.19A1.55,1.55,0,0,0,13,12a10.35,10.35,0,0,0-.1,1.43,5,5,0,0,1-.82-.37,3.88,3.88,0,0,0-1-2.51,1.54,1.54,0,0,0-.27-1,1.63,1.63,0,0,0-1-.54.23.23,0,0,0-.14,0,.21.21,0,0,0-.07.12,1.61,1.61,0,0,0,.27,1.06,1.6,1.6,0,0,0,.88.52,3.53,3.53,0,0,1,.89,2.07,10.75,10.75,0,0,1-1.77-1.37,6.69,6.69,0,0,1-1.55-2,.16.16,0,0,0-.08-.1,1.56,1.56,0,0,0,0-1,1.61,1.61,0,0,0-.79-.75.2.2,0,0,0-.15,0,.17.17,0,0,0-.09.11,1.56,1.56,0,0,0,0,1.08A1.57,1.57,0,0,0,8,9.53v.05a5.52,5.52,0,0,0,1.22,1.73A3.33,3.33,0,0,1,7.84,11a4.08,4.08,0,0,1-.72-.44,1.63,1.63,0,0,0-.52-.91A1.61,1.61,0,0,0,5.54,9.4a.15.15,0,0,0-.12.07.18.18,0,0,0,0,.14,1.64,1.64,0,0,0,.53,1,1.58,1.58,0,0,0,.91.27h0a3.59,3.59,0,0,0,2.42.85h.3l.09.08a12,12,0,0,0,1.46,1.18,5.56,5.56,0,0,1-.84.13,1.51,1.51,0,0,0-.83-.5,1.61,1.61,0,0,0-1.06.25.2.2,0,0,0-.08.12.23.23,0,0,0,0,.14,1.57,1.57,0,0,0,.91.59.68.68,0,0,0,.2,0,1.63,1.63,0,0,0,.84-.26,4.65,4.65,0,0,0,1.15-.2h0l0,0a7.44,7.44,0,0,0,1.37.64l0,.6a8.42,8.42,0,0,0,.42,2.16,10.49,10.49,0,0,0-1.7-.88,1.56,1.56,0,0,0,.38-.94,1.6,1.6,0,0,0-.43-1,.21.21,0,0,0-.13,0,.19.19,0,0,0-.13,0,1.59,1.59,0,0,0-.44,1,1.43,1.43,0,0,0,.23.73l-.34-.12a13.72,13.72,0,0,0-1.9-.45,12.12,12.12,0,0,0-1.49-2.26h0a1.66,1.66,0,0,0-.63-.89,1.61,1.61,0,0,0-1.08-.15.18.18,0,0,0-.11.08.14.14,0,0,0,0,.14,1.55,1.55,0,0,0,.62.89,1.46,1.46,0,0,0,.74.19h.2a13.86,13.86,0,0,1,1.33,1.95c-.54-.07-1.06-.1-1.53-.12a.22.22,0,0,0,0-.08l-.51-.42c-.26-.22-.55-.47-.82-.68h0A1.64,1.64,0,0,0,5,12.61a1.54,1.54,0,0,0-1.06-.23.15.15,0,0,0-.12.07.17.17,0,0,0,0,.14,1.58,1.58,0,0,0,.55.93,1.46,1.46,0,0,0,.87.25h0c.29.23.62.51.9.75l.24.21a16.51,16.51,0,0,0-1.69.07,1.55,1.55,0,0,0-.89-.23h0a1.67,1.67,0,0,0-1,.52.18.18,0,0,0,0,.14.2.2,0,0,0,.06.13,1.73,1.73,0,0,0,.93.33h.11a1.59,1.59,0,0,0,1-.52h0a15.69,15.69,0,0,1,2.57,0,13.71,13.71,0,0,1,3.25.6,10.54,10.54,0,0,1,2.92,1.47l.13.09,0,.05a9.47,9.47,0,0,1,2.16,2.26V22s0,0,0,.06v.79a.2.2,0,0,0,.19.19.19.19,0,0,0,.18-.19V19.62a9.87,9.87,0,0,1,2.16-2.26l.06,0,.12-.1a10.8,10.8,0,0,1,2.92-1.46,13.31,13.31,0,0,1,3.25-.6,16.9,16.9,0,0,1,2.57,0h0a1.66,1.66,0,0,0,.95.53h.11a1.62,1.62,0,0,0,.93-.34.19.19,0,0,0,.07-.12A.23.23,0,0,0,29.41,15.12ZM17.56,9.21h0a8.37,8.37,0,0,0,1.31.11l.44,0a2.76,2.76,0,0,0,.08.37c-.09.19-.21.45-.32.74a2.13,2.13,0,0,0-.29-.27.17.17,0,0,0-.14,0,.2.2,0,0,0-.12.08,1.67,1.67,0,0,0-.23,1.06,1.52,1.52,0,0,0,.56.86c.21,1.51.06,4-.63,4.94a10,10,0,0,0-.87.74,6.75,6.75,0,0,1,.19-1.5,1.45,1.45,0,0,0,.7-.65,1.57,1.57,0,0,0,.06-1.09.21.21,0,0,0-.1-.11.17.17,0,0,0-.14,0,1.55,1.55,0,0,0-.82.7,1.57,1.57,0,0,0-.06,1.08A6.79,6.79,0,0,0,17,18.12v0a9.91,9.91,0,0,0-.72.84V17.57a14.28,14.28,0,0,1,.9-3.86,1.56,1.56,0,0,0,.71-.65A1.6,1.6,0,0,0,18,12a.17.17,0,0,0-.09-.11.2.2,0,0,0-.15,0,1.55,1.55,0,0,0-.82.7,1.6,1.6,0,0,0-.06,1.07c-.2.55-.39,1.15-.54,1.73v-3A6.65,6.65,0,0,1,17.56,9.21ZM13.35,12.1a1.57,1.57,0,0,0,.55-.86,1.53,1.53,0,0,0-.23-1.06.14.14,0,0,0-.12-.08.17.17,0,0,0-.14,0,1.43,1.43,0,0,0-.28.26c-.11-.28-.23-.54-.33-.74a1.7,1.7,0,0,0,.09-.36h.44a8.47,8.47,0,0,0,1.31-.11h0a6.64,6.64,0,0,1,1.26,3.18v3a17.48,17.48,0,0,0-.53-1.73,1.67,1.67,0,0,0-.06-1.07,1.63,1.63,0,0,0-.83-.71.14.14,0,0,0-.14,0,.19.19,0,0,0-.1.1A1.71,1.71,0,0,0,14.32,13a1.53,1.53,0,0,0,.7.66,13.76,13.76,0,0,1,.9,3.86V19a9.41,9.41,0,0,0-.72-.84,0,0,0,0,0,0,0A7.82,7.82,0,0,0,15,16.2,1.67,1.67,0,0,0,15,15.13a1.56,1.56,0,0,0-.83-.71.17.17,0,0,0-.14,0,.17.17,0,0,0-.09.11,1.57,1.57,0,0,0,0,1.08,1.54,1.54,0,0,0,.71.66,7.4,7.4,0,0,1,.19,1.49A10.43,10.43,0,0,0,14,17C13.29,16,13.13,13.6,13.35,12.1Z" transform="translate(113.38 -1.14)"/></svg>